<?xml version="1.0" encoding="UTF-8" standalone="no"?>
<!-- Created with Inkscape (http://www.inkscape.org/) -->

<svg
   version="1.1"
   id="svg1"
   width="5564"
   height="3072"
   viewBox="0 0 5564 3072"
   sodipodi:docname="Alma em contas.svg"
   inkscape:version="1.4.2 (f4327f4, 2025-05-13)"
   xmlns:inkscape="http://www.inkscape.org/namespaces/inkscape"
   xmlns:sodipodi="http://sodipodi.sourceforge.net/DTD/sodipodi-0.dtd"
   xmlns="http://www.w3.org/2000/svg"
   xmlns:svg="http://www.w3.org/2000/svg">
  <defs
     id="defs1" />
  <sodipodi:namedview
     id="namedview1"
     pagecolor="#ffffff"
     bordercolor="#000000"
     borderopacity="0.25"
     inkscape:showpageshadow="2"
     inkscape:pageopacity="0.0"
     inkscape:pagecheckerboard="0"
     inkscape:deskcolor="#d1d1d1"
     inkscape:zoom="0.088378906"
     inkscape:cx="2596.7735"
     inkscape:cy="2585.4586"
     inkscape:window-width="1360"
     inkscape:window-height="745"
     inkscape:window-x="-8"
     inkscape:window-y="-8"
     inkscape:window-maximized="1"
     inkscape:current-layer="g1" />
  <g
     inkscape:groupmode="layer"
     inkscape:label="Image"
     id="g1">
    <g
       id="g2">
      <path
         style="fill:#dca89e"
         d="m 2221.0789,2918.4167 c 0.048,-1.165 0.285,-1.4019 0.6042,-0.6042 0.2889,0.7219 0.2534,1.5844 -0.079,1.9167 -0.3323,0.3323 -0.5687,-0.2584 -0.5253,-1.3125 z m -506,-38 c 0.048,-1.165 0.285,-1.4019 0.6042,-0.6042 0.2889,0.7219 0.2534,1.5844 -0.079,1.9167 -0.3323,0.3323 -0.5687,-0.2584 -0.5253,-1.3125 z m 171.7336,-45.0998 c 0.7219,-0.2889 1.5844,-0.2534 1.9167,0.079 0.3323,0.3323 -0.2584,0.5687 -1.3125,0.5253 -1.165,-0.048 -1.4019,-0.285 -0.6042,-0.6042 z m 1327.9375,0.021 c 0.6875,-0.2774 1.8125,-0.2774 2.5,0 0.6875,0.2774 0.125,0.5044 -1.25,0.5044 -1.375,0 -1.9375,-0.227 -1.25,-0.5044 z m -316.6711,-478.921 c 0.048,-1.165 0.285,-1.4019 0.6042,-0.6042 0.2889,0.7219 0.2534,1.5844 -0.079,1.9167 -0.3323,0.3323 -0.5687,-0.2584 -0.5253,-1.3125 z m 1881.7336,-319.0998 c 0.7219,-0.2889 1.5844,-0.2534 1.9167,0.079 0.3323,0.3323 -0.2584,0.5687 -1.3125,0.5253 -1.165,-0.048 -1.4019,-0.285 -0.6042,-0.6042 z M 2736.75,1516.3377 c 0.6875,-0.2774 1.8125,-0.2774 2.5,0 0.6875,0.2774 0.125,0.5044 -1.25,0.5044 -1.375,0 -1.9375,-0.227 -1.25,-0.5044 z m 278,-0.043 c 1.2375,-0.2384 3.2625,-0.2384 4.5,0 1.2375,0.2383 0.225,0.4333 -2.25,0.4333 -2.475,0 -3.4875,-0.195 -2.25,-0.4333 z m 102,0.043 c 0.6875,-0.2774 1.8125,-0.2774 2.5,0 0.6875,0.2774 0.125,0.5044 -1.25,0.5044 -1.375,0 -1.9375,-0.227 -1.25,-0.5044 z m -136.9375,-1.0208 c 0.7219,-0.2889 1.5844,-0.2534 1.9167,0.079 0.3323,0.3323 -0.2584,0.5687 -1.3125,0.5253 -1.165,-0.048 -1.4019,-0.285 -0.6042,-0.6042 z M 2968,1376.6224 c 0,-0.2076 0.7875,-0.9951 1.75,-1.75 1.5861,-1.2438 1.6214,-1.2085 0.3776,0.3776 -1.3064,1.6657 -2.1276,2.1955 -2.1276,1.3724 z M 2563.8724,1364.25 c -1.2438,-1.5861 -1.2085,-1.6214 0.3776,-0.3776 0.9625,0.7549 1.75,1.5424 1.75,1.75 0,0.8231 -0.8212,0.2933 -2.1276,-1.3724 z M 3473,1341.6224 c 0,-0.2076 0.7875,-0.9951 1.75,-1.75 1.5861,-1.2438 1.6214,-1.2085 0.3776,0.3776 -1.3064,1.6657 -2.1276,2.1955 -2.1276,1.3724 z m -254,-13 c 0,-0.2076 0.7875,-0.9951 1.75,-1.75 1.5861,-1.2438 1.6214,-1.2085 0.3776,0.3776 -1.3064,1.6657 -2.1276,2.1955 -2.1276,1.3724 z m -658.595,-9.8724 -1.905,-2.25 2.25,1.905 c 2.1144,1.7902 2.7052,2.595 1.905,2.595 -0.1898,0 -1.2023,-1.0125 -2.25,-2.25 z M 3564.269,985.30701 c 0.973,-0.25354 2.323,-0.23687 3,0.0371 0.6771,0.27393 -0.119,0.48137 -1.769,0.46099 -1.65,-0.0204 -2.2039,-0.2445 -1.231,-0.49804 z m 28.5435,0.01 c 0.7219,-0.28887 1.5844,-0.25335 1.9167,0.0789 0.3323,0.33229 -0.2584,0.56864 -1.3125,0.52522 -1.165,-0.048 -1.4019,-0.28494 -0.6042,-0.60416 z m -1438,-1 c 0.7219,-0.28887 1.5844,-0.25335 1.9167,0.0789 0.3323,0.33229 -0.2584,0.56864 -1.3125,0.52522 -1.165,-0.048 -1.4019,-0.28494 -0.6042,-0.60416 z M 3396.2522,821.5 c 0.011,-2.2 0.2159,-2.98225 0.4551,-1.73834 0.2392,1.24391 0.2301,3.04391 -0.02,4 -0.2503,0.95609 -0.446,-0.0617 -0.4349,-2.26166 z"
         id="path6" />
      <path
         style="fill:#c1957d"
         d="m 3282,1651.3951 c -49.3783,-2.0549 -99.0319,-7.9783 -141.7937,-16.9151 -27.9943,-5.8505 -73.0162,-18.9283 -95.2063,-27.6552 -63.6518,-25.0329 -117.0446,-56.1772 -161.1358,-93.9913 -3.0997,-2.6584 -5.8848,-4.8335 -6.1891,-4.8335 -0.3043,0 -5.4182,4.1079 -11.3642,9.1286 -31.1614,26.3124 -70.5794,51.8843 -106.8109,69.2924 -23.4078,11.2468 -47.0367,21.2439 -64,27.0778 -73.9483,25.4319 -146.7301,37.3369 -229,37.4579 -136.2451,0.2003 -255.3869,-22.4445 -365,-69.3741 -43.4606,-18.6072 -97.3432,-47.6578 -130.5,-70.3585 -24.7964,-16.9768 -45.0061,-31.547 -57,-41.0941 -18.6897,-14.8769 -47.4575,-43.1202 -48.6139,-47.7276 -0.9513,-3.7907 3.3536,-8.4317 16.4109,-17.6923 29.3719,-20.8311 90.4609,-54.7319 128.203,-71.1451 8.525,-3.7074 16.4,-7.1442 17.5,-7.6374 1.1,-0.4932 8.075,-3.0959 15.5,-5.7839 23.1943,-8.3966 46.8572,-15.3793 76.5,-22.5744 10.45,-2.5365 20.575,-5.0442 22.5,-5.5726 1.925,-0.5284 9.35,-2.3259 16.5,-3.9944 14.7476,-3.4416 17.5,-4.4242 17.5,-6.2472 0,-0.7083 -2.2754,-3.7554 -5.0565,-6.7714 -2.781,-3.016 -7.1296,-8.4087 -9.6634,-11.9837 -2.5339,-3.575 -6.9539,-9.425 -9.8222,-13 -2.8684,-3.575 -7.8833,-10.325 -11.1443,-15 -3.2611,-4.675 -7.6748,-10.975 -9.8085,-14 -18.1803,-25.7757 -35.3286,-53.1732 -51.0114,-81.5 -7.0384,-12.7128 -29.4937,-56.8109 -29.4937,-57.92 0,-0.254 -1.746,-4.2008 -3.88,-8.7709 -5.7929,-12.4054 -14.7642,-35.4523 -20.1673,-51.8091 -8.6015,-26.03904 -11.656,-41.34154 -8.7357,-43.76515 3.1016,-2.5741 11.1817,-4.45409 37.2472,-8.66629 55.5192,-8.97194 75.2584,-10.96798 109.0358,-11.02578 22.6677,-0.0388 33.5674,0.59122 61,3.52581 23.7575,2.54145 62.5327,9.97073 94,18.01029 6.05,1.54571 12.575,2.9478 14.5,3.11575 3.2258,0.28144 3.5279,0.0703 3.8566,-2.69463 0.1962,-1.65 -0.3739,-7.95 -1.2667,-14 -10.329,-69.98783 -11.9886,-88.95491 -11.2878,-129 0.5488,-31.35984 1.9061,-47.86382 5.6804,-69.07151 3.4575,-19.42748 4.9559,-21.0891 18.0175,-19.98015 19.555,1.66025 78.2257,18.14525 105,29.50238 20.8834,8.85835 28.1978,12.15512 43.9176,19.79473 21.5121,10.45459 45.6978,24.27221 66.0999,37.76376 26.9936,17.85038 67.2712,48.97896 88.4825,68.38364 6.05,5.53472 11.3433,10.07304 11.763,10.08514 1.0525,0.0304 3.6282,-5.7278 11.1728,-24.97799 10.1999,-26.02515 21.3864,-52.26271 33.0423,-77.5 5.5852,-12.09314 25.8531,-52.28039 29.3997,-58.29401 1.7172,-2.9117 3.1222,-5.56863 3.1222,-5.90428 0,-0.68341 20.7787,-35.77966 27.9017,-47.12728 12.7807,-20.36103 37.6244,-57.02996 45.5235,-67.19217 23.7367,-30.53717 54.3517,-65.67343 63.6242,-73.0203 3.4959,-2.7699 3.6013,-2.78723 6.9836,-1.14911 5.0126,2.42767 15.4204,12.59725 30.8942,30.18715 13.3337,15.15707 35.8904,42.83626 40.6925,49.93345 1.3273,1.9616 6.0466,8.74155 10.4875,15.06655 35.027,49.88823 64.6095,103.24395 90.9279,164 14.0751,32.49232 26.304,64.15034 30.954,80.13372 3.0269,10.40401 5.1427,15.86628 6.1458,15.86628 0.4747,0 8.8511,-7.0361 18.6141,-15.63577 35.3029,-31.09614 63.1713,-52.15238 90.751,-68.56761 23.5953,-14.04377 52.0231,-29.23593 69,-36.87447 22.5117,-10.12885 34.4219,-15.15326 46,-19.4055 7.15,-2.62595 15.7,-5.8027 19,-7.05945 3.3,-1.25674 11.175,-3.71222 17.5,-5.45661 6.325,-1.74439 14.425,-4.00262 18,-5.01829 26.3985,-7.49993 45.4861,-10.59141 47.7409,-7.7323 4.4044,5.58452 8.9887,55.68939 7.9284,86.6538 -1.2802,37.38665 -3.7562,60.48489 -12.725,118.71023 -3.3535,21.77042 -3.5619,26.05916 -1.4156,29.12354 2.9884,4.26649 10.5861,3.947 33.4713,-1.40752 22.7861,-5.33132 70.0412,-14.42038 90.1121,-17.33217 25.8069,-3.74394 57.5039,-4.76007 93.8879,-3.00981 11.825,0.56884 24.425,1.48324 28,2.032 3.575,0.54876 11.9,1.68307 18.5,2.52069 14.1837,1.80007 46.4592,7.112 51.6195,8.49558 1.9907,0.53374 4.8625,1.94824 6.3818,3.14333 2.6758,2.10482 2.7436,2.39505 2.163,9.2637 -1.1916,14.09671 -11.1334,46.85743 -21.4115,70.55663 -10.0982,23.2842 -24.4692,54.2417 -32.2632,69.5 -24.8834,48.7141 -61.8585,104.2385 -95.7896,143.8444 -5.115,5.9705 -9.1379,11.342 -8.9396,11.9367 0.1982,0.5947 3.9332,1.8815 8.3,2.8595 27.761,6.2173 58.7947,13.9234 70.4396,17.4912 23.8147,7.2963 61.32,21.2889 83.5,31.1523 28.7389,12.7801 65.723,32.3141 98.5,52.0251 17.3131,10.4116 46.3845,31.1722 48.0756,34.3321 0.8717,1.6288 0.017,3.1484 -5.4232,9.646 -16.6506,19.8855 -56.0511,54.0492 -86.6454,75.129 -24.69,17.0117 -49.5311,32.4413 -69.007,42.8624 -22.1275,11.84 -34.4991,17.9493 -50,24.6909 -9.625,4.186 -18.4,8.0227 -19.5,8.5259 -5.6122,2.5672 -12.369,5.231 -35.5,13.9956 -45.2403,17.1419 -75.5683,26.6956 -114.1892,35.9714 -37.8809,9.098 -95.3341,17.3834 -138.8108,20.0183 -17.8587,1.0822 -74.2149,1.988 -88,1.4143 z m 86,-35.9309 c 41.1509,-2.8698 67.6773,-6.1162 103,-12.6054 27.6843,-5.0859 35.8632,-6.988 76.5,-17.7904 3.85,-1.0235 15.775,-4.7753 26.5,-8.3374 72.45,-24.0629 155.3699,-66.3386 207.5,-105.7914 27.7021,-20.9654 38.2127,-29.2723 47.5,-37.5412 1.925,-1.714 5.0376,-4.4594 6.9169,-6.1011 2.1279,-1.8588 3.1988,-3.5535 2.8385,-4.4923 -1.03,-2.6842 -29.2417,-20.6888 -49.7554,-31.7538 -31.924,-17.2196 -54.9126,-27.6944 -88.5,-40.3255 -29.1615,-10.9666 -45.2887,-15.9354 -80,-24.6479 -47.0061,-11.7986 -65.2158,-14.8672 -70.8157,-11.9335 -2.6496,1.3881 -15.9335,13.035 -28.222,24.7441 -9.6166,9.1632 -10.7103,10.1379 -25.4647,22.6945 -23.9283,20.3641 -58.8709,45.3076 -90.4976,64.6011 -15.8899,9.6934 -18.6758,11.2634 -36.3001,20.4575 -6.985,3.6438 -13.5999,7.1731 -14.6999,7.8427 -2.8746,1.7501 -22.7699,10.4389 -38.5,16.8142 -56.5299,22.911 -111.5308,37.3173 -165,43.2181 -29.7366,3.2818 -158.0537,2.8777 -188.3476,-0.593 -10.9962,-1.2598 -14.3161,-0.3087 -9.059,2.5954 9.9313,5.4861 24.7748,14.0933 29.9066,17.3417 9.7492,6.1712 19.7217,11.188 42.5,21.3801 42.7933,19.1478 54.1074,23.0695 103.5,35.8749 48.8699,12.6698 99.2225,20.2803 164.5,24.8631 27.8368,1.9543 39.7908,1.8712 74,-0.5145 z m -860,-2.8902 c 51.0405,-4.1746 98.2716,-13.0901 142,-26.8042 42.1726,-13.2262 56.3864,-18.8512 88.3987,-34.9827 9.9557,-5.0169 20.8013,-10.4451 24.1013,-12.0627 3.3,-1.6176 11.625,-6.219 18.5,-10.2253 6.875,-4.0063 15.0929,-8.5539 18.2619,-10.1058 10.7567,-5.2676 8.1759,-5.5524 -29.2619,-3.229 -27.3516,1.6974 -106.785,1.7047 -133,0.012 -20.4774,-1.322 -59.162,-5.2891 -70.5,-7.2296 -104.6143,-17.9053 -181.0775,-49.8795 -271,-113.3225 -21.0956,-14.8836 -48.0195,-36.9877 -77.4976,-63.6244 -18.7687,-16.9596 -19.359,-17.36 -24.5445,-16.6493 -4.2367,0.5807 -28.7092,6.1283 -62.9579,14.2717 -52.1842,12.408 -99.9801,29.4446 -145,51.6846 -27.7247,13.6961 -66.5,39.1239 -66.5,43.6089 0,2.922 22.7351,23.8821 42.0693,38.7846 8.8725,6.8388 36.5892,25.2457 51.9307,34.4876 56.5285,34.0536 108.7891,58.9219 160,76.1364 73.0544,24.5571 136.4927,36.44 217,40.647 24.9463,1.3036 95.1395,0.4723 118,-1.3975 z m 575,-121.5277 c 66.2751,-7.1591 88.9936,-10.519 126,-18.6348 39.1073,-8.5765 67.0164,-17.3155 108.5,-33.974 35.7694,-14.3639 82.1921,-39.2049 107,-57.2564 43.8286,-31.8918 91.0644,-77.5654 131.4006,-127.055 7.0648,-8.668 38.6441,-50.922 43.8153,-58.6261 27.4563,-40.9046 49.8483,-80.4932 67.3086,-119 11.3407,-25.0107 27.7047,-73.2689 25.9541,-76.53994 -0.9438,-1.76358 -6.1103,-3.76669 -14.9786,-5.80735 -7.7528,-1.78398 -39.8394,-6.00108 -55.5,-7.2943 -21.8858,-1.80727 -69.0859,-1.5417 -91.5,0.51482 -57.4686,5.27283 -128.0614,21.97107 -134.3208,31.77267 -0.8269,1.2948 -3.793,8.9916 -6.5913,17.1041 -13.1096,38.0052 -15.5582,44.9429 -19.3236,54.75 -9.7705,25.4473 -24.436,57.1397 -37.3862,80.792 -21.3127,38.9257 -33.393,58.0759 -52.5518,83.3074 -20.5981,27.1272 -36.4271,46.2056 -56.4682,68.0604 -32.5904,35.54 -100.2648,87.4447 -145.8581,111.8699 -16.98,9.0965 -41.6629,21.28 -48.5,23.9397 -15.516,6.0359 -47.319,16.0911 -60.3387,19.0774 -14.0066,3.2127 -15.6571,3.8213 -13.5397,4.9923 1.735,0.9595 13.9065,2.6707 24.3784,3.4273 4.4,0.318 15.425,1.2569 24.5,2.0866 37.9538,3.4702 61.8774,4.2349 78,2.4933 z m -328.5,-4.021 c 26.7122,-2.1672 31.3305,-2.8205 31.7547,-4.4918 0.2435,-0.9597 -1.8412,-1.6014 -16.2547,-5.0039 -10.1016,-2.3845 -37.3303,-11.5088 -54.5,-18.2628 -41.758,-16.4263 -94.1183,-48.0273 -136.9816,-82.6723 -12.3927,-10.0168 -48.1719,-45.0325 -62.4265,-61.0945 -27.9461,-31.4896 -56.1826,-69.3733 -73.0441,-98 -1.2958,-2.2 -3.8034,-6.25 -5.5724,-9 -5.9514,-9.2519 -26.6104,-49.4887 -37.2242,-72.5 -10.4982,-22.7609 -30.2428,-74.9429 -38.7838,-102.5 -5.7795,-18.647 -4.9663,-17.7705 -23.0403,-24.8331 -31.4979,-12.30808 -72.1577,-20.28205 -121.1518,-23.75964 -44.8684,-3.18475 -120.8976,2.75761 -146.2475,11.43054 -6.0276,2.06222 -6.5514,2.47468 -6.8363,5.3829 -0.4915,5.0171 8.4506,38.5599 14.4034,54.0293 6.5056,16.9057 8.2026,20.8562 15.351,35.7346 18.4159,38.3308 54.7671,99.0609 79.0204,132.0154 2.4287,3.3 6.2388,8.475 8.467,11.5 12.6978,17.2388 35.537,44.6817 49.5185,59.5 53.1212,56.3005 95.3452,91.6556 137.0482,114.7537 3.575,1.9801 9.425,5.2361 13,7.2355 8.2719,4.6264 33.9219,17.1657 45,21.9988 11.5895,5.0562 27.4181,10.8936 50,18.4394 11.3559,3.7946 41.7534,11.9557 54,14.498 17.1742,3.5652 37.0929,7.5725 42.5,8.5503 18.3771,3.3232 65.049,8.0682 92.5,9.4041 17.9326,0.8727 64.9772,-0.3649 89.5,-2.3545 z m 58.5,-25.8725 c 0,-0.466 -4.0281,-4.0682 -8.9513,-8.0048 -4.9233,-3.9366 -16.901,-14.9095 -26.6171,-24.384 -32.9967,-32.1762 -58.5507,-66.6728 -86.1245,-116.264 -19.3448,-34.7914 -37.6209,-88.427 -47.875,-140.5 -5.878,-29.8501 -8.4897,-71.1241 -6.559,-103.6556 0.6804,-11.4644 1.6781,-23.9944 2.2172,-27.8444 0.539,-3.85 1.6267,-11.725 2.417,-17.5 1.3749,-10.046 3.2596,-20.6548 7.5506,-42.5 4.1748,-21.25415 5.8792,-31.11348 5.8774,-34 0,-4.41664 -4.2428,-9.82578 -15.9707,-20.37372 -34.913,-31.40025 -83.0257,-65.32766 -122.5446,-86.41422 -35.6485,-19.02141 -90.3706,-40.93477 -124.42,-49.82378 -13.0152,-3.39777 -27.1364,-4.84986 -29.3443,-3.01748 -5.8598,4.86321 -8.0618,65.56155 -3.8139,105.1292 2.1362,19.89723 6.692,49.33359 9.7287,62.85983 11.3952,50.75647 28.7065,105.46697 48.1398,152.14017 3.5495,8.525 7.199,17.3 8.11,19.5 4.3008,10.3859 23.8774,48.379 30.9161,60 7.7554,12.8044 20.0933,32.1326 24.2567,38 31.8329,44.8611 64.0607,80.187 114.0069,124.9663 13.972,12.5266 41.5534,33.6603 59.4021,45.5159 35.4208,23.5272 54.499,33.712 87.0979,46.4967 30.6704,12.0283 72.5,23.3794 72.5,19.6739 z m 152,-7.122 c 25.0667,-6.3468 59.7662,-19.4782 80.7423,-30.5553 9.9021,-5.2292 50.715,-30.6126 62.5619,-38.9102 21.6669,-15.1755 53.3808,-41.7531 77.0428,-64.5653 38.9581,-37.559 60.21,-62.516 87.0685,-102.2487 29.8616,-44.1754 49.0862,-80.7251 71.1401,-135.2513 11.675,-28.8653 22.3997,-62.3822 29.598,-92.5 16.3778,-68.52416 23.1862,-119.81199 22.9934,-173.2086 -0.067,-18.51573 -0.4097,-24.48428 -1.5653,-27.25 -1.6622,-3.97833 -1.5173,-3.93752 -8.7825,-2.47365 -26.92,5.42414 -64.0438,16.34449 -89.2992,26.2683 -13.8367,5.43695 -51.4811,23.87642 -73,35.7578 -31.7161,17.5116 -71.9023,44.80816 -96,65.20823 -11.4701,9.71004 -27.5239,25.94505 -28.1594,28.47719 -0.7453,2.96918 0.9173,13.49886 5.1664,32.72073 3.0449,13.77433 4.9231,23.28776 8.8844,45 0.8027,4.4 2.4392,16.775 3.6366,27.5 1.8687,16.7375 2.102,23.0417 1.6468,44.5 -0.4939,23.2881 -3.0456,53.8819 -5.7548,69 -6.6878,37.3196 -16.3847,72.7365 -27.653,101 -9.066,22.7396 -25.5329,54.8462 -39.2356,76.5 -11.2865,17.8357 -24.7884,37.5884 -29.0507,42.5 -6.4653,7.4501 -7.1631,8.2588 -19.8472,23 -14.9824,17.4122 -31.0325,33.4047 -43.8699,43.7127 -6.18,4.9623 -11.0226,9.3682 -10.7614,9.7908 0.5374,0.8696 9.9084,-0.7851 22.4978,-3.9727 z m -60.1355,-15.6971 c 14.8091,-12.3654 66.5189,-64.1664 74.7019,-74.8337 3.7972,-4.95 10.3221,-13.3152 14.4998,-18.5893 15.8949,-20.0663 33.3188,-49.7323 43.4123,-73.9134 1.4916,-3.5735 3.3161,-7.8473 4.0543,-9.4973 4.6729,-10.4438 15.1436,-38.7681 18.2987,-49.5 15.1473,-51.5223 22.4902,-97.794 22.6134,-142.5 0.045,-16.4973 -0.4312,-23.5903 -2.7219,-40.5 -3.7751,-27.8682 -8.1746,-49.00519 -10.348,-49.71561 -2.1101,-0.68972 -40.1595,44.53221 -51.375,61.05951 -0.825,1.2157 -4.5827,6.6024 -8.3505,11.9704 -6.6765,9.5121 -14.7997,22.4424 -24.9317,39.6857 -12.0642,20.5315 -34.5389,66.8508 -43.1839,89 -2.0394,5.225 -4.3288,10.85 -5.0875,12.5 -3.0536,6.6407 -11.3837,30.7669 -14.8466,43 -9.0315,31.9044 -10.1315,36.1131 -16.0746,61.5 -0.8369,3.575 -1.9959,9.65 -2.5755,13.5 -0.5796,3.85 -2.141,12.4 -3.4697,19 -6.0006,29.8044 -8.409,57.0785 -8.4552,95.75 -0.023,19.107 0.1138,20.7495 1.7252,20.7439 0.9625,0 6.414,-3.9004 12.1145,-8.6602 z m -49.6409,-1.9363 c -0.455,-12.9973 -3.1158,-39.6119 -5.7798,-57.8119 -1.3755,-9.397 -3.1307,-21.5855 -3.9005,-27.0855 -2.7348,-19.5403 -6.3018,-40.6389 -10.5664,-62.5 -1.1812,-6.0551 -4.457,-19.2067 -8.5407,-34.2888 -3.4639,-12.7933 -16.1494,-49.777 -27.1695,-79.2112 -10.2568,-27.3953 -29.1702,-67.0666 -46.1485,-96.7974 -12.9815,-22.732 -14.7183,-25.6203 -21.7691,-36.2026 -19.1494,-28.7407 -42.7469,-58.39978 -46.5317,-58.48469 -1.0822,-0.0243 -1.58,2.2518 -5.2451,23.98469 -4.2552,25.2313 -5.3784,35.3248 -6.1919,55.6414 -1.2259,30.6169 4.1875,80.6021 12.71,117.3586 6.7642,29.1731 17.6462,64.4184 26.3981,85.5 3.9613,9.5418 19.3546,40.6101 23.0392,46.5 1.2043,1.925 4.8301,7.775 8.0574,13 15.9562,25.8329 34.9988,49.4779 60.6546,75.3144 19.148,19.2829 47.8968,44.0494 50.2603,43.2982 0.5871,-0.1866 0.8859,-3.579 0.7236,-8.2152 z M 2876,1335.8641 c 0,-9.084 9.7757,-61.6334 14.0198,-75.3641 0.5101,-1.65 2.3115,-7.95 4.0032,-14 1.6917,-6.05 3.4475,-12.125 3.9017,-13.5 0.4542,-1.375 2.003,-6.325 3.4417,-11 4.6089,-14.976 9.6468,-30.3557 11.6286,-35.5 8.4723,-21.9919 13.4725,-34.6394 15.214,-38.4825 20.199,-44.5718 66.1079,-119.4531 95.4211,-155.63954 7.6285,-9.41712 17.3278,-21.38558 21.554,-26.59657 16.5655,-20.42518 17.1401,-25.49326 6.6639,-58.78139 -4.1285,-13.11853 -19.439,-55.2771 -22.3894,-61.65113 -0.8022,-1.73312 -1.4586,-3.44356 -1.4586,-3.80099 0,-5.00796 -39.7159,-84.81941 -57.7479,-116.04788 -24.6756,-42.73419 -63.3771,-94.62718 -81.4815,-109.2549 -6.4025,-5.17297 -6.8971,-5.39171 -9.0222,-3.99023 -7.17,4.72844 -18.585,17.3805 -35.6437,39.50646 -24.0097,31.14174 -33.4183,44.81671 -51.4215,74.73867 -17.1441,28.49413 -52.7107,97.24281 -62.5984,121 -2.2891,5.5 -5.041,12.025 -6.1153,14.5 -12.233,28.18129 -25.9466,72.91862 -25.9625,84.69619 -0.011,8.40481 5.0951,17.01086 33.1113,55.80381 8.4034,11.6359 38.0335,56.5067 44.573,67.5 18.9341,31.829 37.3279,68.9519 51.7781,104.5 5.2363,12.8813 18.7331,53.0583 22.6757,67.5 6.1605,22.5663 13.9127,53.6355 15.345,61.5 3.0608,16.8061 6.7514,33.9935 7.6825,35.778 1.4276,2.7359 2.8274,1.0457 2.8274,-3.4139 z M 5001.6373,1024.585 c -11.5735,-4.275 -17.4458,-20.4106 -11.2659,-30.95574 8.5212,-14.54042 26.1549,-17.12297 37.3279,-5.46689 9.3299,9.73327 7.9563,25.39793 -2.9872,34.06583 -3.7352,2.9585 -4.8528,3.2963 -11.6714,3.5277 -4.6735,0.1586 -9.0095,-0.2866 -11.4034,-1.1709 z M 737.5,1023.1144 c -6.56612,-3.0232 -12.27857,-9.6577 -14.49543,-16.835 -1.80931,-5.8579 -1.8331,-6.58065 -0.36613,-11.12286 4.81394,-14.9055 21.90769,-23.16099 35.36156,-17.078 16.90696,7.64426 20.67407,26.77766 7.83825,39.81106 -6.81933,6.9243 -19.5494,9.2714 -28.33825,5.2248 z m 4100.6623,-79.04665 c -8.0798,-2.99788 -13.6584,-6.61618 -17.5808,-11.40302 -6.8753,-8.39034 -9.5839,-17.76368 -7.6878,-26.60456 2.6148,-12.19236 9.5951,-21.05421 20.6641,-26.23403 6.2365,-2.91841 6.9535,-3.02806 17.2248,-2.63436 9.1085,0.34912 11.474,0.80249 15.7575,3.02001 6.6147,3.4243 12.9044,10.37662 16.6724,18.4286 2.7325,5.83934 2.9936,7.22901 2.5693,13.67961 -0.8603,13.08198 -9.0275,24.72395 -21.262,30.30795 -8.0602,3.67879 -18.7493,4.26269 -26.3575,1.4398 z M 885.63204,940.58505 C 877.10473,937.01357 871.11881,931.5264 867,923.50541 c -3.15279,-6.13975 -3.5,-7.6212 -3.5,-14.93343 0,-7.14819 0.39054,-8.91062 3.27054,-14.7592 1.7988,-3.65292 4.85578,-8.03353 6.79329,-9.73468 8.79883,-7.72548 23.51134,-12.19025 33.09355,-10.04283 12.22832,2.74042 22.48593,10.60928 27.07021,20.76621 2.0452,4.53133 2.58441,7.33711 2.63257,13.69852 0.0524,6.9174 -0.33992,8.81195 -2.89884,14 -3.53431,7.16556 -10.56095,14.38671 -17.16176,17.6368 -3.9012,1.92087 -6.67131,2.41399 -14.79956,2.63455 -8.73391,0.237 -10.74293,-0.0398 -15.86796,-2.1863 z M 1967.3791,695.62584 c -4.1665,-1.89672 -8.4867,-7.74545 -9.3966,-12.72136 -2.297,-12.56171 8.5459,-23.99345 19.8665,-20.94515 8.3855,2.25798 15.151,10.04422 15.151,17.43684 0,4.32578 -3.6937,11.26841 -7.5669,14.22263 -4.1651,3.17686 -13.2626,4.18823 -18.054,2.00704 z m 1879.1023,-3.96717 c -6.3435,-2.87382 -11.4605,-11.31949 -11.4758,-18.94079 -0.01,-3.86007 2.639,-9.86915 5.2836,-11.99549 5.8004,-4.66383 13.3897,-5.97691 17.7383,-3.06903 11.5254,7.70702 15.1178,18.11374 8.9375,25.89063 -6.2076,7.81132 -14.181,10.96999 -20.4836,8.11468 z m -85.4221,-132.33542 c -3.8994,-0.81854 -8.7906,-5.13669 -11.009,-9.71927 -6.3338,-13.0839 2.0269,-26.60398 16.4516,-26.60398 5.1891,0 6.2578,0.3816 10.2652,3.66539 5.2988,4.34191 7.2329,8.44252 7.2329,15.33461 0,6.89356 -2.0946,11.37247 -6.7634,14.46213 -3.9594,2.62017 -11.2133,3.90311 -16.1773,2.86112 z M 2078.5,539.65301 c -9.1833,-3.0233 -14.912,-7.89103 -18.4215,-15.65301 -6.8952,-15.25035 5.1375,-33 22.3712,-33 8.7978,0 13.2711,1.76401 18.9953,7.49066 8.7352,8.73909 10.6153,19.64933 4.8675,28.246 -7.7443,11.58262 -17.7497,16.22919 -27.8125,12.91635 z M 3643,452.23976 c -4.3475,-2.12988 -11.2538,-8.91995 -13.6112,-13.38208 -1.2019,-2.27499 -1.7801,-5.61484 -1.7932,-10.35768 -0.016,-5.87558 0.451,-7.86027 2.9089,-12.35555 8.7335,-15.97289 28.328,-18.86768 41.4842,-6.12867 7.3338,7.10121 10.0343,18.20668 6.4901,26.68924 -2.2376,5.35541 -7.821,11.71941 -12.8859,14.68765 -3.7135,2.17626 -5.6596,2.60357 -11.771,2.58456 -4.8483,-0.0151 -8.5043,-0.60205 -10.8219,-1.73747 z M 2223,416.93935 c -8.1603,-1.21181 -14.7528,-4.56526 -20.2762,-10.31392 -8.0473,-8.37548 -9.2238,-11.3889 -9.2238,-23.62543 0,-9.74077 0.2118,-10.88239 2.9298,-15.7884 6.3192,-11.40627 17.4294,-18.24475 30.9092,-19.02508 10.2253,-0.59194 17.1512,1.03256 24.3436,5.70993 10.2634,6.67454 15.4759,16.36692 15.6516,29.10355 0.087,6.28478 -0.3504,8.44969 -2.6973,13.36119 -5.8129,12.16508 -15.0058,18.9619 -27.9146,20.63884 -3.9723,0.51602 -7.4473,0.89724 -7.7223,0.84715 -0.275,-0.0501 -2.975,-0.45861 -6,-0.90783 z m 1272.5,-66.72331 c -7.1163,-3.44393 -12.7635,-9.36583 -16.303,-17.09603 -3.6359,-7.9407 -3.909,-14.15576 -0.9623,-21.89852 3.1729,-8.33702 8.1427,-14.07255 15.3647,-17.73177 5.2808,-2.67569 6.8459,-2.98547 14.9006,-2.9493 8.0218,0.036 9.5824,0.35862 14.3588,2.96814 10.0651,5.49896 15.8958,14.89057 16.8556,27.14931 0.508,6.48947 0.2823,7.75009 -2.4174,13.5 -6.1612,13.1225 -13.2489,17.94664 -27.297,18.57917 -7.7581,0.34932 -9.0237,0.12928 -14.5,-2.521 z M 2391.0242,334.39691 C 2372.3628,329.38212 2358.744,311.83493 2357.343,291 c -0.4792,-7.12657 -0.2165,-9.55027 1.6262,-15 5.3363,-15.78276 16.9072,-26.40197 34.1847,-31.37321 8.5179,-2.45084 16.0079,-2.0658 25.7459,1.32352 14.5796,5.07446 23.4195,12.86082 29.2834,25.79348 5.9336,13.08633 5.7466,26.55436 -0.5528,39.81929 -5.5317,11.64818 -14.3447,19.01692 -27.531,23.01924 -5.9718,1.81259 -22.0209,1.71024 -29.0752,-0.18541 z M 3314,294.10551 c -14.6691,-4.0039 -25.9314,-13.03623 -32.174,-25.80334 -3.2053,-6.55536 -3.326,-7.23758 -3.326,-18.80217 v -12 l 4,-7.35554 c 11.0902,-20.39352 33.1431,-30.29545 54.8689,-24.63658 14.0282,3.65387 25.7454,12.8324 32.6554,25.58008 3.3944,6.26205 3.4757,6.68105 3.4757,17.91204 0,9.85387 -0.347,12.35885 -2.4241,17.5 -3.0383,7.52034 -3.8948,8.79649 -10.1935,15.18772 -11.8854,12.06005 -30.3118,16.94069 -46.8824,12.41779 z m -709.9717,-17.24609 c -9.218,-1.52763 -19.2515,-4.89284 -25.0806,-8.41197 -14.8369,-8.95738 -26.2723,-27.40552 -27.6237,-44.56402 -1.4057,-17.84793 9.8449,-37.9112 27.676,-49.35473 27.5281,-17.66685 65.2733,-10.50491 83.3584,15.81678 6.274,9.13149 8.939,16.8161 9.4324,27.1996 1.4236,29.95649 -19.8758,55.1613 -50.1756,59.37561 -8.7336,1.21474 -9.9119,1.21063 -17.5869,-0.0613 z m 493.1622,-25.80562 c -9.3187,-2.66396 -13.9409,-4.88631 -21.3312,-10.25602 -15.5193,-11.2761 -24.1468,-27.92882 -24.2454,-46.79778 -0.1175,-22.49842 14.5398,-42.38118 38.3861,-52.07114 6.8259,-2.77373 26.5757,-3.84899 36.2908,-1.97582 15.4516,2.97921 33.6305,16.91344 40.5046,31.04696 8.7014,17.89071 8.3379,35.25294 -1.0879,51.95589 -11.0496,19.58045 -29.6212,30.14548 -52.6874,29.97287 -5.9738,-0.0447 -11.8704,-0.74314 -15.8296,-1.87496 z M 2855.6397,239.924 c -26.0238,-6.39375 -46.1049,-24.08901 -56.3599,-49.66368 -2.5907,-6.46096 -2.7123,-7.55739 -2.7453,-24.76032 -0.033,-17.22565 0.083,-18.31331 2.7059,-25.28309 3.6602,-9.72726 8.5838,-17.20566 17.1536,-26.0539 11.4744,-11.84733 22.832,-18.546295 37.9071,-22.358484 6.8682,-1.736813 10.2456,-1.972533 22.6358,-1.579804 13.9971,0.443663 14.9323,0.608619 24.0631,4.244343 12.6089,5.020653 21.2259,10.865945 30.4093,20.627905 13.0844,13.90882 19.2556,27.7344 20.2849,45.44497 0.6919,11.90573 -0.6377,20.74788 -4.6302,30.79291 -7.7332,19.45641 -20.1953,32.84061 -39.6402,42.57307 -15.8262,7.92127 -34.975,10.1459 -51.7841,6.01608 z"
         id="path5" />
      <path
         style="fill:#8d6c60"
         d="m 3737.1635,3019.6923 c -4.9405,-1.3766 -7.1635,-3.8231 -7.1635,-7.8834 0,-3.14 -0.3119,-3.0397 10,-3.2159 4.5698,-0.078 8.3398,-0.6791 9.6496,-1.5384 4.2279,-2.7738 6.8529,-11.6122 4.1004,-13.806 -0.6875,-0.548 -3.445,-1.3143 -6.1278,-1.7029 -2.6829,-0.3886 -5.4954,-0.9435 -6.25,-1.2331 -2.2055,-0.8463 -1.595,-5.8987 1.6278,-13.4721 4.3592,-10.2441 4.2825,-10.4754 -3.75,-11.3029 -12.2686,-1.2638 -25.5733,-4.6031 -33.25,-8.3453 -11.4497,-5.5814 -21.4206,-15.8908 -27.2666,-28.1923 -5.4818,-11.535 -6.7334,-17.1115 -6.7334,-30 0,-18.2825 4.3378,-30.0204 15.446,-41.7956 13.7296,-14.5541 27.0509,-20.4897 53.5016,-23.8386 13.2085,-1.6723 14.4675,-1.6735 25.7204,-0.024 12.6378,1.8527 26.4102,5.8425 28.3861,8.2233 1.204,1.4507 0.8517,9.8624 -0.4683,11.1824 -0.7019,0.7019 -4.1865,-0.2472 -15.0858,-4.1089 -13.979,-4.9529 -37.0771,-5.5218 -49.2869,-1.2139 -5.217,1.8407 -13.9176,7.4514 -17.3612,11.1958 -8.0158,8.7157 -12.6121,21.1293 -13.5498,36.5952 -1.3034,21.4953 8.2457,41.4506 24.0159,50.1872 8.5353,4.7284 15.4842,6.5894 27.1838,7.2799 14.2227,0.8395 26.4993,-2.0712 38.567,-9.1439 3.3211,-1.9465 6.4054,-3.539 6.8539,-3.539 0.4486,0 1.0885,1.6813 1.4219,3.7362 0.7968,4.9103 -1.7705,9.879 -7.0215,13.5893 -4.1305,2.9186 -18.5393,7.5728 -23.8231,7.6952 -5.926,0.1373 -8.5156,2.0885 -10.5903,7.9796 -1.0639,3.0212 -1.7398,6.0002 -1.5019,6.6201 0.2379,0.6199 1.9702,1.4155 3.8496,1.7681 5.0605,0.9494 11.4679,6.8776 12.8065,11.8488 2.2943,8.5205 -2.1401,19.1376 -10.2289,24.4906 -3.5435,2.3451 -5.3554,2.803 -11.7619,2.9724 -4.1652,0.1102 -9.5245,-0.3434 -11.9096,-1.008 z M 2598.3881,2971.011 c -25.1071,-3.5311 -40.9494,-16.286 -45.5034,-36.6355 -1.3912,-6.2166 -0.2467,-14.4454 3.0425,-21.8755 4.3996,-9.9382 18.265,-22.5515 32.8677,-29.8996 4.0122,-2.0189 7.5412,-4.3127 7.8423,-5.0973 0.3011,-0.7847 -0.2047,-2.9063 -1.1241,-4.7149 -9.8385,-19.3547 -11.1936,-41.8294 -3.2782,-54.3683 7.4905,-11.8657 19.8057,-17.3903 38.7651,-17.3903 15.9754,0 24.6412,2.9181 32.8302,11.0554 6.061,6.0227 7.6601,10.308 7.6179,20.415 -0.046,11.121 -2.2496,16.6202 -9.7545,24.3473 -5.4638,5.6256 -18.9163,15.1915 -26.9436,19.1593 -2.7058,1.3375 -4.75,3.0357 -4.75,3.9461 0,2.8039 18.3794,25.9857 33.2996,42.0005 l 6.0121,6.4532 3.9333,-4.4322 c 3.7912,-4.2722 11.9934,-19.7571 13.2622,-25.0377 0.3895,-1.6207 -0.3261,-5.0665 -1.9456,-9.3691 -1.4089,-3.743 -2.5616,-8.0744 -2.5616,-9.6252 0,-2.5754 0.39,-2.8781 4.5021,-3.4948 6.0424,-0.9061 27.6343,0.289 28.9476,1.6023 0.7281,0.7281 0.322,2.3233 -1.3359,5.2482 -1.3101,2.3111 -6.3688,11.7803 -11.2415,21.0426 -4.8728,9.2623 -11.5624,20.4275 -14.8659,24.8115 -3.3035,4.3841 -6.0064,8.5636 -6.0064,9.2878 0,1.7357 9.3951,8.1198 14.6446,9.9512 4.8095,1.6779 9.0894,1.0106 15.0673,-2.3492 7.6888,-4.3214 11.7072,-0.692 7.2387,6.5381 -3.0894,4.9987 -8.7508,8.2162 -17.7232,10.0721 -13.5801,2.8091 -26.9453,0.4055 -36.3975,-6.5457 -2.3231,-1.7085 -4.5814,-3.1063 -5.0182,-3.1063 -0.4369,0 -2.9358,1.6431 -5.553,3.6513 -5.9971,4.6016 -18.9704,10.8393 -26.6103,12.7946 -7.5059,1.921 -21.4334,2.666 -29.2603,1.5651 z m 34.411,-19.0949 c 11.0872,-3.1111 16.2009,-5.5339 16.2009,-7.6757 0,-1.0069 -3.2042,-5.4104 -7.1204,-9.7856 -14.1881,-15.8509 -24.4995,-28.1302 -30.3796,-36.1775 -3.3,-4.5163 -6.6349,-8.2262 -7.411,-8.2443 -2.5234,-0.059 -16.0266,10.9081 -18.7695,15.2443 -1.4691,2.3225 -3.5003,7.3727 -4.5137,11.2227 -1.5359,5.8349 -1.6605,7.8773 -0.7489,12.2709 3.8019,18.324 29.5914,29.6413 52.7422,23.1452 z m -4.792,-87.0817 c 13.6448,-7.3249 19.299,-13.4799 23.0649,-25.1073 2.6363,-8.1399 2.1757,-13.8846 -1.5667,-19.5397 -3.168,-4.7872 -8.2378,-7.2828 -16.1182,-7.934 -11.3009,-0.934 -19.029,3.4146 -23.181,13.0437 -1.682,3.9007 -1.5039,13.7606 0.3803,21.0586 1.7177,6.6531 9.0457,21.6443 10.5802,21.6443 0.519,0 3.5973,-1.4245 6.8405,-3.1656 z M 2067,2965.3657 c -7.5567,-0.9692 -23.6681,-4.6582 -28.2751,-6.4741 -13.5751,-5.3509 -27.2648,-18.0347 -33.6726,-31.1986 -4.2687,-8.7694 -7.0523,-20.2323 -7.0523,-29.0414 0,-5.9161 4.0549,-22.9224 6.6735,-27.9888 2.4374,-4.7156 8.6027,-12.688 12.9685,-16.7697 15.0751,-14.0937 36.1753,-20.8732 65.0086,-20.8872 13.0299,-0.01 32.0079,2.6908 38.7262,5.5037 3.85,1.612 3.8726,1.6542 3.2636,6.0971 -0.8087,5.9004 -2.3733,8.7186 -4.476,8.0625 -0.9154,-0.2856 -4.9082,-1.6871 -8.8729,-3.1144 -9.9811,-3.5932 -25.8618,-5.883 -35.7915,-5.1606 -11.2758,0.8202 -18.791,3.0249 -26.9057,7.893 -16.5481,9.9275 -23.6059,27.2035 -21.4674,52.5481 0.9227,10.9357 1.8573,14.2394 6.6313,23.4395 7.9652,15.3497 26.6891,25.7153 46.4791,25.7309 10.0578,0.01 28.5688,-5.2969 29.275,-8.3895 0.2657,-1.1639 0.8217,-11.5168 1.2354,-23.0063 l 0.7523,-20.8902 9.9467,0.2027 c 5.4707,0.1115 10.3082,0.4261 10.75,0.6992 0.4418,0.273 0.8033,11.4949 0.8033,24.9374 0,22.9148 -0.122,24.563 -1.9537,26.3947 -5.941,5.941 -48.1139,13.4555 -64.0463,11.412 z m 2036.5,-0.097 c -12.346,-0.7137 -30.5008,-5.7351 -39.2293,-10.8503 -7.8339,-4.591 -19.3264,-17.0829 -23.5495,-25.5974 -6.4288,-12.9615 -8.6647,-33.4993 -5.136,-47.1768 6.2422,-24.1954 28.6655,-42.4629 57.8973,-47.1667 30.1311,-4.8486 59.0737,1.3797 75.5037,16.248 22.0421,19.947 26.6074,50.6686 11.8329,79.629 -4.3791,8.5837 -20.7082,23.097 -30.904,27.4675 -10.1859,4.3662 -33.897,8.1703 -46.4151,7.4467 z m 17.6289,-12.8527 c 4.5924,-0.8712 10.8296,-2.7535 13.8604,-4.183 11.0268,-5.2006 21.1505,-18.764 23.909,-32.0323 1.5829,-7.6141 1.3655,-27.8159 -0.3892,-36.1573 -2.0461,-9.7272 -4.6925,-14.4406 -12.4065,-22.0966 -10.2424,-10.1656 -18.2746,-13.0521 -36.6026,-13.1536 -26.3878,-0.1462 -42.4129,14.5587 -46.5405,42.7067 -2.1095,14.3851 0.3139,29.5818 6.6031,41.4078 4.0615,7.6371 5.2293,9.1045 11.7687,14.7882 4.8415,4.2081 10.4155,6.6024 20.6687,8.8782 7.5545,1.6769 9.5421,1.6604 19.1289,-0.1581 z m -517.6289,9.903 c -3.667,-1.951 -8.2066,-5.9804 -25.0452,-22.2301 -7.1748,-6.9239 -19.3001,-18.439 -26.9451,-25.589 -7.645,-7.15 -21.483,-20.3262 -30.751,-29.2805 -9.268,-8.9543 -17.2871,-16.0109 -17.8203,-15.6815 -0.6038,0.3732 -0.9498,17.6022 -0.9176,45.6943 0.029,25.1132 -0.3429,45.4898 -0.8388,45.9857 -0.4898,0.4898 -3.5436,0.7536 -6.7863,0.5863 l -5.8957,-0.3043 -0.2573,-64.25 -0.2574,-64.25 h 2.3523 c 5.0421,0 19.5112,10.9821 38.1624,28.9655 16.5431,15.9507 47.6031,46.2152 57.764,56.2845 4.3013,4.2625 8.139,7.7502 8.5283,7.7505 0.3892,3e-4 0.5661,-20.2497 0.3929,-45 L 3594.8705,2836 h 7.6176 7.6176 l -0.1959,57.4004 c -0.1981,58.0507 -0.598,69.7059 -2.4098,70.2271 -0.55,0.1582 -2.35,-0.4306 -4,-1.3084 z m -1993.3384,-2.317 c -2.2761,-1.6488 -13.4811,-12.1229 -24.9,-23.2758 -37.3783,-36.5076 -69.1793,-66.7263 -70.2202,-66.7263 -0.6763,0 -1.1091,15.4525 -1.2813,45.75 l -0.2601,45.75 h -7 -7 v -64 c 0,-63.9114 0,-64.0004 2.0652,-64.2953 1.2872,-0.1841 6.1842,2.6143 13,7.4289 8.0694,5.7001 17.748,14.4211 36.9348,33.2805 53.4899,52.5771 51.4835,50.7004 52.4869,49.0926 0.5352,-0.8577 0.9576,-19.5734 0.9924,-43.9699 0.033,-23.3621 0.3958,-42.8119 0.8057,-43.2218 0.4099,-0.4099 3.5959,-0.4234 7.0801,-0.03 l 6.3349,0.7151 -0.1451,61 c -0.08,33.55 -0.3986,62.0125 -0.7084,63.25 -0.7658,3.0586 -3.2426,2.8323 -8.1849,-0.7479 z m 1469.6857,-1.5721 c -2.941,-2.576 -22.2223,-21.1977 -42.8473,-41.3816 -20.625,-20.1838 -40.425,-39.3017 -44,-42.4842 l -6.5,-5.7862 -0.5,46.361 -0.5,46.361 h -7.3221 -7.3222 l 0.1071,-63.4849 c 0.059,-34.9168 0.4424,-63.8203 0.8523,-64.2302 1.4974,-1.4974 8.244,1.4072 15.8706,6.8327 4.2978,3.0574 18.8393,16.4361 32.3143,29.7304 42.9435,42.3675 55.0321,53.9533 55.6499,53.3354 0.3316,-0.3316 0.6585,-20.3085 0.7265,-44.3931 l 0.1236,-43.7903 6,0.339 c 3.3,0.1865 6.3409,0.6625 6.7576,1.0577 0.4167,0.3952 0.6417,28.8176 0.5,63.1609 l -0.2576,62.4424 -2.1527,0.3068 c -1.4162,0.2018 -3.9819,-1.2954 -7.5,-4.3768 z m -1748.9133,2.82 c -0.1854,-2.1089 0.2242,-155.7415 0.4158,-155.9331 0.1235,-0.1236 20.9079,-0.2889 46.1874,-0.3673 l 45.9628,-0.1427 v 7.3466 7.3465 l -33.7343,0.2633 -33.7343,0.2633 -0.5987,2.3854 c -0.3293,1.312 -0.3624,11.0935 -0.073,21.7367 0.2888,10.6432 0.5512,21.7138 0.583,24.6013 L 1356,2874 h 27.5 27.5 v 6.5 c 0,4.5131 -0.3821,6.5116 -1.25,6.538 -0.6875,0.021 -13.175,0.1334 -27.75,0.25 l -26.5,0.212 -0.284,30.237 -0.2839,30.237 34.7839,0.263 34.784,0.263 0.2937,6.094 0.2936,6.094 -12.2006,0.656 c -16.8027,0.9034 -81.8715,0.8288 -81.9527,-0.094 z m 361.3085,-62.4894 0.2575,-63.2606 40.6183,-0.2611 c 31.7257,-0.2039 40.8462,0.015 41.659,1 0.5839,0.7076 0.804,3.3457 0.5016,6.0111 l -0.539,4.75 h -28.9013 c -26.5847,0 -28.959,0.1403 -29.62,1.75 -0.3952,0.9625 -0.7186,10.3 -0.7186,20.75 v 19 l 24,0.5 24,0.5 0.2609,4 c 0.1435,2.2 -0.1124,4.5696 -0.5688,5.2658 -0.6063,0.925 -7.14,1.4636 -24.2609,2 l -23.4312,0.7342 -0.3099,16.5 c -0.1704,9.075 -0.02,19.7625 0.3354,23.75 l 0.6451,7.25 h 31.2981 c 35.2455,0 32.5479,-0.684 31.5489,8 l -0.5176,4.5 -43.2575,0.2606 -43.2574,0.2607 z m 150.5359,62.5205 c -0.2079,-0.4296 -0.099,-9.1061 0.2412,-19.2811 0.3405,-10.175 0.5879,-38.4829 0.5497,-62.9064 l -0.069,-44.4064 31,0.6388 c 39.3686,0.8113 45.092,2.103 54.9628,12.4041 6.9084,7.2096 8.0393,10.2071 8.0244,21.2699 -0.01,7.7631 -0.4028,10.2326 -2.1463,13.5068 -2.8026,5.2637 -11.5775,13.4809 -18.67,17.4837 -3.119,1.7602 -5.6709,3.7515 -5.6709,4.425 0,0.6735 1.5005,2.993 3.3344,5.1545 1.8339,2.1615 5.9759,7.53 9.2044,11.93 3.2286,4.4 11.31,14.75 17.9587,23 6.6486,8.25 12.4498,15.5894 12.8914,16.3097 0.6548,1.068 -1.7529,1.1802 -13.043,0.6077 -7.9714,-0.4042 -14.5877,-1.2114 -15.5942,-1.9027 -2.1193,-1.4554 -14.2002,-17.4936 -26.0503,-34.5835 -12.5789,-18.141 -10.9551,-16.9312 -22.724,-16.9312 h -9.9447 l -0.2664,26.75 -0.2663,26.75 -11.6718,0.2811 c -6.4195,0.1545 -11.8419,-0.071 -12.0498,-0.5 z m 55.3246,-68.2043 c 10.5232,-5.4527 17.1977,-18.023 14.7443,-27.7683 -1.3164,-5.2289 -6.5747,-11.4758 -12.6813,-15.0655 -4.4871,-2.6378 -5.2027,-2.743 -18.666,-2.743 h -14 l -0.2681,24.3811 -0.2681,24.381 13.3711,-0.4535 c 11.4096,-0.3869 14.0162,-0.7877 17.7681,-2.7318 z m 300.1679,5.6732 0.2291,-63.25 7.5,-0.3123 c 4.125,-0.1718 9.3,-0.049 11.5,0.2738 l 4,0.5861 0.091,62.9762 0.091,62.9762 h -11.82 -11.82 z m 79.2106,62.2201 c -0.3501,-0.5664 0.5633,-3.0771 2.0296,-5.5793 1.4664,-2.5021 8.6455,-16.3262 15.9536,-30.7201 27.3988,-53.9642 44.2619,-86.4781 46.4318,-89.5253 1.2865,-1.8068 3.1278,-3.1454 4.3264,-3.1454 3.5156,0 8.9812,7.1063 15.4593,20.0999 19.9214,39.9577 53.3178,108.2554 53.3178,109.0382 0,0.5277 -5.6502,0.801 -13.25,0.6409 l -13.25,-0.279 -3.2203,-6.5 c -1.7711,-3.575 -5.5496,-11.675 -8.3966,-18 -2.847,-6.325 -5.6155,-12.0625 -6.1522,-12.75 -1.4676,-1.88 -56.0326,-1.7964 -57.5967,0.088 -0.6109,0.7361 -4.9911,8.9486 -9.7338,18.25 -4.7427,9.3014 -9.078,17.4742 -9.6342,18.1617 -1.2416,1.535 -15.3541,1.7257 -16.2847,0.2201 z m 86.21,-49.5443 c 0.1969,-0.5908 -2.0861,-6.2158 -5.0733,-12.5 -2.9872,-6.2842 -7.6395,-16.3479 -10.3384,-22.3637 -2.6989,-6.0158 -5.3353,-11.0806 -5.8586,-11.255 -0.5233,-0.1745 -4.2739,6.5476 -8.3347,14.9379 -4.0608,8.3902 -9.1335,18.7501 -11.2727,23.0219 -2.8137,5.6185 -3.5333,7.8984 -2.6016,8.2425 1.0097,0.373 26.3874,0.9906 40.7046,0.9906 1.3293,0 2.5779,-0.4834 2.7747,-1.0742 z M 2866,2883.5308 V 2805 l 3.75,-0.1565 c 2.0625,-0.086 4.875,-0.2278 6.25,-0.315 1.375,-0.087 5.0816,0.096 8.2369,0.4066 l 5.737,0.5649 0.2395,78 0.2395,78 -12.2264,0.2808 -12.2265,0.2808 z m 333.9318,77.7192 c -0.037,-0.4125 -0.15,-26.175 -0.25,-57.25 l -0.1818,-56.5 -24.75,0.3161 -24.75,0.3162 V 2842.0661 2836 l 18.25,-0.021 c 10.0375,-0.012 37.6798,-0.2682 61.4274,-0.5698 49.1223,-0.6239 45.5688,-1.271 44.4305,8.0913 -0.5531,4.5493 -0.8332,4.9891 -3.1079,4.8789 -1.375,-0.067 -12.5196,-0.4545 -24.7659,-0.8619 l -22.2658,-0.7407 0.048,56.6552 c 0.026,31.1603 -0.218,57.0857 -0.5432,57.6118 -0.691,1.1181 -23.4404,1.3178 -23.5414,0.2067 z m 132.9449,0.02 c -0.068,-0.4234 -0.056,-28.4449 0.026,-62.2699 0.082,-33.825 0.1376,-62.0766 0.1233,-62.7814 -0.021,-1.0226 8.0716,-1.2618 40.0628,-1.1845 22.0488,0.053 40.7238,0.3405 41.5,0.6384 1.4633,0.5615 1.852,5.0805 0.7808,9.0775 l -0.603,2.25 H 3385.3834 3356 l -0.117,16.75 c -0.064,9.2125 -0.1281,18.55 -0.1415,20.75 l -0.024,4 23.8915,0.5 23.8914,0.5 -0.2602,4.9269 c -0.1431,2.7098 -0.4951,5.1618 -0.7822,5.4489 -0.2872,0.2871 -10.7098,0.6787 -23.1615,0.8702 -12.4517,0.1915 -22.8997,0.5092 -23.2178,0.7061 -0.5863,0.363 -0.6361,6.2458 -0.2775,32.7979 L 3356,2949 h 31.5 31.5 v 5.893 c 0,4.2672 -0.4063,6.0489 -1.4727,6.4582 -2.27,0.871 -84.5107,0.7921 -84.6506,-0.081 z M 3850,2960.8578 c 0,-0.6282 2.8706,-6.5907 6.3792,-13.25 3.5086,-6.6593 13.4726,-26.0578 22.1423,-43.1078 30.7841,-60.5408 35.7904,-69.8541 38.9661,-72.4897 2.0916,-1.7359 5.5717,0.068 9.1283,4.7305 2.5985,3.4068 15.6707,29.2225 25.2698,49.9042 2.845,6.1297 12.3596,25.3428 21.1435,42.6958 8.784,17.353 15.9708,31.8002 15.9708,32.105 0,0.8362 -26.3276,0.635 -27.6365,-0.2111 -0.9933,-0.6421 -10.1721,-19.6276 -16.1886,-33.4847 l -2.0624,-4.75 h -29.1234 -29.1234 l -7.9328,16.5165 c -4.3631,9.0841 -7.9329,16.9591 -7.9329,17.5 0,0.5409 -0.9,1.8835 -2,2.9835 -1.6444,1.6444 -3.3333,2 -9.5,2 -4.9557,0 -7.5,-0.3875 -7.5,-1.1422 z m 86.4351,-48.7528 c 0.3042,-0.4922 -2.1959,-6.4547 -5.5558,-13.25 -7.4905,-15.1493 -10.576,-21.9983 -12.5489,-27.855 -3.1892,-9.4673 -3.228,-9.4286 -15.2361,15.1723 -6.0447,12.3838 -11.1263,23.1487 -11.2924,23.9219 -0.2488,1.1585 3.3037,1.4993 20.1981,1.9372 11.275,0.2922 21.2609,0.6297 22.191,0.75 0.93,0.1202 1.9399,-0.1841 2.2441,-0.6764 z M 790.5,2893.9415 c -22,-0.3943 -49.675,-1.2176 -61.5,-1.8294 -31.16505,-1.6126 -59.2802,-2.9374 -77,-3.6282 -19.37507,-0.7553 -20,-0.8776 -20,-3.9151 0,-2.0031 0.61093,-2.4805 3.75,-2.9299 7.58773,-1.0863 15.14981,-1.5893 32.25,-2.145 9.625,-0.3128 27.85,-1.2201 40.5,-2.0163 43.31597,-2.7261 78.1041,-3.539 177,-4.136 95.39002,-0.5759 171.6632,0.3865 207,2.6119 7.7,0.4849 23.225,1.4007 34.5,2.0349 11.275,0.6343 22.4125,1.374 24.75,1.6437 l 4.25,0.4904 v 4.3221 c 0,5.1919 -0.7366,5.5188 -12.5,5.5479 -4.4,0.011 -19.7,0.6885 -34,1.5058 -14.3,0.8173 -42.2,1.933 -62,2.4794 -39.9133,1.1012 -194.75338,1.0794 -257,-0.036 z m 3642,0.09 c -38.4609,-1.0375 -86.7706,-3.0554 -93,-3.8846 l -5,-0.6656 -0.3052,-4.751 c -0.2088,-3.2497 0.1072,-4.881 1,-5.1623 1.6101,-0.5073 45.3526,-3.13 80.3052,-4.815 18.2863,-0.8815 65.9036,-1.2251 160.5,-1.158 133.3252,0.095 183.7695,0.9361 231,3.8535 12.925,0.7984 33.089,1.9483 44.809,2.5554 11.7199,0.607 21.9574,1.3526 22.75,1.6567 0.7925,0.3041 1.441,1.5717 1.441,2.8168 0,2.0189 -0.6223,2.3297 -5.75,2.8717 -10.9917,1.162 -76.4997,4.4417 -103.75,5.1943 -11,0.3038 -22.925,0.7645 -26.5,1.0239 -11.8457,0.8592 -277.9629,1.261 -307.5,0.4642 z m -541.8651,-84.1045 c -1.4492,-1.1399 -2.6349,-2.9976 -2.6349,-4.1283 0,-3.1592 5.5727,-12.1803 9.9889,-16.1701 6.9891,-6.3142 9.9972,-6.144 26.0395,1.4739 5.8974,2.8004 11.5004,4.9354 12.451,4.7444 1.0157,-0.2041 2.6361,-2.6151 3.9298,-5.8473 1.7664,-4.4129 2.7001,-5.5593 4.7239,-5.7998 1.388,-0.165 3.5841,0.5599 4.8832,1.6119 l 2.3609,1.9117 -1.852,4.8881 c -4.4813,11.8282 -10.5378,17.3343 -19.2837,17.5313 -4.197,0.095 -6.8518,-0.7282 -14.7548,-4.5728 -5.3004,-2.5785 -10.3907,-4.5488 -11.3118,-4.3785 -0.9212,0.1703 -3.2286,2.6718 -5.1276,5.5588 -3.7791,5.7455 -5.4359,6.3046 -9.4124,3.1767 z"
         id="path4" />
      <path
         style="fill:#787961"
         d="m 1249.3266,1437.9455 c -13.3177,-0.6571 -27.1395,-2.5126 -45.0766,-6.0515 -6.876,-1.3566 -6.8089,-2.8238 0.5,-10.932 17.3953,-19.2977 54.135,-51.3796 85.6043,-74.7516 31.0912,-23.0912 46.6047,-32.7946 74.1457,-46.3764 30.6384,-15.1092 38.8476,-18.6394 57.5,-24.7262 37.9326,-12.3785 68.1134,-17.5228 132.5,-22.5845 18.5847,-1.461 26.5,-2.7873 26.5,-4.4403 0,-0.8737 -4.1266,-2.099 -15.5,-4.6022 -9.7389,-2.1434 -19.0282,-4.9903 -57.5,-17.6218 -36.5585,-12.0033 -50.0266,-15.7635 -65.9216,-18.4052 -18.5892,-3.0893 -36.7053,-0.4501 -58.2501,8.4862 -5.1306,2.1281 -14.8046,6.1472 -21.4978,8.9313 -28.7772,11.9705 -43.6698,15.7914 -70.8305,18.1727 -22.0702,1.935 -52.8954,-0.084 -77.001,-5.0442 -21.414,-4.4061 -52.2627,-14.4517 -72.999,-23.7714 -7.7749,-3.4944 -35.8303,-17.5082 -41,-20.4798 -2.2,-1.2646 -6.25,-3.5871 -9,-5.1612 -17.1424,-9.8122 -40.6967,-25.9348 -55.5,-37.9888 -4.125,-3.3589 -9.075,-7.2851 -11,-8.7248 -20.0299,-14.9808 -81.21129,-76.0575 -86.97399,-86.8252 -0.96374,-1.8008 -0.74651,-2.2059 1.68375,-3.1403 3.52445,-1.3551 18.59919,-5.3003 28.34356,-7.4178 4.09568,-0.89 11.49668,-2.5065 16.44668,-3.5923 83.1748,-18.2438 150.6282,-22.2324 208.3346,-12.3192 23.8731,4.1011 53.5056,12.7119 71.1654,20.6797 32.7645,14.7828 52.5713,26.7406 78,47.0904 18.9912,15.198 24.454,20.2171 69.9841,64.301 12.7992,12.3927 19.075,17.8126 22.9335,19.806 3.3013,1.7055 13.607,5.1417 22.5824,7.5295 17.41,4.6318 26.1136,7.2178 41.5,12.3304 9.075,3.0154 23.25,7.5908 31.5,10.1675 8.25,2.5767 16.125,5.1037 17.5,5.6156 1.375,0.5118 7.225,2.2285 13,3.8149 5.775,1.5863 17.475,4.9027 26,7.3697 31.2009,9.0292 74.7701,18.3745 99,21.2348 3.025,0.3571 7.975,1.2397 11,1.9615 7.6261,1.8195 16.7742,2.6944 17.4103,1.6652 1.363,-2.2055 -20.7454,-15.8799 -38.4261,-23.7671 -31.3089,-13.9668 -90.9446,-45.6676 -123.4243,-65.6092 -17.8854,-10.9812 -70.7446,-46.2591 -82.0102,-54.7332 -39.0765,-29.3935 -74.7421,-62.3754 -105.719,-97.7638 -17.7559,-20.28463 -22.0225,-23.68039 -44.3307,-35.28239 -51.86,-26.97131 -57.819,-30.24351 -72,-39.53707 -23.4677,-15.37957 -43.2159,-35.94943 -55.1574,-57.45244 -5.6313,-10.14026 -12.2498,-30.70461 -15.2876,-47.5 -3.1895,-17.63465 -4.1753,-56.49665 -2.0022,-78.9332 2.6396,-27.25223 12.1635,-68.47011 18.2694,-79.0668 1.9114,-3.31706 2.7885,-3.96445 5.1372,-3.79177 8.9545,0.65834 55.2469,28.25133 80.5406,48.00701 28.9827,22.63698 60.963,57.82596 72.686,79.97889 2.2719,4.29323 5.5532,11.85587 7.2918,16.80587 8.378,23.8536 9.9973,38.96346 10.0208,93.5 0.018,41.88346 0.7517,54.8668 3.6713,64.96851 8.4024,29.07119 59.9525,79.17959 143.9262,139.90099 19.759,14.2877 67.8052,44.9129 93.9039,59.8555 18.5863,10.6414 25.6353,14.1429 47,23.3469 19.6658,8.472 21.4241,8.5278 15.6564,0.4963 -2.974,-4.1411 -16.5716,-30.1678 -18.8439,-36.0682 -4.2396,-11.0091 -7.8148,-18.4164 -10.9507,-22.6882 -4.2779,-5.8277 -14.9818,-14.8844 -32.8618,-27.805 -53.3552,-38.5556 -95.1829,-79.7673 -119.2634,-117.5068 -9.5776,-15.01019 -21.5459,-38.68336 -27.6695,-54.7301 -2.5753,-6.74845 -5.3546,-13.79611 -6.1761,-15.66149 -1.9743,-4.48281 -8.094,-27.60685 -9.8636,-37.27081 -0.7717,-4.21432 -1.8645,-9.38932 -2.4284,-11.5 -1.634,-6.11619 -5.91,-39.75068 -6.6607,-52.39226 -0.6007,-10.11543 -0.4748,-11.76595 1.0101,-13.2509 2.1067,-2.10672 3.7069,-1.76501 18.0516,3.8548 22.1058,8.6604 54.3736,24.5854 79.5,39.23535 53.5241,31.20727 93.6638,74.56539 111.2919,120.21541 11.3282,29.33555 13.0501,40.6725 17.7402,116.7972 1.1886,19.2925 3.9219,37.8875 6.7915,46.2028 5.2047,15.0822 21.5823,42.3119 41.492,68.9858 15.1814,20.3389 44.3854,47.127 77.378,70.9768 22.2513,16.0851 26.9924,19.2653 51.6648,34.6552 24.1733,15.0786 32.6416,21.6539 32.6416,25.3449 0,2.5404 -1.0172,2.5408 -11.2765,0 -18.5598,-4.5898 -28.0788,-7.4832 -44.7235,-13.5943 -19.3019,-7.0866 -19.4279,-7.1347 -46.5,-17.7231 -55.9823,-21.8958 -92.2421,-29.9608 -135,-30.0269 -17.2184,-0.027 -23.4211,0.3719 -34.4448,2.2134 -34.6638,5.7905 -49.3794,15.9702 -71.7948,49.6646 -28.3456,42.6088 -52.2286,65.2925 -89.2604,84.7783 -41.9757,22.0872 -116.8962,33.5047 -194.6734,29.6672 z m 76.1734,-19.4401 c 18.4292,-2.0916 29.5295,-4.0261 46.3319,-8.0746 43.2852,-10.4294 66.5498,-20.2755 91.2215,-38.6065 19.3615,-14.3857 24.8513,-21.0046 60.1071,-72.4693 3.0022,-4.3825 3.6693,-6.9185 1.5895,-6.0425 -0.6875,0.2896 -4.85,2.058 -9.25,3.9298 -4.4,1.8719 -10.7,4.461 -14,5.7536 -10.5437,4.1301 -54.3883,24.9147 -72.5,34.3688 -6.325,3.3015 -18.7,9.7702 -27.5,14.3748 -47.8202,25.0219 -88.3623,43.5672 -131,59.924 -14.3781,5.5158 -14.1804,6.3518 1.7345,7.334 19.6929,1.2154 39.8617,1.0291 53.2655,-0.4921 z m -49.3975,-28.3793 c 13.7437,-6.4424 19.4771,-9.0433 44.3975,-20.141 11.55,-5.1435 36.075,-16.9883 54.5,-26.3218 46.1818,-23.3942 86.7268,-43.6633 87.3413,-43.6633 0.6042,0 15.4118,-6.624 17.8048,-7.9649 3.4464,-1.931 14.8103,-6.4709 26.5036,-10.5881 6.6823,-2.3529 13.4323,-4.973 15,-5.8225 l 2.8503,-1.5444 -4,-0.01 c -6.4727,-0.013 -29.0163,2.5796 -42.5,4.888 -54.4083,9.3147 -98.3535,26.3344 -141.0131,54.6134 -11.2443,7.4538 -17.6142,12.4846 -45.4869,35.9239 -16.4027,13.7938 -28.4077,25.5028 -26.1475,25.5028 0.1939,0 5.0314,-2.1932 10.75,-4.8739 z m 3.3975,-168.1032 c 28.1642,-1.592 42.1568,-4.9095 63,-14.9368 17.9943,-8.6567 20.225,-11.1545 11.2448,-12.5912 -2.3347,-0.3735 -10.7698,-1.9401 -18.7448,-3.4814 -7.975,-1.5413 -19.6699,-3.7943 -25.9887,-5.0069 -6.3187,-1.2125 -23.1937,-4.1648 -37.5,-6.5608 -51.2301,-8.5798 -63.1273,-10.8374 -102.5113,-19.4524 -38.2499,-8.3668 -92.1347,-24.9821 -120.4561,-37.1424 -8.7759,-3.768 -16.3134,-6.851 -16.75,-6.851 -2.7716,0 0.071,2.5234 23.2061,20.5972 6.875,5.371 15.425,12.1126 19,14.9813 8.7209,6.998 28.4255,20.4319 39.5,26.9299 44.4252,26.0666 94.1878,41.4205 142,43.8132 3.3,0.1651 6.45,0.369 7,0.453 0.55,0.084 8.2,-0.2543 17,-0.7517 z m 125.7408,-44.9932 c -7.8597,-5.9538 -17.3669,-13.9595 -50.3128,-42.3671 -31.029,-26.7548 -56.3757,-44.8669 -77.928,-55.6855 -32.957,-16.5433 -71.9294,-28.0147 -110.5,-32.5252 -30.3183,-3.5454 -81.9737,-3.0357 -115,1.1349 -18.164,2.2938 -61.44145,10.6362 -72.75,14.0238 -2.59202,0.7764 -2.12423,3.1173 1,5.0041 1.5125,0.9135 5.9,3.7815 9.75,6.3735 9.24193,6.2219 27.135,16.4764 34.8388,19.966 3.3887,1.535 8.6362,3.9332 11.6612,5.3295 3.025,1.3962 10.225,4.4044 16,6.6848 5.775,2.2803 11.4,4.5768 12.5,5.1032 2.9807,1.4265 33.2249,11.2367 47.5118,15.4112 18.7326,5.4736 57.3499,15.1954 75.9882,19.1298 59.6893,12.6001 90.6276,18.0138 153.5,26.8603 6.05,0.8512 14.825,2.2039 19.5,3.006 4.675,0.802 11.65,1.921 15.5,2.4866 3.85,0.5656 13.3,2.3188 21,3.896 7.7,1.5773 14.3334,2.6797 14.7408,2.4498 0.4074,-0.2299 -2.7426,-3.0567 -7,-6.2817 z m 232.342,-75.7797 c -0.2961,-3.7125 -0.7915,-11.025 -1.1009,-16.25 -3.2468,-54.8372 -10.3038,-88.71773 -24.3589,-116.94715 -23.7295,-47.66011 -57.2839,-81.79663 -111.0869,-113.0139 C 1484.7092,845.56589 1473.5577,840 1470.9047,840 c -2.0607,0 -2.1146,0.28623 -1.4599,7.75 3.2426,36.97002 15.5675,85.77646 28.7668,113.91538 20.2985,43.27372 52.4581,83.49242 90.2245,112.83462 14.8875,11.5667 46.4479,33.395 48.3745,33.4575 1.0067,0.033 1.1857,-1.5222 0.7722,-6.7075 z M 1346.9314,937.87916 c -0.8335,-8.52519 -1.0149,-22.34163 -0.5827,-44.37916 0.8535,-43.52202 -0.4497,-54.16241 -9.2929,-75.87325 -5.3352,-13.09846 -9.6056,-20.55842 -17.8893,-31.25058 -11.8919,-15.34943 -24.086,-26.15015 -54.6665,-48.41988 -11.55,-8.4111 -25.3911,-18.81717 -30.7579,-23.1246 -5.3669,-4.30743 -10.2044,-7.83169 -10.75,-7.83169 -2.793,0 1.2811,18.95148 11.7162,54.5 10.844,36.94182 21.1758,61.4552 40.4616,96 10.3363,18.51452 32.3623,49.73121 48.277,68.42147 17.3779,20.40862 22.8265,26.20513 23.7574,25.27425 0.5832,-0.58319 0.4801,-5.61499 -0.2729,-13.31656 z M 1308,942.14867 c 0,-0.46822 -1.2375,-2.48264 -2.75,-4.47647 -26.6892,-35.18271 -31.6671,-42.35409 -42.4616,-61.1722 -17.9083,-31.21953 -32.4748,-66.01695 -47.7213,-114 -1.0486,-3.3 -3.609,-12.8625 -5.6899,-21.25 -2.0808,-8.3875 -4.0918,-15.25 -4.469,-15.25 -1.6783,0 -4.7028,28.82262 -5.5614,53 -1.2807,36.06167 3.5849,57.99882 18.9639,85.5 11.9224,21.32029 23.2802,35.16461 39.6893,48.37874 9.2196,7.42444 12.6733,9.61543 37,23.47238 11.8175,6.73145 13,7.25881 13,5.79755 z m 3120.5,495.15213 c -17.3044,-0.926 -51.2626,-5.6554 -68,-9.4705 -34.1344,-7.7805 -65.8838,-23.1576 -93.3434,-45.2085 -17.214,-13.8235 -26.5981,-24.8737 -47.8544,-56.3509 -17.0698,-25.2778 -20.582,-29.4117 -31.2747,-36.8111 -11.6115,-8.0352 -24.4254,-12.3618 -46.0755,-15.5572 -24.785,-3.6581 -58.7592,-1.8096 -91.035,4.9532 -20.9933,4.3987 -38.3715,9.999 -77.917,25.1094 -20.919,7.9932 -41.1634,15.1803 -59.5,21.1235 -8.2698,2.6804 -30.5883,7.5323 -39.8881,8.6715 -3.8501,0.4716 -3.881,0.4483 -3.1687,-2.3899 0.3957,-1.5764 0.7953,-2.9331 0.8881,-3.015 0.9544,-0.8414 19.2366,-11.6154 22.6687,-13.3589 19.7432,-10.0295 73.5715,-47.0153 96.5,-66.3057 12.5692,-10.5749 31.6233,-29.9524 40.9948,-41.6907 20.241,-25.3528 43.1339,-64.5739 48.4464,-83 1.7352,-6.0188 2.3486,-11.9437 3.1056,-30 2.4667,-58.8332 5.4037,-80.236 15.0951,-110 14.25,-43.76464 44.6575,-84.07656 85.3581,-113.16102 20.9045,-14.93829 40.5845,-26.31125 75,-43.34214 39.686,-19.63904 51.3727,-24.14039 51.6001,-19.87465 0.6618,12.41788 -2.8267,42.94414 -7.5662,66.20757 -7.4969,36.79801 -17.6882,66.61622 -32.9898,96.52346 -6.847,13.38244 -10.3577,18.95517 -22.9405,36.41478 -22.7413,31.555 -59.2158,66.7522 -101.6036,98.0454 -9.075,6.6997 -20.8283,15.3747 -26.1185,19.2776 -10.6577,7.863 -11.5828,9.1541 -17.8505,24.909 -7.547,18.9707 -17.0136,36.615 -26.1806,48.7968 -2.1922,2.9132 -3.8429,5.7115 -3.6681,6.2184 0.1747,0.5068 4.5927,-1.0162 9.8177,-3.3845 5.225,-2.3684 11.75,-5.3271 14.5,-6.575 20.1407,-9.1394 50.545,-25.3346 71,-37.819 18.137,-11.0696 65.8186,-42.5958 79.5,-52.564 66.2399,-48.2619 111.6278,-91.2706 123.5491,-117.07268 7.0626,-15.28596 9.347,-36.128 9.4145,-85.89321 0.066,-48.46002 4.0906,-71.85959 17.1013,-99.42433 10.6417,-22.54572 23.3784,-39.86364 45.5772,-61.97086 15.7543,-15.68931 29.1119,-25.47703 69.3579,-50.82168 26.8499,-16.90856 39.3343,-23.28729 41.7134,-21.31284 3.0912,2.56546 8.8945,17.91511 14.1109,37.3229 5.9615,22.17977 7.9019,37.0347 8.8172,67.5 1.5679,52.184 -9.2671,92.28867 -33.6359,124.5 -10.447,13.809 -31.7248,33.71983 -45.6316,42.69994 -9.6935,6.25943 -36.1962,21.06165 -52.874,29.53101 -40.8265,20.73263 -41.498,21.21432 -57.0937,40.95495 -25.9525,32.8499 -74.0042,75.6925 -129.4063,115.3778 -23.649,16.9401 -62.3708,40.5059 -93.5,56.9034 -5.5,2.8971 -14.725,7.888 -20.5,11.0908 -5.775,3.2028 -22.65,11.7335 -37.5,18.9572 -46.95,22.8385 -50.8031,24.8234 -60,30.9086 -11.479,7.5952 -14.1516,9.758 -13.2153,10.6944 0.4152,0.4151 12.3335,-1.1693 26.4851,-3.5209 47.4032,-7.8772 64.1885,-11.0107 83.7302,-15.6308 6.05,-1.4304 13.7,-3.2191 17,-3.975 11.0769,-2.5372 30.8532,-8.5024 50,-15.0818 40.3101,-13.8516 69.3791,-23.2577 78.5,-25.401 22.994,-5.4031 23.995,-5.7776 31.198,-11.6705 3.7355,-3.0562 22.2066,-20.705 41.0469,-39.2195 18.8403,-18.5145 38.5322,-37.3092 43.7599,-41.766 41.8213,-35.6543 104.9922,-60.782 172.9952,-68.813 25.5524,-3.0177 32.5746,-3.3862 58.5,-3.0703 29.9525,0.3649 60.3636,3.1815 103.3784,9.5745 39.9237,5.9337 76.4342,12.8688 78.471,14.9056 0.6618,0.6618 0.6403,1.7779 -0.064,3.3241 -1.4114,3.0976 -45.9358,49.4241 -60.371,62.8145 -51.0599,47.3641 -94.5835,75.5694 -156.9142,101.6876 -54.2216,22.7204 -105.8681,30.5349 -153,23.1502 -15.7017,-2.4601 -36.1368,-8.7559 -63,-19.4095 -28.7923,-11.4186 -39.7425,-13.9458 -60,-13.8477 -13.7833,0.067 -27.3419,1.8338 -40.9939,5.3425 -8.4172,2.1633 -37.5307,11.7044 -55.0061,18.0267 -16.6572,6.0262 -39.3661,13.6707 -47.8287,16.1006 -4.6589,1.3376 -6.9806,2.4523 -6.3731,3.0598 1.3118,1.3118 26.1627,4.0729 56.7018,6.3 13.7528,1.0029 34.5446,3.5439 46,5.6217 26.9752,4.8929 62.0653,15.3414 78,23.2254 1.65,0.8164 9.975,4.7248 18.5,8.6853 49.9003,23.1827 95.454,54.1938 142.7942,97.2084 16.5447,15.033 39.4193,38.6206 38.9163,40.1295 -1.298,3.894 -88.076,7.9729 -126.2105,5.9323 z m 42.5,-23.0603 c 0,-1.4322 -4.5067,-3.946 -41.5124,-23.1553 -12.6568,-6.5701 -28.6318,-14.4083 -35.5,-17.4182 -6.8682,-3.01 -16.3126,-7.2604 -20.9876,-9.4454 -6.8761,-3.2138 -29.1426,-13.0487 -52,-22.9679 -1.925,-0.8354 -5.3,-2.3297 -7.5,-3.3209 -10.3608,-4.6675 -16.9874,-7.5397 -29,-12.5695 -7.15,-2.9938 -20.5465,-8.6412 -29.7701,-12.5498 -9.2235,-3.9087 -17.0508,-6.8259 -17.394,-6.4828 -0.3431,0.3432 3.1794,4.7966 7.8279,9.8966 4.6484,5.1 13.4628,15.1671 19.5875,22.3714 25.5072,30.0035 45.5514,45.2724 73.3731,55.8927 28.456,10.8624 49.8218,16.0877 71.6206,17.5157 44.8866,2.9404 61.255,3.5372 61.255,2.2334 z m 16.9368,-16.8391 c -1.3403,-1.4438 -11.4368,-10.0268 -22.4368,-19.0734 -11,-9.0465 -22.025,-18.1483 -24.5,-20.226 -8.0796,-6.7829 -28.3016,-21.6741 -37.5,-27.6145 -48.6909,-31.4451 -100.8626,-50.3274 -154.5,-55.9176 -7.975,-0.8312 -19.0435,-2.049 -24.5967,-2.7064 -9.8676,-1.168 -14.697,-0.7492 -12.8205,1.1117 1.2576,1.2471 39.7619,17.9299 56.9172,24.6605 7.7,3.021 20.75,8.3486 29,11.8392 51.7054,21.8764 49.8487,21.0741 66.5,28.7338 3.575,1.6445 11,5.0172 16.5,7.4949 11.2185,5.0538 51.2362,24.8555 52.9145,26.1834 0.597,0.4724 6.709,3.912 13.5822,7.6435 18.6897,10.1468 21.2026,11.5355 24.8185,13.715 1.8233,1.099 6.3233,3.4895 10,5.3123 7.4365,3.6868 10.1428,3.1756 6.1216,-1.1564 z M 4515,1222.5309 c 28.3838,-3.0438 52.1184,-9.619 84,-23.2705 23.4907,-10.0586 40.9069,-19.8033 57,-31.8926 21.1685,-15.902 24.4495,-18.7784 48.5,-42.5212 11.55,-11.4022 23.25,-22.4412 26,-24.531 2.75,-2.0898 7.8154,-6.1465 11.2564,-9.0148 3.441,-2.8683 10.0785,-7.8219 14.7499,-11.008 4.6715,-3.186 8.4936,-6.1507 8.4936,-6.5881 3e-4,-2.392 -39.7866,7.5476 -57.9033,14.4654 -5.8281,2.2255 -15.6441,5.7941 -21.8132,7.9303 -19.3735,6.7085 -52.8271,20.3773 -82.2834,33.6202 -47.4292,21.3231 -92.7401,38.8643 -137.5,53.2304 -25.5096,8.1875 -37.6427,11.3729 -64.75,16.999 -9.8701,2.0486 -8.0113,3.3633 12.951,9.161 27.9745,7.737 43.4628,11.0944 59.299,12.8544 20.1089,2.2349 25.7275,2.3105 42,0.5655 z m -140,-42.5367 c 19.3883,-1.5786 41.4349,-4.0588 49.5,-5.5685 29.8182,-5.5817 60.1281,-14.9288 92,-28.3715 5.5,-2.3197 21.7,-9.1584 36,-15.197 14.3,-6.0385 34.1,-14.385 44,-18.5477 9.9,-4.1627 20.025,-8.473 22.5,-9.5785 2.475,-1.1055 9.225,-3.9294 15,-6.2754 5.775,-2.3459 14.55,-5.9415 19.5,-7.9902 28.5518,-11.8166 62.504,-22.8851 86,-28.0363 11.2721,-2.4713 14.575,-3.6875 13.3477,-4.9148 -0.2855,-0.2854 -7.0055,-1.6206 -14.9334,-2.9671 -7.9278,-1.3465 -16.6643,-2.9109 -19.4143,-3.4764 -18.302,-3.7635 -62.5228,-6.4946 -93.5,-5.7746 -45.3134,1.0533 -89.67,8.6092 -118.3021,20.1521 -50.0085,20.1606 -69.6803,33.1322 -132.6992,87.5015 -11.8258,10.2026 -24.7483,21.0252 -28.7167,24.0502 -3.9684,3.025 -7.2303,5.8393 -7.2486,6.2539 -0.036,0.8107 19.8705,0.1324 36.9666,-1.2597 z m -249.2104,-80.5728 c 3.6907,-2.7932 9.6354,-7.0698 13.2104,-9.5036 22.8477,-15.5543 48.6202,-38.4015 65.3334,-57.9178 4.4745,-5.225 8.3885,-9.725 8.6977,-10 1.5968,-1.4201 10.5231,-13.7943 16.9521,-23.5 21.7804,-32.88129 38.1924,-75.71623 46.3604,-121 2.8199,-15.6336 5.1492,-34.34055 4.3726,-35.11715 -1.2376,-1.23761 -43.1109,21.43348 -59.2162,32.06088 -35.9412,23.71658 -63.7497,54.7719 -81.5362,91.05627 -13.0104,26.54115 -21.9201,58.9407 -25.4369,92.5 -1.9549,18.6553 -4.5269,47.3965 -4.5269,50.5873 v 2.4761 l 4.5396,-3.2817 c 2.4968,-1.8049 7.5593,-5.5671 11.25,-8.3603 z M 4411.359,947.25 c 36.8168,-37.96704 61.6646,-78.46821 85.4311,-139.25 5.3752,-13.74681 26.0756,-81.51948 28.7113,-94 0.755,-3.575 1.0106,-6.86796 0.568,-7.3177 -0.8135,-0.82658 -9.948,5.9195 -31.669,23.38857 -6.5452,5.26397 -17.5254,13.80336 -24.4004,18.97642 -15.9581,12.00757 -36.6225,32.60264 -44.3584,44.2096 -8.471,12.70999 -15.8348,27.82939 -19.0073,39.02614 -3.7917,13.38173 -4.6846,27.4532 -3.9482,62.21697 0.5546,26.1798 -0.5266,54.51551 -2.318,60.75 -1.0178,3.54221 1.7566,1.52274 10.9909,-8 z m 61.141,-19.09364 c 14.7895,-9.19803 22.6093,-15.37623 30.0428,-23.73597 22.9908,-25.85553 34.5467,-44.57297 42.8591,-69.42039 5.6849,-16.99324 6.9266,-26.49054 6.2756,-48 -0.7975,-26.35001 -6.6509,-73.13853 -9.1457,-73.10453 -0.5325,0.007 -2.4508,6.89624 -4.263,15.30886 -1.8122,8.41262 -3.9472,18.22067 -4.7446,21.79567 -1.775,7.95847 -6.5322,24.11231 -11.0434,37.5 -4.5424,13.48016 -19.8205,57.65341 -22.3085,64.5 -8.7856,24.17648 -26.8986,58.18825 -40.485,76.02095 -3.128,4.10567 -5.6873,7.78024 -5.6873,8.16572 0,1.23894 9.2406,-3.27164 18.5,-9.03031 z"
         id="path3" />
      <path
         style="fill:#6f705b"
         d="m 3420.5,2623.3436 c -33.8459,-4.0243 -53.2798,-9.6277 -79.9681,-23.0577 -40.589,-20.425 -71.3202,-55.5448 -91.2543,-104.2859 -16.0128,-39.1533 -22.1359,-78.8759 -20.9639,-136 0.5824,-28.3817 2.0724,-45.7511 5.7046,-66.5 1.1554,-6.6 2.4945,-14.25 2.976,-17 2.6635,-15.2149 9.9259,-45.3996 15.6387,-65 9.1155,-31.2744 26.9858,-80.747 39.3726,-109 0.4823,-1.1 2.2985,-5.375 4.0361,-9.5 13.467,-31.9697 43.2328,-85.8957 67.8931,-123 36.5812,-55.0406 65.9612,-91.6805 106.5415,-132.8683 27.8693,-28.2864 52.5812,-50.6287 72.6369,-65.6717 1.4372,-1.078 7.7372,-5.8293 14,-10.5584 12.0106,-9.0694 31.0853,-22.1261 51.8868,-35.5165 53.9685,-34.7408 132.8764,-67.0843 188.5,-77.2643 18.8847,-3.4561 33.4242,-4.4457 56,-3.8113 18.6268,0.5234 22.3561,0.9218 33,3.5251 13.2912,3.2509 21.7711,6.2562 31.5131,11.1683 25.4422,12.8285 45.7235,36.5134 54.3724,63.4971 4.6313,14.4492 6.049,25.2595 6.0328,46 -0.016,20.5242 -1.3736,30.7413 -7.5057,56.4862 -13.1914,55.3822 -45.8226,107.1309 -90.5223,143.5561 -25.3561,20.6623 -46.5972,26.0315 -52.4004,13.2453 -3.6918,-8.1341 -2.7077,-9.8201 12.3843,-21.2185 15.0588,-11.3733 25.8169,-21.5611 37.9912,-35.9772 10.9496,-12.9659 17.6813,-21.9391 24.8256,-33.0919 4.6211,-7.2138 11.809,-19.3509 11.809,-19.94 0,-0.1831 1.9774,-4.5465 4.3942,-9.6965 8.8957,-18.9558 15.0661,-38.253 19.7814,-61.8635 3.0259,-15.1509 3.2942,-42.366 0.5325,-54 -7.446,-31.3667 -19.4338,-48.2834 -42.2081,-59.5625 -13.7435,-6.8065 -22.1858,-8.6764 -39.5,-8.7486 -27.4617,-0.1145 -50.4712,5.7002 -84.4244,21.3351 -16.9835,7.8206 -20.2515,9.4479 -34.5756,17.2168 -37.9481,20.5819 -87.1986,56.1713 -118.5252,85.6487 -3.8639,3.6358 -12.1375,11.3355 -18.3857,17.1105 -19.0024,17.5632 -52.0607,53.1036 -71.1574,76.5 -11.2146,13.7397 -26.4054,34.1887 -43.8876,59.0796 -15.6702,22.3108 -31.02,47.3346 -47.797,77.9204 -7.7333,14.0985 -26.0318,50.7639 -30.1936,60.5 -1.7633,4.125 -3.8633,8.953 -4.6667,10.729 -0.8034,1.7759 -2.0903,4.9259 -2.8599,7 -0.7696,2.074 -2.8354,7.146 -4.5908,11.271 -7.1197,16.7312 -12.4669,31.0981 -20.8425,56 -28.8018,85.6322 -39.4747,149.7641 -37.6945,226.5 1.1348,48.9185 5.8695,75.4926 18.6304,104.5673 6.7525,15.3849 18.9533,33.1315 29.3949,42.7563 6.6716,6.1496 20.6084,14.9506 29.9543,18.916 4.4667,1.8952 13.0713,4.631 19.1213,6.0795 10.1935,2.4406 12.6497,2.6338 33.5,2.6354 16.8908,0 25.3669,-0.4522 34,-1.819 18.6105,-2.9464 38.1266,-7.5157 51.2829,-12.0069 58.1983,-19.8669 91.3278,-37.9062 149.7171,-81.5224 38.0141,-28.3961 83.7531,-72.7591 106.8197,-103.6062 9.0012,-12.0375 11.1282,-16.42 11.1624,-23 0.051,-9.8243 4.5507,-32.78 9.5067,-48.5 7.5472,-23.9388 20.5645,-48.4154 36.4301,-68.5 5.282,-6.6866 15.8334,-17.6576 26.5837,-27.6408 4.2487,-3.9456 5.3469,-5.7733 7.3303,-12.1998 4.1204,-13.3502 17.2374,-30.514 30.6671,-40.1282 8.9407,-6.4006 17.0664,-10.127 28.5482,-13.092 9.3531,-2.4154 11.5079,-2.6139 23.3773,-2.1544 17.2322,0.6673 27.2796,3.7404 40.7297,12.4577 17.1431,11.1108 28.8473,29.6619 35.0843,55.6084 2.0099,8.3617 2.1987,11.6878 2.194,38.6491 0,25.4488 -0.2996,31.2796 -2.1493,42.4588 -1.1793,7.1273 -1.9332,13.3001 -1.6754,13.7172 1.475,2.3866 43.5327,-9.4846 59.1245,-16.6884 12.8818,-5.9518 30.7162,-18.067 38.9005,-26.4257 4.5061,-4.6021 5.3792,-7.0887 11.4333,-32.5619 1.6993,-7.15 3.4932,-14.35 3.9865,-16 0.4932,-1.65 1.8826,-6.6 3.0876,-11 7.3716,-26.9183 11.3741,-35.3988 20.0021,-42.38 7.2156,-5.8384 14.4709,-8.7862 24.7496,-10.0556 15.1899,-1.8759 24.9702,2.1232 30.4128,12.4356 1.6757,3.1749 2.0896,5.6501 2.0069,12 -0.1154,8.8652 -0.3412,9.9059 -13.2363,61 -11.25,44.5756 -16.3246,66.2552 -15.8452,67.6932 0.2023,0.6071 2.112,-1.3255 4.2437,-4.2947 7.444,-10.3687 46.8671,-57.0632 61.4212,-72.75 8.3182,-8.9657 32.4615,-32.3031 44.6559,-43.1653 16.1236,-14.3623 30.124,-22.8986 46.9481,-28.6252 10.3285,-3.5156 25.8234,-3.9401 34.4732,-0.9445 9.287,3.2163 19.9994,14.9439 24.3597,26.6683 4.8694,13.0931 3.9013,27.894 -4.7042,71.9182 -14.9719,76.5935 -16.791,102.294 -8.4192,118.9524 6.4266,12.788 14.0169,15.5724 28.7707,10.5543 27.1985,-9.2508 56.7644,-33.669 82.4954,-68.1323 31.3761,-42.0242 34.1473,-46.2595 36.0542,-55.1031 2.3708,-10.9956 12.7922,-49.9996 18.1076,-67.7713 2.4675,-8.25 5.6121,-18.825 6.988,-23.5 3.4442,-11.7028 23.7974,-71.7455 31.1859,-92 5.7839,-15.8556 7.9048,-21.4843 11.0499,-29.3256 2.6148,-6.5191 3.9605,-12.4545 2.8888,-12.7413 -0.1375,-0.037 -44.575,-0.3011 -98.75,-0.5875 -159.495,-0.8429 -189.1669,0.6806 -249.8595,12.8292 -28.0476,5.6142 -29.1569,5.6169 -36.4095,0.088 -7.3849,-5.6295 -7.1151,-11.1144 0.8936,-18.164 6.8454,-6.0255 20.0522,-9.8878 52.8754,-15.4632 41.2691,-7.0101 92.2749,-9.1889 187.5,-8.0093 38.775,0.4803 90.0244,0.8733 113.8876,0.8733 h 43.3876 l 6.9803,-16 c 27.8933,-63.9354 65.5911,-121.1178 92.2445,-139.9222 14.208,-10.024 28.8994,-11.329 32.3649,-2.875 0.945,2.3053 0.7161,4.3987 -1.3017,11.9049 -2.528,9.4036 -8.778,27.4404 -15.5559,44.8923 -2.136,5.5 -5.9573,15.4 -8.4918,22 -2.5344,6.6 -5.5485,14.25 -6.6979,17 -1.1495,2.75 -4.0906,10.625 -6.5358,17.5 -9.713,27.3094 -13.321,37.1906 -14.2364,38.9893 -0.4228,0.8309 -1.0547,2.7089 -1.4042,4.1733 -0.5873,2.4609 -0.3516,2.7058 3.1117,3.2326 2.0609,0.3135 18.5208,1.3015 36.5775,2.1957 60.1473,2.9782 169.278,0.4156 217.6273,-5.1105 34.0815,-3.8953 36.6658,-4.2358 53.0423,-6.9884 24.7772,-4.1645 36.036,-6.6649 78.5,-17.4339 8.8,-2.2318 17.575,-4.0561 19.5,-4.0542 4.347,0 8.926,2.7215 12.5139,7.4254 2.2565,2.9584 2.6514,4.3013 2.2173,7.5383 -1.3795,10.2846 -11.1493,15.859 -38.7312,22.099 -5.225,1.1821 -13.2297,3.0172 -17.7883,4.078 -27.7341,6.4538 -87.0902,14.2035 -128.7117,16.8049 -45.8974,2.8687 -73.03,3.3228 -160.7349,2.6898 l -89.7348,-0.6475 -1.5807,3.7541 c -1.5582,3.7006 -6.7723,17.4735 -9.9394,26.2541 -5.7842,16.0367 -18.6103,55.467 -26.0229,80 -5.7126,18.9069 -10.7831,35.886 -11.945,40 -0.6991,2.475 -2.8533,9.675 -4.7872,16 -4.1757,13.6572 -8.5029,28.566 -10.3036,35.5 -0.7141,2.75 -3.1302,11.975 -5.369,20.5 -15.9959,60.9096 -26.0899,109.5555 -30.0871,144.9984 -2.248,19.9328 -1.1966,48.027 2.1275,56.8484 1.3888,3.6856 6.6252,8.9411 11.3164,11.3577 5.204,2.6808 11.8387,1.9164 20.5519,-2.3677 11.8232,-5.8134 37.4777,-33.3721 63.6148,-68.3368 22.7905,-30.4879 48.3101,-66.5186 64.0987,-90.5 5.6126,-8.525 15.2876,-23.2232 21.5,-32.6626 27.3543,-41.5634 32.3865,-48.3669 49.7339,-67.2395 8.7665,-9.5372 22.4679,-21.7066 39.0614,-34.6936 22.8559,-17.8884 47.8153,-30.1789 72.0116,-35.4598 10.5567,-2.304 31.1164,-2.8207 39.2963,-0.9875 17.395,3.8983 29.5899,12.1489 38.6853,26.1731 8.3192,12.8274 12.5114,33.6689 8.9614,44.5519 -3.5498,10.8823 -13.9187,15.4981 -21.6197,9.6242 -4.6422,-3.5407 -5.4182,-5.7986 -6.2995,-18.3283 -0.875,-12.4387 -2.8912,-17.7774 -8.8445,-23.4187 -5.2099,-4.9369 -8.4093,-6.2729 -16.9028,-7.0583 -10.9949,-1.0166 -21.8422,1.4365 -34.8061,7.8715 -19.2875,9.5739 -33.4437,20.3284 -49.8915,37.9026 -42.3323,45.2314 -73.6851,111.2605 -78.6917,165.725 -1.4393,15.6574 -0.4046,21.8808 4.6124,27.7421 4.9701,5.8064 9.4524,7.6457 16.9108,6.9393 7.6959,-0.7289 13.4928,-2.7691 21.078,-7.4182 13.0219,-7.9813 25.9529,-19.4487 41.2688,-36.5977 5.9021,-6.6086 13.3929,-14.9744 16.6461,-18.5906 17.4293,-19.3741 39.7798,-51.7925 56.5859,-82.0749 16.0795,-28.9732 22.3894,-37.0754 32.9455,-42.3029 6.9148,-3.4243 10.1055,-3.3907 17.5537,0.1847 7.7538,3.7221 14.2938,9.4546 16.6139,14.5624 3.4662,7.6314 2.8329,11.9888 -7.5657,52.0558 -10.8881,41.953 -12.3831,48.0658 -14.9711,61.2135 -6.2007,31.5021 -7.1867,59.3767 -2.5392,71.7865 1.4054,3.7529 3.7074,7.4044 6.1466,9.75 3.4271,3.2955 4.4953,3.75 8.8136,3.75 9.0201,0 19.6243,-7.8573 44.1042,-32.6795 24.6698,-25.0147 27.8708,-28.8332 58.9497,-70.3205 13.0453,-17.4143 28.515,-40.1524 47.0542,-69.1626 9.4777,-14.8308 10.7092,-17.6387 12.2926,-28.0279 2.9217,-19.17 13.6012,-41.3146 27.5251,-57.0749 5.6193,-6.3604 16.3152,-16.3635 21.0529,-19.6892 20.4981,-14.3891 35.8407,-21.1378 59.5232,-26.1824 9.6692,-2.0597 13.7221,-2.3444 33.5,-2.3531 14.0972,-0.01 25.1142,0.4708 29.5,1.2772 38.2292,7.0295 67.194,28.0556 73.527,53.3749 0.9654,3.8594 0.8844,5.631 -0.4704,10.2913 -1.7249,5.9334 -6.8662,12.642 -11.4814,14.9816 -4.6779,2.3713 -11.4524,2.7981 -15.9364,1.004 -5.5201,-2.2088 -8.4496,-5.8137 -16.1388,-19.8599 -11.0047,-20.103 -17.4414,-25.3047 -36,-29.0928 -14.429,-2.9452 -34.6778,-0.6601 -47.4124,5.3506 -17.5425,8.2798 -32.4332,26.0243 -38.7392,46.1632 -2.0138,6.4315 -2.3474,9.5657 -2.3412,22 0.01,12.0972 0.3844,15.8064 2.2837,22.384 3.1217,10.8111 7.3791,20.5175 13.4233,30.6037 6.5245,10.8877 25.1315,37.6001 28.9084,41.5013 l 2.8938,2.9889 11.0951,-2.8271 c 6.1023,-1.5549 13.6361,-3.6414 16.7418,-4.6367 3.1057,-0.9952 12.3967,-3.9235 20.6467,-6.5071 55.5553,-17.3984 101.2837,-34.1308 130.9988,-47.9335 12.734,-5.915 19.1818,-7.043 25.0291,-4.3788 2.9031,1.3227 5.4721,5.5094 5.4721,8.9178 0,4.0292 -4.7071,10.3923 -10.9027,14.7382 -9.5044,6.667 -34.2997,17.4856 -66.0372,28.8133 -65.105,23.2371 -88.1814,30.8869 -109.5601,36.3191 -7.3833,1.8761 -7.3498,1.7632 -3.7737,12.7213 9.1844,28.143 11.102,44.5875 7.7741,66.6668 -3.6072,23.9317 -11.3234,39.8575 -27.6875,57.145 -12.8697,13.5959 -32.9719,26.0759 -52.9112,32.8487 -17.9371,6.0926 -29.9706,8.0586 -49.4017,8.071 -15.972,0.01 -17.749,-0.185 -29.3851,-3.229 -16.4745,-4.3096 -24.6642,-8.6655 -34.1485,-18.1629 -11.0184,-11.0335 -16.9747,-24.0765 -16.9167,-37.044 0.09,-20.1635 9.7824,-39.1607 30.249,-59.2885 22.6753,-22.3001 52.9181,-42.387 80.8771,-53.7178 3.1216,-1.2651 6.8347,-3.2437 8.2511,-4.3969 l 2.5754,-2.0968 -5.2511,-6.6048 c -8.2746,-10.4076 -37.9508,-50.6469 -43.1989,-58.5753 -2.7382,-4.1366 -5.2791,-6.9782 -5.9945,-6.7037 -0.6828,0.262 -2.3018,2.3681 -3.5977,4.6801 -8.6389,15.4128 -39.4231,58.4979 -59.8061,83.7037 -28.7593,35.5638 -62.2664,70.2653 -78.0245,80.8057 -30.5284,20.4201 -53.4545,23.6345 -78.4972,11.0057 -9.0358,-4.5567 -21.4316,-17.3893 -26.3819,-27.3114 -6.6401,-13.3093 -8.7386,-25.0678 -8.745,-49 0,-11 0.3623,-24.0208 0.8118,-28.9351 l 0.8172,-8.9352 -6.9387,8.9352 c -21.6094,27.8272 -53.749,60.7373 -71.5469,73.2621 -15.818,11.1315 -37.1382,18.5043 -53.6488,18.5525 -11.6279,0.034 -20.4895,-2.0877 -31.8644,-7.6289 -10.4469,-5.0891 -16.4772,-10.9831 -21.8619,-21.3676 -6.2071,-11.9705 -8.2535,-19.9725 -9.0678,-35.4574 -0.4136,-7.8664 -1.12,-13.4071 -1.7059,-13.381 -0.55,0.025 -3.7,3.9321 -7,8.6835 -12.4282,17.8943 -54.4023,67.8205 -67.1156,79.831 -22.0926,20.8714 -42.6511,30.9409 -63.1706,30.9409 -22.7839,0 -42.9907,-10.2993 -54.5593,-27.8087 -16.6767,-25.2407 -21.2711,-51.9674 -18.7414,-109.0234 0.6908,-15.5826 1.0062,-28.5819 0.7009,-28.8873 -0.3054,-0.3054 -6.3117,5.2441 -13.3473,12.3321 -13.891,13.9945 -35.3489,32.8567 -47.2667,41.549 -36.6826,26.7545 -71.1173,36.8169 -100.492,29.3654 -10.3888,-2.6353 -15.9106,-5.5734 -26.008,-13.8384 -7.6023,-6.2227 -10.7267,-9.9955 -16.1777,-19.5349 -11.8703,-20.7733 -13.7141,-43.6591 -6.8203,-84.6596 2.5856,-15.3777 4.8591,-24.9422 12.3592,-51.9942 2.7447,-9.9 6.6004,-23.85 8.5681,-31 1.9677,-7.15 3.9989,-14.35 4.5138,-16 3.2448,-10.3988 1.8822,-14.0124 -4.1144,-10.9114 -9.8492,5.0932 -33.6051,27.2286 -57.8583,53.9114 -3.4994,3.85 -9.1409,9.925 -12.5366,13.5 -12.0584,12.6949 -25.5025,29.0059 -40.51,49.1482 -17.2279,23.1226 -22.3886,30.1325 -26.4238,35.8923 -2.2,3.1403 -8.9708,12.6283 -15.0463,21.0845 -6.0754,8.4563 -15.4867,22.35 -20.914,30.875 -5.4272,8.525 -11.1864,17.1935 -12.7982,19.2632 -3.5753,4.5913 -9.813,8.315 -15.4464,9.221 -11.9205,1.9173 -30.7135,-7.3698 -34.8249,-17.2098 -3.4356,-8.2225 -2.4568,-22.2798 3.5701,-51.2744 1.6577,-7.975 3.4754,-16.975 4.0393,-20 0.564,-3.025 2.3866,-11.0526 4.0504,-17.8392 1.6638,-6.7865 2.8325,-12.5317 2.5971,-12.7671 -0.2354,-0.2353 -3.0034,1.1229 -6.1512,3.0184 -15.0395,9.0564 -59.6411,24.5295 -84.1071,29.1785 -4.9328,0.9373 -9.5057,2.2004 -10.1618,2.8068 -0.6562,0.6064 -3.2829,5.1526 -5.8371,10.1026 -8.0214,15.5453 -24.1416,38.2341 -39.3835,55.4314 -10.1496,11.4516 -30.822,29.956 -41.2166,36.8939 -36.5495,24.3953 -73.4054,28.6466 -102.7439,11.8516 -14.2936,-8.1824 -25.1322,-19.0058 -31.5494,-31.505 -1.5252,-2.9707 -1.9062,-3.1855 -3.5489,-2 -1.0122,0.7305 -5.1921,5.3781 -9.2887,10.3281 -15.4573,18.6774 -58.0331,59.5453 -81.7389,78.4601 -5.775,4.6078 -12.525,10.0227 -15,12.0331 -20.8427,16.93 -62.4947,42.5944 -93.5,57.6112 -23.5857,11.4232 -33.3883,15.4098 -61,24.8077 -45.5924,15.5178 -80.5098,21.7302 -120.4939,21.4381 -11.2783,-0.082 -21.8561,-0.3104 -23.5061,-0.5066 z M 5238.1456,2509.617 c 8.4223,-2.2933 21.6367,-8.7968 27.856,-13.7095 22.1227,-17.4751 31.5998,-37.4411 32.7077,-68.9075 0.3918,-11.127 0.1212,-15.082 -1.5395,-22.5 -2.1482,-9.5957 -4.4648,-15.9462 -6.2104,-17.0251 -3.1735,-1.9613 -36.2465,15.1198 -60.8935,31.4495 -12.8228,8.4957 -30.9009,25.1068 -36.4931,33.5319 -5.5014,8.2882 -9.7468,19.8229 -9.9228,26.96 -0.2396,9.7174 1.8665,15.2183 8.2974,21.6716 5.4087,5.4277 11.6522,8.4776 21.0526,10.2841 4.4718,0.8594 19.3601,-0.1797 25.1456,-1.755 z m -1312.034,-76.9692 c 7.0414,-1.6575 16.7288,-7.0358 26.1317,-14.5079 8.178,-6.4987 23.0884,-22.2489 30.6162,-32.3405 4.5154,-6.0533 6.1489,-8.5447 12.5489,-19.1401 4.1818,-6.9231 13.5916,-26.0273 13.5916,-27.5943 0,-1.2988 -1.7118,-1.9591 -7.75,-2.9894 -10.7228,-1.8298 -23.9149,-6.3036 -35.75,-12.1238 -11.0015,-5.4102 -28.7369,-18.2309 -35.6025,-25.7364 -2.4186,-2.6441 -6.1327,-6.7312 -8.2536,-9.0825 -3.7659,-4.1751 -3.8896,-4.2271 -5.2924,-2.2243 -3.9726,5.6717 -15.8917,39.8668 -20.3339,58.3368 -3.2225,13.3987 -6.0376,36.2016 -5.9827,48.4614 0.045,9.9629 2.1517,21.7785 4.8147,26.9984 5.5904,10.9581 16.9726,15.3062 31.262,11.9426 z m 93.5175,-121.2045 c 2.0996,-3.2044 7.9481,-26.8257 9.466,-38.2322 1.7381,-13.0607 0.6342,-42.63 -1.9768,-52.9542 -2.3287,-9.2078 -7.4076,-20.5965 -12.0312,-26.9785 -5.6353,-7.7783 -17.2904,-12.4335 -27.0157,-10.7905 -6.2727,1.0598 -12.7959,6.1125 -19.3118,14.9583 -13.4488,18.2581 -19.114,35.9208 -18.9967,59.2281 0.081,16.023 3.306,24.6792 12.9004,34.622 9.5931,9.9414 24.9278,17.2741 44.3367,21.2007 9.525,1.9271 10.7426,1.8255 12.6291,-1.0537 z M 194,2606.3819 c -26.23593,-4.9678 -38.99067,-8.7683 -51.61944,-15.381 -28.07609,-14.701 -49.109015,-36.4767 -64.232672,-66.5009 -7.881124,-15.646 -15.150146,-35.6779 -18.506507,-51 -11.756983,-53.6719 -11.237993,-117.2217 1.486331,-182 18.679639,-95.0962 56.596688,-185.3118 120.194738,-285.9778 6.5943,-10.4378 14.02282,-21.9128 16.50781,-25.5 43.55852,-62.879 69.49679,-95.2832 115.28409,-144.0222 50.95359,-54.2383 105.77448,-100.1882 149.41667,-125.2385 59.64179,-34.2339 122.62086,-57.1675 170.91866,-62.2395 18.23145,-1.9145 27.85072,-1.917 43.58018,-0.011 43.11462,5.2245 82.01088,28.1968 111.30785,65.7389 3.75556,4.8125 7.12844,8.7329 7.49529,8.712 0.36685,-0.021 2.917,-3.6191 5.667,-7.996 11.44019,-18.2081 27.4287,-40.7398 33.57635,-47.3172 l 6.57636,-7.036 6.92364,2.3202 c 10.48578,3.514 15.4253,6.6899 15.41593,9.912 -0.005,1.5527 -2.67983,6.8069 -6.44368,12.655 -18.57438,28.8603 -31.6341,50.7768 -39.14711,65.6956 -4.15679,8.2543 -21.29987,38.4789 -26.87313,47.3795 -2.09222,3.3413 -5.3139,7.1097 -7.1593,8.3742 -2.99786,2.0542 -3.68118,2.1641 -6.41487,1.0317 -3.53233,-1.4631 -6.09726,-5.9664 -7.9631,-13.981 -4.23723,-18.2007 -15.37804,-43.3867 -25.39732,-57.4157 -14.99556,-20.9967 -39.81309,-37.1844 -66.19176,-43.1747 -10.87956,-2.4706 -35.23494,-2.4847 -48.73058,-0.028 -36.41658,6.6288 -78.98866,28.1381 -126.56892,63.9483 -49.32263,37.1216 -100.91416,89.3964 -142.7792,144.6703 -52.36909,69.1422 -87.21513,127.507 -123.88557,207.5 -1.95078,4.2554 -6.68787,15.6335 -10.4084,25 -1.74775,4.4 -4.03047,10.025 -5.07271,12.5 -9.1361,21.6954 -24.00818,68.2792 -31.92542,100 -2.26504,9.075 -4.75074,18.975 -5.52378,22 -4.69115,18.3571 -10.44618,56.0477 -13.13146,86 -2.22754,24.8466 -2.56598,89.0205 -0.55375,105 3.72433,29.5755 10.05893,49.9675 20.67942,66.57 4.88164,7.6312 16.39694,19.3803 22.74291,23.2046 18.62098,11.2216 46.40009,9.486 73.20592,-4.5737 23.84023,-12.5044 54.55371,-37.0027 93.52231,-74.5974 25.47621,-24.5779 64.93132,-69.2703 90.26702,-102.2491 33.66331,-43.8186 76.44296,-110.9248 121.98671,-191.3544 10.93333,-19.3081 27.27268,-49.1043 34.27309,-62.5 3.73651,-7.15 8.45804,-15.925 10.49231,-19.5 2.03426,-3.575 6.53831,-11.9 10.009,-18.5 3.47069,-6.6 7.75083,-14.7 9.51141,-18 1.76059,-3.3 6.70703,-12.75 10.99209,-21 4.28507,-8.25 9.46339,-17.925 11.50738,-21.5 2.04399,-3.575 5.06529,-8.975 6.714,-12 1.64872,-3.025 7.95234,-14.5 14.00805,-25.5 10.0518,-18.2588 25.87128,-47.7551 40.7604,-76 12.3566,-23.4407 22.03501,-40.4208 28.78417,-50.5 21.92575,-32.7438 36.96706,-50.0427 55.73912,-64.1053 10.8412,-8.1214 19.19047,-11.8579 26.55433,-11.8839 4.57032,-0.016 11.86797,2.764 14.43889,5.5006 3.27325,3.4843 2.29666,7.2555 -5.06567,19.5616 -3.43096,5.7348 -7.01074,11.777 -7.95506,13.427 -0.94432,1.65 -3.29272,5.7 -5.21866,9 -1.92593,3.3 -6.09437,10.95 -9.2632,17 -3.16882,6.05 -8.82666,16.85 -12.57298,24 -9.35228,17.8492 -23.1614,48.0276 -36.3778,79.5 -6.923,16.4858 -19.40908,47.9548 -23.60809,59.5 -1.00017,2.75 -3.46626,9.275 -5.48019,14.5 -3.95721,10.2667 -7.31547,19.5875 -21.34032,59.2297 -28.91645,81.7343 -53.96162,166.4821 -65.24041,220.7605 -13.37985,64.3896 -18.16007,101.3186 -18.25283,141.0098 -0.0463,19.8168 0.20343,23.5137 2.09414,31 3.94706,15.6285 9.24609,24.1708 16.74937,27.001 7.21279,2.7206 19.45831,-1.9093 34.55387,-13.0644 10.87019,-8.0327 19.14346,-15.9974 35.09179,-33.7831 26.61186,-29.6779 43.06546,-51.3236 70.04865,-92.1535 26.73407,-40.4529 35.16328,-54.1066 50.18176,-81.2847 1.50043,-2.7152 3.73849,-9.8517 5.17452,-16.5 9.17304,-42.4677 16.69403,-72.8057 24.10033,-97.2153 3.74706,-12.3495 16.19721,-50.6559 18.36338,-56.5 1.0193,-2.75 5.32606,-14.675 9.57056,-26.5 4.24451,-11.825 8.55402,-23.3878 9.57669,-25.6951 1.02267,-2.3074 1.8594,-4.4793 1.8594,-4.8266 0,-0.3473 1.63973,-4.5345 3.64385,-9.3049 2.00411,-4.7704 5.62767,-13.3984 8.05234,-19.1734 2.42468,-5.775 4.80787,-11.4 5.29599,-12.5 0.48812,-1.1 2.4346,-5.6 4.32551,-10 9.56608,-22.2595 34.09387,-72.1239 47.14691,-95.8486 31.2463,-56.7917 70.8346,-107.4273 102.3765,-130.9451 17.8285,-13.2929 28.288,-18.0831 46.0851,-21.1055 11.6573,-1.9797 15.0677,-1.9953 24.0303,-0.1099 9.1331,1.9212 14.1807,4.5511 20.1046,10.475 10.3466,10.3466 14.2659,22.9395 14.3272,46.0341 0.042,15.8547 -0.9159,22.7756 -5.5369,40 -12.323,45.9328 -33.6353,85.8912 -86.1377,161.5 -26.9394,38.7955 -66.663,88.5839 -111.6988,140 -26.65474,30.431 -47.77958,56.4989 -49.43309,61 -1.64801,4.4861 -13.62721,46.8283 -16.40902,58 -14.69031,58.996 -16.10669,132.9717 -3.13798,163.8926 6.92196,16.5038 15.86574,23.6074 29.72297,23.6074 18.16491,0 35.85422,-9.6214 66.77482,-36.3196 11.614,-10.028 29.131,-27.6027 41.5074,-41.644 4.103,-4.6549 11.285,-12.5313 15.96,-17.503 15.3918,-16.3686 27.889,-32.7601 50.5288,-66.2744 19.192,-28.4103 17.2923,-24.3197 29.1422,-62.7542 7.7621,-25.1761 10.7915,-31.392 17.2183,-35.3296 6.4593,-3.9575 10.5116,-5.1752 17.2224,-5.1752 8.7695,0 16.3567,3.2034 22.5596,9.5249 8.178,8.3343 8.8428,10.1194 8.7415,23.4751 -0.09,11.8696 -2.7617,28.0272 -9.5078,57.5 -2.9471,12.8755 -7.216,31.897 -10.4657,46.6339 -0.9258,4.1987 -1.4868,8.2235 -1.2466,8.9442 0.2402,0.7206 9.1389,-10.3646 19.775,-24.6339 40.441,-54.2557 44.6681,-59.4447 82.1751,-100.8745 15.5671,-17.1952 19.8017,-21.3765 32.3572,-31.95 12.7962,-10.7762 18.6452,-13.7092 27.3945,-13.7368 7.7731,-0.025 10.9994,1.2414 16.0421,6.2949 8.1154,8.1328 10.0944,20.5011 7.5663,47.2884 -2.3457,24.8546 -12.708,80.8509 -18.1133,97.8815 -1.0837,3.4147 1.3666,0.8219 4.655,-4.9256 11.2939,-19.7397 53.7709,-69.4814 66.9554,-78.4065 15.0721,-10.203 31.43,-13.6175 43.5368,-9.0877 13.7998,5.1632 21.3425,13.5464 26.9064,29.9051 5.9644,17.5361 8.0873,36.7536 10.5981,95.9402 1.4668,34.578 5.389,51.8781 13.7334,60.5763 6.6443,6.9261 12.3843,8.1017 23.1684,4.7453 9.4927,-2.9544 19.6698,-9.6013 29.1454,-19.0355 9.4921,-9.4506 13.996,-15.7254 21.7761,-30.3389 6.9902,-13.1298 14.5466,-25.8625 19.9117,-33.5517 2.4297,-3.4823 6.8509,-11.5823 9.825,-18 24.4985,-52.8654 55.2425,-95.532 89.3987,-124.0676 35.3899,-29.5663 59.7304,-42.7762 90.5,-49.1154 14.3259,-2.9515 36.2171,-2.9241 46,0.058 10.7079,3.2636 18.5016,8.0805 25.7613,15.9216 11.9207,12.8756 17.3147,27.3194 16.5691,44.3682 -0.4612,10.5438 -1.9601,14.0391 -8.1737,19.0608 -3.0949,2.5011 -4.7173,3.087 -8.3312,3.0082 -3.7371,-0.081 -5.0794,-0.6895 -8.0247,-3.6347 -3.5143,-3.5143 -3.5419,-3.6107 -4.3328,-15.1353 -1.0226,-14.9003 -2.8178,-20.3173 -8.4554,-25.5138 -6.9802,-6.4342 -10.215,-7.3895 -23.0126,-6.7965 -11.8065,0.547 -17.8517,2.0219 -28.3457,6.9154 -24.6588,11.4989 -48.5701,31.8831 -70.0221,59.6933 -23.6265,30.6291 -37.476,55.5013 -50.1437,90.0528 -6.5842,17.9586 -12.9885,48.5991 -12.9885,62.1419 0,18.0901 9.7401,29.0398 23.8481,26.8096 18.4919,-2.9231 38.5615,-18.1573 71.7131,-54.4349 6.0313,-6.6 13.4497,-15.15 16.4853,-19 13.2356,-16.7867 38.5451,-54.8261 49.9012,-75 11.6406,-20.6794 13.2621,-23.2742 17.7497,-28.4041 5.3819,-6.1524 12.4597,-10.7057 18.9808,-12.211 4.8273,-1.1143 5.4497,-1.0135 11.6405,1.8835 3.5973,1.6833 8.6263,4.9833 11.1756,7.3331 10.7442,9.9037 10.3689,17.2337 -3.1185,60.8985 -19.148,61.9907 -22.74,76.677 -24.553,100.3884 -1.3525,17.6895 -0.2984,27.1297 3.8883,34.8221 5.8234,10.6995 15.9688,11.3862 34.4445,2.3315 8.8339,-4.3294 28.0598,-17.89 39.8444,-28.1033 10.1624,-8.8075 35.8947,-34.7345 45.0976,-45.4387 16.0796,-18.7028 38.0832,-47.8695 53.6992,-71.1807 10.1095,-15.0912 14.9202,-18.3448 22.72,-15.366 4.7315,1.8069 7.4832,5.1032 7.4832,8.964 0,9.0328 -35.5435,60.2099 -67.9168,97.7897 -38.8379,45.084 -86.0054,83.5428 -116.2142,94.7573 -12.8271,4.7618 -30.1922,6.39 -42.0698,3.9447 -8.8642,-1.8249 -19.206,-7.5443 -27.2859,-15.09 -11.229,-10.4866 -17.129,-23.7607 -19.5802,-44.0517 -1.7487,-14.4762 -0.1233,-40.4897 3.6647,-58.6512 1.0033,-4.8105 -0.3585,-3.8625 -7.6184,5.3033 -16.0218,20.2279 -45.3687,51.1421 -59.5663,62.7475 -21.1166,17.2613 -44.1456,26.7698 -64.9131,26.8023 -10.216,0.016 -25.4387,-3.777 -34.7087,-8.6482 -12.7683,-6.7096 -23.1145,-19.8007 -29.2987,-37.0717 -1.5261,-4.2621 -3.1675,-8.1831 -3.6476,-8.7133 -0.5341,-0.5897 -4.0705,2.1906 -9.109,7.1616 -32.3637,31.9297 -70.117,46.8557 -99.756,39.4391 -28.0156,-7.0104 -42.0606,-24.9253 -49.1062,-62.6367 -0.5138,-2.75 -1.3345,-25.25 -1.8237,-50 -0.9746,-49.3095 -2.0362,-63.6849 -5.1881,-70.25 -2.8543,-5.9454 -5.211,-5.673 -12.9557,1.4972 -7.8018,7.2231 -17.4946,19.9981 -33.7856,44.5289 -27.8482,41.9337 -32.8624,50.0149 -47.1744,76.0297 -15.3296,27.8646 -19.8086,33.1402 -30.8677,36.3582 -13.0845,3.8074 -28.7058,-5.1034 -35.9182,-20.4889 -2.496,-5.3243 -2.6526,-6.5095 -2.5348,-19.1751 0.077,-8.245 0.9363,-18.5604 2.2084,-26.5 4.3027,-26.8542 5.0661,-31.3329 7.5857,-44.5 2.7521,-14.3822 7.184,-34.3808 10.5265,-47.5 2.0493,-8.0437 2.7107,-16.5 1.2904,-16.5 -1.3322,0 -27.6198,27.1322 -35.3638,36.5 -19.5581,23.6593 -37.1938,48.3028 -50.0941,70 -1.962,3.3 -9.6208,16.125 -17.0195,28.5 -7.3987,12.375 -15.8461,27 -18.772,32.5 -2.9258,5.5 -7.5493,13.825 -10.2744,18.5 -12.6173,21.6454 -16.2961,24.6046 -29.5353,23.7572 -10.6241,-0.6801 -18.0472,-3.7214 -24.1062,-9.8767 -6.7469,-6.8542 -8.0713,-10.0831 -8.0713,-19.6778 0,-10.6331 3.3438,-36.6143 7.4907,-58.2027 6.2648,-32.6135 6.6971,-35.1455 6.1029,-35.7398 -0.3265,-0.3264 -0.7274,-0.406 -0.891,-0.1769 -0.1635,0.2292 -6.996,8.5167 -15.1833,18.4167 -48.2079,58.2926 -87.8408,94.3329 -129.02706,117.3311 -49.88877,27.8578 -91.35865,23.4853 -116.95219,-12.3311 -5.73275,-8.0226 -11.93023,-19.7501 -14.00412,-26.5 -6.74473,-21.9522 -8.38565,-32.3418 -9.2292,-58.4353 -0.61008,-18.8717 -0.61855,-18.927 -2.5226,-16.5 -2.35934,3.0075 -15.6773,23.6391 -19.6463,30.4353 -5.09863,8.7305 -31.79068,46.233 -41.52305,58.3402 -26.27,32.6803 -63.70459,65.6121 -90.11478,79.2753 -11.22739,5.8085 -29.61559,12.3724 -38.86666,13.8739 -7.95552,1.2912 -24.8841,1.2888 -31.74685,0 -12.21016,-2.3011 -25.97604,-9.3424 -34.38649,-17.5887 -8.79359,-8.6221 -18.68476,-24.0641 -23.60643,-36.8542 -3.99699,-10.3871 -6.86516,-24.3801 -7.98975,-38.9797 -2.08392,-27.0537 1.94676,-75.176 9.59566,-114.5622 5.23913,-26.9777 10.51808,-52.8025 13.59355,-66.5 3.61908,-16.1187 4.27008,-19.9107 3.70783,-21.5974 -0.4392,-1.3176 -9.30779,12.3569 -26.32948,40.5974 -30.2433,50.1764 -45.73646,72.3551 -97.33451,139.3361 -18.66747,24.2328 -65.07929,75.5403 -84.32402,93.2188 -31.60926,29.0368 -67.37594,55.2623 -91.86449,67.3586 -15.02702,7.4226 -33.10378,13.6264 -50.1116,17.1976 -10.0283,2.1058 -15.70493,2.6516 -30.33676,2.9173 -9.9,0.1798 -19.125,0.1138 -20.5,-0.1465 z m 812.5554,-504.9051 c 12.4165,-14.7891 35.618,-44.8151 51.3675,-66.4768 2.1994,-3.025 6.3071,-8.65 9.1282,-12.5 25.0365,-34.1677 49.9951,-76.3343 77.9839,-131.7509 12.4773,-24.7044 16.5002,-34.3454 20.133,-48.2491 4.2484,-16.2599 5.4229,-27.3221 3.8658,-36.4134 -1.683,-9.8272 -4.1591,-12.5306 -10.8584,-11.8557 -10.9007,1.0983 -21.1632,9.358 -32.7487,26.3576 -18.6734,27.3999 -51.9263,92.356 -85.0112,166.0606 -0.7775,1.732 -3.4916,8.257 -6.0313,14.5 -8.2774,20.3467 -9.0533,22.2186 -13.8245,33.3509 -2.593,6.05 -5.3821,12.5352 -6.198,14.4116 -1.9543,4.4944 -13.5762,35.4421 -19.37314,51.5884 -1.57972,4.4 -3.55365,9.8 -4.3865,12 -0.83285,2.2 -1.53403,5.1032 -1.55817,6.4514 -0.0416,2.321 0.15573,2.2399 3.70611,-1.5232 2.0625,-2.1861 8.2749,-9.3642 13.8054,-15.9514 z M 2878.5,2450.4711 c -18.9558,-3.5241 -32.1447,-15.6708 -40.7399,-37.521 -5.5129,-14.0143 -6.2393,-21.8556 -5.7389,-61.9501 0.2506,-20.075 0.4608,-46.4386 0.4672,-58.5858 l 0.012,-22.0858 -2.886,-4.1642 c -1.6852,-2.4315 -3.6829,-4.1642 -4.8012,-4.1642 -4.6479,0 -23.8096,22.255 -46.4944,54 -5.5711,7.7962 -22.6917,33.7805 -41.8391,63.5 -21.9306,34.0396 -24.7928,37.6692 -33.9253,43.0212 -6.2053,3.6366 -13.5877,3.8596 -22.0814,0.667 -9.9803,-3.7514 -16.7489,-11.451 -20.0507,-22.809 -1.9648,-6.7585 -1.4948,-23.2892 1.0343,-36.3792 8.231,-42.6021 10.1702,-51.5033 15.4676,-71 7.2578,-26.7114 10.0113,-40 8.2885,-40 -3.0175,0 -27.2464,25.5343 -42.6994,45 -21.9806,27.6881 -39.0168,52.4091 -59.7628,86.7208 -5.9125,9.7786 -12.7875,20.7042 -15.278,24.2792 -9.7717,14.0274 -12.7472,18.5949 -13.6364,20.9329 -0.5089,1.338 -3.0029,5.558 -5.5422,9.3777 -5.8722,8.8331 -10.1883,11.0488 -21.4135,10.9929 -9.1714,-0.046 -16.3134,-2.8965 -23.2314,-9.2733 -11.4914,-10.5924 -11.367,-23.6107 0.8699,-91.0302 1.2479,-6.875 2.0769,-12.7023 1.8422,-12.9496 -0.2346,-0.2473 -3.2103,2.6777 -6.6127,6.5 -43.6043,48.986 -90.298,84.0506 -128.9433,96.8298 -17.8725,5.9101 -25.3152,7.1198 -43.8047,7.1198 -19.2774,0 -27.803,-1.763 -42,-8.685 -7.0342,-3.4297 -10.1471,-5.7973 -18.0515,-13.7297 -7.8875,-7.9155 -10.2688,-11.066 -13.6698,-18.0853 -7.6082,-15.7028 -10.5954,-32.381 -9.2358,-51.5659 0.4877,-6.8811 1.1066,-12.867 1.3754,-13.3019 0.2688,-0.435 0.9812,-3.9052 1.583,-7.7115 1.216,-7.6919 4.3389,-18.2262 9.5456,-32.2 11.1335,-29.8804 34.6695,-62.8514 63.9877,-89.6387 30.0036,-27.4134 58.6201,-42.3104 87.7903,-45.7012 22.5458,-2.6207 37.2223,3.3181 44.2056,17.8877 11.9957,25.0272 -9.2416,65.5906 -52.5395,100.3511 -21.1444,16.9752 -36.7444,26.467 -61.491,37.4138 -13.1485,5.8163 -17.0818,8.2673 -20.8103,12.9678 -5.2354,6.6004 -6.0425,9.8384 -6.4809,25.9988 -0.6008,22.1488 2.2063,33.6279 10.2464,41.9005 14.6737,15.0981 38.7472,15.1122 69.1929,0.04 8.8766,-4.3943 24.8276,-14.5121 32.2206,-20.4379 36.3747,-29.1553 59.2795,-53.3508 87.0622,-91.9683 11.4341,-15.8931 11.6838,-16.4355 23.4901,-51.0347 12.1424,-35.584 15.6564,-41.7698 26.1479,-46.028 4.7525,-1.9289 6.6844,-2.1697 13.2475,-1.6512 13.7834,1.089 21.4921,4.4444 27.575,12.0026 2.676,3.3249 3.1247,4.7649 3.4418,11.0449 0.2031,4.0207 -0.3362,10.9691 -1.2166,15.6766 -0.8697,4.6503 -2.2697,12.4109 -3.1111,17.2457 -1.6314,9.374 -7.554,33.443 -12.4778,50.7094 -6.3725,22.3463 -8.3239,29.6075 -8.734,32.5 l -0.4254,3 3.0538,-3.5 c 1.6796,-1.925 9.6968,-11.771 17.8159,-21.88 26.6542,-33.1869 31.5077,-39.0201 63.2558,-76.0247 9.6284,-11.2225 20.5581,-24.1594 24.2881,-28.7486 11.3092,-13.9138 20.3348,-22.0042 31.1766,-27.9459 6.2989,-3.4521 7.6788,-3.8177 14.5572,-3.8572 8.8698,-0.051 15.0693,2.5113 20.1915,8.3451 6.3473,7.2293 7.299,10.9264 7.2359,28.1113 -0.082,22.3982 -3.4018,43.877 -15.1223,97.8452 -1.3551,6.2398 -2.2645,11.5444 -2.021,11.788 0.2436,0.2436 1.9512,-1.9368 3.7947,-4.8452 14.5022,-22.8794 54.3607,-68.5876 69.5514,-79.759 5.3379,-3.9255 14.2106,-8.2249 22.7689,-11.0329 10.3091,-3.3825 23.2466,-3.2134 31.1553,0.4074 8.0862,3.7019 11.7908,6.7551 16.2506,13.3931 4.8291,7.1876 8.4487,16.3108 10.7929,27.2034 1.6505,7.6694 1.8402,14.4119 1.9414,69 0.1139,61.4609 0.4104,66.9695 3.9842,74 4.5736,8.9976 15.9604,12.2111 28.409,8.0175 28.3538,-9.5518 64.2161,-48.3425 106.9632,-115.6977 5.8876,-9.2768 11.1942,-14.5395 16.3898,-16.2542 3.0693,-1.013 4.106,-0.8985 7.4875,0.8266 8.3223,4.2457 7.933,9.5455 -2.0276,27.6078 -15.0931,27.3694 -42.3663,64.2968 -65.0147,88.0289 -23.5489,24.6756 -53.8223,44.1883 -76.7464,49.4667 -12.3084,2.8341 -28.8654,3.4525 -39.5,1.4755 z m -529,-160.2847 c 23.6582,-15.3583 51.0945,-40.0899 60.7743,-54.783 7.9887,-12.126 10.834,-18.7967 11.4411,-26.8228 0.5428,-7.1771 0.5396,-7.1882 -2.79,-9.9899 -2.8071,-2.3621 -3.9988,-2.7298 -7.5489,-2.3297 -10.7127,1.2075 -27.6424,12.7252 -42.6074,28.9867 -16.5633,17.9984 -25.7887,31.6459 -36.6732,54.2523 -6.1747,12.8242 -8.7199,20.4316 -7.7133,23.0546 0.5287,1.3778 1.9483,0.9081 9.3702,-3.1001 4.811,-2.5981 11.8972,-6.7688 15.7472,-9.2681 z"
         id="path2" />
    </g>
  </g>
</svg>
