<svg version="1.1" id="Layer_1" xmlns="http://www.w3.org/2000/svg" xmlns:xlink="http://www.w3.org/1999/xlink" x="0px" y="0px"
	 width="100%" viewBox="0 0 1024 480" enable-background="new 0 0 1024 480" xml:space="preserve">
<path fill="#000000" opacity="1.000000" stroke="none" 
	d="
M193.468414,481.000000 
	C183.642685,463.409851 187.555420,446.529968 195.737091,429.879059 
	C208.402817,404.102386 228.182846,384.417633 250.523743,367.220184 
	C289.307251,337.365692 333.673706,318.416840 379.616821,302.825928 
	C396.000916,297.265961 412.585419,292.506104 429.889893,290.256836 
	C453.654114,287.167908 473.836639,293.122192 489.466064,311.779510 
	C492.664978,315.598114 494.872559,315.940918 498.672791,312.592682 
	C512.797913,300.147614 527.177307,287.991241 541.451599,275.715210 
	C542.311523,274.975708 543.353333,274.348083 543.653992,272.553802 
	C541.177185,272.553802 538.766541,272.429474 536.372192,272.573639 
	C518.566345,273.645386 500.661621,274.736572 483.020508,272.036194 
	C474.717346,270.765198 468.186249,272.409851 461.532318,276.595276 
	C456.026215,280.058716 450.101227,282.765411 444.081665,285.230988 
	C440.776215,286.584900 437.191437,288.044647 434.650513,284.257812 
	C432.238800,280.663574 434.359375,277.544800 436.792389,274.862549 
	C441.500702,269.671814 446.558716,264.827576 452.110352,260.539368 
	C488.338379,232.556076 527.409546,209.281342 570.457153,193.710831 
	C588.455933,187.200592 602.402466,175.458649 617.323975,164.881775 
	C660.562622,134.232681 701.562378,100.603638 743.806152,68.626625 
	C771.463196,47.691292 800.230469,28.346395 831.769226,13.539968 
	C835.975464,11.565269 840.453857,10.171429 844.802551,8.499049 
	C847.041382,7.638083 849.368164,7.445288 851.692261,7.851337 
	C856.228699,8.643900 858.076111,12.150411 856.106018,16.320347 
	C854.529297,19.657753 852.191650,22.472158 849.695251,25.194834 
	C835.514465,40.660854 818.464722,52.694271 801.756592,65.094940 
	C787.047363,76.012093 773.288208,88.181885 757.926514,98.228615 
	C756.571960,99.114525 755.581848,100.670616 753.387634,100.603943 
	C752.518860,97.775803 754.498291,96.034462 756.005981,94.280502 
	C763.332825,85.756607 772.290405,79.041870 781.039124,72.122841 
	C798.547119,58.276466 816.843628,45.427998 833.488281,30.487423 
	C837.834595,26.586123 841.836609,22.426184 845.675476,17.036657 
	C839.854004,18.298748 835.038330,20.303637 830.339539,22.558603 
	C802.419067,35.957855 776.973877,53.332794 752.143188,71.641296 
	C714.323059,99.527328 678.198669,129.602142 640.881348,158.143051 
	C622.746704,172.012711 604.489441,185.701965 585.716125,198.683609 
	C578.322327,203.796387 581.105957,210.951767 581.673218,217.305374 
	C582.205200,223.263885 586.895264,226.772430 592.540405,228.471863 
	C595.409607,229.335602 597.168701,227.056473 599.001648,225.450546 
	C618.426575,208.430786 638.171021,191.789444 658.047668,175.300842 
	C708.846252,133.160904 762.468811,95.178040 821.404541,65.156380 
	C844.387512,53.448891 867.246521,41.235027 892.269226,34.231525 
	C905.872375,30.424196 919.643982,27.359221 934.055664,28.565025 
	C952.688049,30.123970 960.846497,44.479420 951.342163,60.615864 
	C941.804626,76.808624 928.531494,90.040253 915.520203,103.438599 
	C886.053955,133.781265 850.449768,155.160034 812.967651,173.742523 
	C763.879395,198.078964 712.956848,217.611237 659.675171,230.616913 
	C640.444092,235.311081 621.037476,239.544281 600.971802,238.039169 
	C599.737000,237.946548 598.675842,238.119507 597.722839,238.935318 
	C588.135437,247.142181 578.542236,255.342194 567.807800,264.521423 
	C578.734985,263.775513 588.124878,263.105835 597.518860,262.499878 
	C612.142151,261.556519 626.757263,260.393524 641.395020,259.784515 
	C698.644714,257.402496 755.904663,255.300842 813.221191,255.732040 
	C816.051086,255.753326 818.381104,254.778244 820.693298,253.364609 
	C835.049622,244.587494 849.380432,235.766861 863.823669,227.134781 
	C867.709229,224.812592 871.607422,222.164917 876.812439,222.646500 
	C862.002319,234.365372 845.330383,243.361603 830.225037,255.016479 
	C832.298340,256.131683 834.144165,255.666504 835.897888,255.668884 
	C861.062927,255.703033 886.228638,255.593933 911.392578,255.763443 
	C916.121399,255.795303 920.111206,254.502701 924.125854,252.222183 
	C932.085632,247.700699 939.308105,241.923264 947.805969,238.331818 
	C949.014038,237.821228 950.264709,237.411377 951.914062,237.542007 
	C946.021057,244.533539 937.297913,247.904266 929.656372,254.656113 
	C959.573975,255.404129 988.581360,252.748886 1018.429504,253.892563 
	C1015.661011,258.168213 1011.874817,258.745117 1008.559692,259.221008 
	C996.017029,261.021576 983.336121,260.949646 970.694397,261.248413 
	C953.872498,261.645996 937.047424,261.909668 920.223022,262.194092 
	C918.186401,262.228516 916.284058,262.490662 914.484314,263.556854 
	C899.714172,272.307220 885.057678,281.258301 871.525635,291.851562 
	C862.099487,299.230591 855.664307,308.904572 852.337341,320.442963 
	C850.165466,327.975769 851.892212,331.356689 858.926575,334.955383 
	C860.031067,335.520416 861.615356,335.655396 861.724121,337.678375 
	C857.312744,339.489594 853.354309,338.495270 849.777588,335.597290 
	C845.480835,332.115936 844.054138,327.445862 845.083252,322.163849 
	C847.007629,312.287048 851.576233,303.656525 858.246765,296.177002 
	C869.062683,284.049438 882.459961,275.407837 896.741577,267.989105 
	C899.662537,266.471863 902.548584,264.887634 905.263977,262.301392 
	C903.026978,262.301392 900.789917,262.297577 898.552856,262.301971 
	C873.557739,262.351074 848.562622,262.425049 823.567505,262.416473 
	C820.935974,262.415558 818.651489,263.037384 816.585449,264.614594 
	C803.535706,274.576599 791.835449,285.911987 781.997314,299.076508 
	C777.203003,305.491821 777.703674,307.529419 784.645325,311.523712 
	C782.261414,314.009613 779.440002,313.652039 776.896606,312.815125 
	C773.838013,311.808624 772.065186,309.387909 771.742004,306.071350 
	C771.380127,302.356812 772.860779,299.217499 774.904114,296.301300 
	C782.403442,285.598663 791.158997,276.042969 801.205139,267.676697 
	C802.839783,266.315460 804.471008,264.950165 806.620239,263.155579 
	C800.434937,261.819244 794.820251,262.437347 789.271057,262.483612 
	C773.610962,262.614258 757.952820,263.163788 742.293579,263.176422 
	C713.803528,263.199432 685.340088,264.351990 656.893066,265.512604 
	C625.965210,266.774384 595.025879,268.210510 564.178589,271.051300 
	C560.905212,271.352783 558.552429,272.786926 556.265991,274.758453 
	C538.857300,289.769501 521.510681,304.853638 503.993530,319.736969 
	C500.755280,322.488342 500.202423,324.548035 503.135071,327.862976 
	C506.434113,331.592102 509.008728,335.926727 512.585022,339.476654 
	C516.068481,342.934418 520.774658,344.255707 525.528687,346.557007 
	C523.190918,349.408203 520.727722,349.196594 518.333069,348.836761 
	C508.779144,347.401184 500.727478,342.899689 493.803131,336.339966 
	C492.503418,335.108704 491.832062,333.214203 490.657135,331.272827 
	C421.804626,386.799316 354.475006,441.343323 276.262634,480.781067 
	C264.312439,481.000000 252.624878,481.000000 240.733276,480.732269 
	C266.719360,473.482910 290.182007,460.494873 313.286407,446.904846 
	C364.208466,416.952515 412.258728,382.855591 457.992126,345.475464 
	C466.206543,338.761414 474.458923,332.093781 483.338928,324.880615 
	C474.823669,316.512482 467.112823,308.350159 455.664703,305.166565 
	C440.519196,300.954803 425.615540,303.333466 410.791260,306.840820 
	C370.717407,316.322144 332.766571,331.613556 296.005768,349.851257 
	C267.090363,364.196655 241.175858,382.584808 221.139771,408.505188 
	C211.513077,420.959137 202.345062,433.449646 198.063705,448.967621 
	C193.881287,464.126923 199.381378,475.529846 211.863495,480.043060 
	C212.300537,480.201080 212.623749,480.673889 213.000000,481.000000 
	C206.645599,481.000000 200.291214,481.000000 193.468414,481.000000 
M685.481445,163.007797 
	C658.841858,184.220856 633.729675,207.185913 607.403931,230.131912 
	C613.855042,231.372269 619.080627,230.008804 624.234314,229.266037 
	C651.478821,225.339447 678.031616,218.430313 704.136658,209.817581 
	C752.662109,193.807877 799.244263,173.292282 843.815002,148.334351 
	C868.835266,134.323944 893.319824,119.432907 913.234436,98.252472 
	C924.646179,86.115257 936.304626,74.168350 945.173035,59.953583 
	C953.005615,47.399185 947.359863,36.612232 932.566223,35.351440 
	C930.743408,35.196095 928.905457,35.195648 927.073853,35.169113 
	C913.431030,34.971474 900.238037,37.777790 887.387329,41.916157 
	C865.274353,49.037235 844.783875,59.881031 824.211609,70.474869 
	C774.693237,95.974754 729.213928,127.544052 685.481445,163.007797 
M544.562195,227.100815 
	C523.852661,240.616013 502.811401,253.599716 481.292114,265.939575 
	C482.600891,267.905640 484.203827,267.537476 485.617706,267.691711 
	C506.429993,269.962158 527.158752,267.616028 547.907349,266.507935 
	C550.045532,266.393738 552.264099,266.030212 553.990845,264.540894 
	C565.052612,254.999619 576.092712,245.433243 587.665527,235.420395 
	C576.817322,228.745621 573.102478,219.100769 575.247864,206.481903 
	C564.694702,213.571854 554.927063,220.134109 544.562195,227.100815 
M557.540710,206.343857 
	C557.426636,206.084991 557.343628,205.803497 557.180786,205.580139 
	C557.127319,205.506775 556.849976,205.540909 556.703796,205.598724 
	C543.373657,210.868668 530.735596,217.544617 518.250793,224.532486 
	C496.782074,236.548782 476.104492,249.720795 457.636963,266.181946 
	C464.630737,262.818695 471.457855,259.169647 478.165039,255.312119 
	C504.981506,239.889069 531.566284,224.085297 557.540710,206.343857 
z"/>
<path fill="#000000" opacity="1.000000" stroke="none" 
	d="
M324.986115,299.926880 
	C353.452271,286.958893 380.699036,272.653320 404.744568,252.938644 
	C414.047211,245.311447 422.890442,237.234192 429.126160,226.732742 
	C438.578827,210.813736 435.728363,197.454025 420.960297,186.170258 
	C404.297333,173.438629 385.139404,167.377411 364.792969,164.309677 
	C332.930573,159.505630 301.100189,160.061935 269.341309,165.291794 
	C262.306854,166.450195 255.594330,168.636383 249.525650,172.656921 
	C251.424072,176.969116 256.830963,175.055756 258.498199,178.817276 
	C254.172943,181.080811 248.286942,179.742813 246.208405,176.159866 
	C244.296448,172.864059 245.786133,169.063232 250.497314,166.365967 
	C258.619934,161.715546 267.806244,160.313858 276.814453,159.047943 
	C312.007355,154.102341 347.153564,154.033157 382.063171,161.626968 
	C396.700439,164.810974 410.278839,170.527466 422.730591,178.928955 
	C440.971039,191.236221 445.371582,210.479919 434.316071,229.444153 
	C424.500427,246.281570 410.069061,258.490082 394.450989,269.502319 
	C367.926941,288.204346 339.045135,302.691162 309.835785,316.579315 
	C267.516846,336.700745 224.185226,354.254486 179.341812,367.958618 
	C150.499527,376.772827 121.320625,384.294342 91.321007,387.788086 
	C72.155304,390.020081 53.024502,389.347076 34.928677,381.321655 
	C14.931820,372.453156 5.211562,356.533417 3.712608,335.123810 
	C2.115788,312.316406 8.744749,291.216187 18.066265,270.964417 
	C36.154377,231.666519 62.908047,199.499802 98.915390,175.195541 
	C115.674515,163.883453 134.273468,158.132965 154.240234,157.113739 
	C166.537537,156.486008 177.534729,160.794205 186.380356,169.593155 
	C191.860947,175.044815 197.222534,180.685852 200.377289,188.275513 
	C197.813019,189.326477 196.597717,187.980743 195.555252,186.858475 
	C193.180176,184.301575 190.840500,181.687149 188.737228,178.906418 
	C175.426895,161.308777 157.275787,156.526718 137.522079,166.424332 
	C115.874336,177.270905 95.208778,189.856079 77.306458,206.342163 
	C51.341576,230.252975 30.888748,258.122894 18.566980,291.471313 
	C14.330352,302.937561 11.624739,314.865570 12.620675,327.166260 
	C13.992721,344.112152 24.645618,354.503113 38.990795,361.503540 
	C48.786232,366.283691 59.306446,368.608063 70.337532,368.872650 
	C89.729546,369.337799 108.807396,366.699890 127.974052,364.298615 
	C193.262100,356.119110 253.542145,332.417542 312.825226,305.484558 
	C316.768402,303.693115 320.703827,301.884705 324.986115,299.926880 
z"/>
<path fill="#000000" opacity="1.000000" stroke="none" 
	d="
M699.008667,288.875122 
	C702.108826,287.011993 705.371643,283.676178 708.138611,286.740906 
	C710.706970,289.585724 706.473511,291.788849 704.934204,294.100281 
	C702.999207,297.005920 700.742065,299.701996 698.884521,302.652527 
	C697.451965,304.928009 696.245911,307.641052 698.058533,310.135681 
	C699.958252,312.750153 702.850586,311.760773 705.436890,311.202911 
	C718.866577,308.306061 730.654968,301.892487 741.821045,294.157349 
	C742.231689,293.872925 742.630737,293.571381 743.029419,293.270142 
	C744.558350,292.114838 746.222046,291.124237 748.012268,292.510284 
	C750.097961,294.125122 749.118713,296.130005 748.217224,297.923615 
	C746.498962,301.342743 744.611328,304.676697 742.889160,308.093994 
	C738.644348,316.517212 739.150818,317.476440 748.285828,318.781586 
	C748.867004,318.864594 749.415894,319.173065 750.674744,319.627533 
	C746.229004,322.593231 741.813599,323.418365 738.170776,320.816559 
	C731.568787,316.101196 735.418457,309.445953 736.289001,302.976105 
	C730.656921,306.173828 725.356140,309.159912 720.078796,312.186829 
	C715.370667,314.887268 710.062683,315.782043 704.916748,317.028046 
	C700.831848,318.017151 696.931702,317.023651 694.072327,313.578949 
	C691.197021,310.115143 691.146362,306.292328 692.878052,302.324341 
	C693.606079,300.656128 694.416260,299.023804 695.882446,295.896240 
	C692.719238,297.832001 690.687134,299.019440 688.711121,300.293884 
	C675.809021,308.615265 662.425171,316.048889 648.174561,321.800385 
	C644.104675,323.442993 639.641846,325.934784 635.445862,322.419861 
	C631.418152,319.045898 633.385437,314.389709 633.846863,310.210571 
	C634.096741,307.947632 634.870667,305.742554 635.506165,303.104797 
	C632.697998,303.237885 630.886108,304.759674 628.963806,305.873962 
	C617.875732,312.301147 607.043579,319.209106 595.002991,323.829712 
	C590.943726,325.387482 586.821472,326.594147 582.375061,326.353333 
	C575.373535,325.974152 572.230469,320.807373 575.552612,314.608185 
	C579.819519,306.645935 586.196228,300.500366 593.654846,295.624756 
	C607.803467,286.375977 622.931763,279.133362 639.209351,274.369751 
	C644.237183,272.898376 649.313171,272.274567 654.504028,272.698456 
	C658.844055,273.052856 662.162292,275.176849 663.702209,279.309174 
	C665.027893,282.866791 666.597961,286.603394 663.899536,290.634430 
	C662.020691,288.653290 662.753479,286.447571 661.929016,284.625610 
	C659.459717,279.168915 653.691895,275.758545 646.992188,277.583008 
	C625.793640,283.355560 605.532654,291.276855 589.029663,306.499237 
	C585.033752,310.185059 581.315308,314.240936 579.441650,319.907532 
	C582.884766,321.848938 585.874573,320.576599 588.719727,319.526306 
	C599.547729,315.529083 609.450317,309.671967 619.424194,303.969421 
	C627.372925,299.424866 635.243652,294.735107 643.568665,290.887024 
	C645.036865,290.208405 646.433105,289.080872 648.760193,290.050903 
	C646.389587,298.496674 644.000793,307.007294 641.302673,316.619904 
	C662.797302,310.920349 680.446899,299.361176 699.008667,288.875122 
z"/>
<path fill="#000000" opacity="1.000000" stroke="none" 
	d="
M581.185669,90.982056 
	C577.519775,110.471809 565.424377,124.366280 552.793091,138.025848 
	C536.873535,155.241333 518.680725,169.660477 499.270752,182.668427 
	C493.330078,186.649658 487.597321,190.939789 481.713318,195.007416 
	C479.627167,196.449600 477.703461,198.443604 474.972626,198.316681 
	C474.242767,196.981079 474.833771,196.388626 475.422760,195.799271 
	C499.686127,171.519592 521.957581,145.472565 543.249207,118.597862 
	C552.436218,107.001854 562.704590,96.812630 575.232361,88.907417 
	C578.066406,87.119041 580.354309,85.938293 581.185669,90.982056 
z"/>
<path fill="#000000" opacity="1.000000" stroke="none" 
	d="
M934.096436,279.565430 
	C939.779053,280.744904 945.063354,281.723572 947.480835,287.581757 
	C948.152344,289.209076 950.036621,288.947998 951.488831,289.028656 
	C961.006104,289.557343 969.627441,293.024628 978.089233,297.036224 
	C980.039551,297.960815 980.036316,297.967590 982.049866,300.781311 
	C979.891174,302.551788 977.579773,301.332001 975.478699,300.986786 
	C967.277893,299.639526 959.118042,298.045441 950.927063,296.635193 
	C946.567261,295.884552 942.871338,296.563873 938.875244,299.379883 
	C924.632874,309.416138 908.992676,316.138367 891.183228,316.541626 
	C886.638306,316.644531 882.156006,316.384979 878.156067,313.918823 
	C874.485962,311.656036 873.652832,308.246399 875.705261,304.462402 
	C878.670593,298.994904 894.750977,291.876740 901.220276,293.338074 
	C900.674805,295.796997 898.391724,295.899506 896.737183,296.629761 
	C891.709351,298.848724 886.569580,300.845825 882.039734,304.026337 
	C880.549438,305.072723 878.917358,306.357819 879.376892,308.470551 
	C879.880676,310.786469 881.931458,311.429688 883.984314,311.613647 
	C902.359192,313.260223 918.060120,306.570892 933.518372,295.918335 
	C926.925171,294.443268 921.042419,294.300964 915.629761,292.231232 
	C912.156189,290.902985 907.502808,289.987030 908.009644,285.020630 
	C908.495178,280.262268 913.032471,279.572601 916.771790,279.071442 
	C922.381897,278.319550 928.066162,278.220673 934.096436,279.565430 
M930.765747,287.508972 
	C933.004761,287.706757 935.243774,287.904510 937.482849,288.102295 
	C932.679138,286.115204 927.721619,285.704712 922.643250,286.357849 
	C925.077881,286.687164 927.512451,287.016449 930.765747,287.508972 
z"/>
<path fill="#000000" opacity="1.000000" stroke="none" 
	d="
M677.138184,372.737488 
	C676.032959,369.714935 675.078003,367.054504 674.129456,364.391785 
	C672.655945,360.255005 672.091064,355.523682 666.651794,353.675873 
	C672.651672,352.263519 678.227722,352.625580 684.301636,353.228455 
	C678.843384,356.205597 680.667297,359.969696 682.145996,363.932251 
	C684.810364,371.072296 687.189087,378.318970 689.769226,385.757935 
	C697.146729,369.474701 700.733765,363.183838 688.768555,353.221558 
	C695.323975,353.221558 701.170349,353.221558 708.694885,353.221558 
	C701.173218,356.457886 703.339050,360.790375 704.983887,365.186768 
	C707.481445,371.862274 709.783875,378.610779 712.690796,386.797333 
	C716.201233,376.543152 719.276367,367.655090 722.278442,358.742432 
	C723.404114,355.400543 719.556824,355.623383 718.110779,353.492401 
	C722.732422,351.858856 727.049866,352.927368 731.575562,352.737335 
	C721.768311,365.493591 720.210876,381.073425 714.214050,394.829376 
	C713.331787,396.853271 713.424622,399.490662 710.325378,401.012268 
	C705.826538,392.512665 704.010864,382.997742 699.624023,373.928345 
	C695.035889,382.916870 693.596619,392.585236 688.185059,402.003235 
	C683.424500,391.867645 680.927917,382.255432 677.138184,372.737488 
z"/>
<path fill="#000000" opacity="1.000000" stroke="none" 
	d="
M278.887756,222.925873 
	C255.311005,240.505356 230.744095,255.910446 205.682556,272.029205 
	C204.707352,266.622803 207.781708,264.743378 210.105682,262.678925 
	C219.098587,254.690155 228.964600,247.862961 239.109711,241.436874 
	C260.927765,227.617035 281.487061,211.891953 303.736694,198.735626 
	C306.444489,197.134491 309.311005,194.257919 313.572968,197.435349 
	C301.839966,206.058014 290.508179,214.385849 278.887756,222.925873 
z"/>
<path fill="#000000" opacity="1.000000" stroke="none" 
	d="
M828.022095,399.242889 
	C825.309021,400.095276 822.993530,402.483246 820.557373,399.340271 
	C819.778320,398.335236 818.756409,399.321594 817.854370,399.635284 
	C807.129639,403.365234 797.433533,395.051941 799.007385,383.487823 
	C800.653320,371.393768 807.169128,366.252838 819.883423,367.016632 
	C822.172546,360.760437 821.339172,357.549805 816.443481,354.969177 
	C818.743103,352.178284 822.039917,351.397797 825.070068,350.679901 
	C828.578186,349.848846 828.069824,352.950745 828.082092,354.948242 
	C828.153809,366.598999 828.147888,378.250488 828.097717,389.901459 
	C828.084473,392.979645 828.350220,395.696411 832.421143,395.618500 
	C832.056152,398.387665 829.708313,398.118347 828.022095,399.242889 
M820.924438,382.602539 
	C820.825439,379.638428 821.286560,376.610077 819.822571,373.809967 
	C817.797607,369.936951 813.317688,368.942627 810.255554,371.707336 
	C804.691956,376.730530 805.179016,389.607819 811.073547,394.295624 
	C813.245117,396.022675 815.586365,396.266205 818.083618,395.309052 
	C820.507751,394.379944 820.944031,392.319183 820.917053,390.021881 
	C820.891724,387.864838 820.919434,385.707184 820.924438,382.602539 
z"/>
<path fill="#000000" opacity="1.000000" stroke="none" 
	d="
M806.439148,293.463501 
	C801.690002,296.146637 797.156982,298.533539 794.387329,303.439514 
	C797.320740,305.402130 799.846375,304.594360 802.377319,303.865112 
	C814.765869,300.295502 826.252258,294.621613 837.671997,288.782928 
	C839.920593,287.633270 842.530273,285.139374 844.547913,288.592407 
	C846.397949,291.758453 844.018921,293.903412 841.479675,295.461517 
	C838.190857,297.479584 835.182739,299.716675 833.441650,303.151672 
	C834.557861,305.991913 837.879517,304.638031 839.252563,306.647491 
	C834.382568,310.608337 829.545654,309.066254 826.415527,302.363068 
	C820.884888,304.462311 815.350586,306.635223 809.762268,308.658722 
	C806.007446,310.018311 802.177002,311.188934 798.126770,311.273438 
	C793.919128,311.361206 789.815674,310.680054 788.177429,306.244019 
	C786.585266,301.933075 789.505981,299.003937 792.503784,296.462372 
	C798.316040,291.534424 805.177185,288.511810 812.282471,286.050995 
	C815.570190,284.912354 819.001526,284.174896 822.389709,283.345215 
	C824.192871,282.903687 825.997192,282.856415 828.345825,285.167725 
	C820.461609,287.269928 813.437012,289.868164 806.439148,293.463501 
z"/>
<path fill="#000000" opacity="1.000000" stroke="none" 
	d="
M732.018433,373.189209 
	C738.291687,365.961151 746.794495,364.668365 753.470032,369.644684 
	C760.817566,375.121948 762.222229,385.827698 756.699219,394.257050 
	C752.253113,401.042938 744.114319,403.129944 737.054321,399.294464 
	C728.703857,394.757935 726.440308,383.625671 732.018433,373.189209 
M744.231079,370.318054 
	C740.795532,370.061615 738.331238,371.584534 737.320190,374.790710 
	C735.103577,381.820129 735.760315,388.616150 740.265076,394.604797 
	C743.136597,398.422150 747.597351,398.338898 750.412048,394.824738 
	C755.411072,388.583282 752.186646,374.100739 744.231079,370.318054 
z"/>
<path fill="#000000" opacity="1.000000" stroke="none" 
	d="
M766.412598,393.301239 
	C763.671631,388.207123 763.056641,383.315918 764.888062,378.109863 
	C767.516479,370.638275 773.296021,366.345551 780.528931,366.727142 
	C787.838318,367.112732 793.471924,372.336090 795.045410,380.186584 
	C796.559204,387.738861 792.065918,396.988525 785.512085,399.811523 
	C778.246460,402.941101 771.581421,400.760773 766.412598,393.301239 
M787.676575,383.759094 
	C787.643250,379.800812 786.521240,376.142548 784.095337,373.049835 
	C780.590271,368.581329 774.544495,369.407532 772.531616,374.716858 
	C770.000427,381.393280 771.152100,387.858337 774.796753,393.835236 
	C776.240967,396.203613 778.606628,397.791656 781.522034,397.294189 
	C784.356140,396.810547 786.073486,394.794891 787.027100,392.050812 
	C787.876831,389.605988 787.628418,387.116302 787.676575,383.759094 
z"/>
</svg>