<svg xmlns="http://www.w3.org/2000/svg" viewBox="-80 -20 340 210" width="100%" preserveAspectRatio="xMidYMid meet">
  <path fill="#c9a66b" d="m -50.489834,179.22196 c -5.28453,-1.1391 -9.41281,-5.11055 -10.4787,-10.08064 -0.44437,-2.07204 -0.15121,-7.32456 0.54563,-9.77585 0.73881,-2.59896 3.5161,-8.32018 5.61668,-11.57038 6.28602,-9.72627 17.67569,-19.95901 30.90702,-27.76759 5.41283,-3.19443 5.7758,-3.39337 10.35658,-5.67623 8.3293901,-4.15103 19.6311201,-8.86535 28.008,-11.68308 10.29541,-3.463063 16.30016,-4.998252 21.96042,-5.614454 4.60143,-0.500932 7.34768,-0.495313 10.06736,0.0206 5.06708,0.961207 8.2426,2.785781 12.88159,7.401424 l 3.23749,3.22121 4.32687,-3.73294 c 2.37978,-2.05311 7.21152,-6.215268 10.73719,-9.249228 3.52568,-3.03396 6.37249,-5.548107 6.32626,-5.586993 -0.0462,-0.03889 -1.33421,0.02496 -2.86218,0.141878 -9.63588,0.737328 -20.50065,0.554294 -25.24805,-0.425344 l -1.83243,-0.378124 -4.64986,2.492885 c -5.12187,2.745936 -8.48069,4.1824 -9.49348,4.060076 -0.36317,-0.04386 -0.90054,-0.402966 -1.19417,-0.798007 -0.95542,-1.285408 -0.37852,-2.331809 3.19393,-5.793235 8.71301,-8.442227 27.04451,-19.942301 43.67808,-27.400976 5.29159,-2.372808 9.4561,-3.961314 10.93349,-4.17046 1.35485,-0.191797 3.811054,-1.780421 13.452074,-8.700515 11.82662,-8.48887 35.72125,-26.65547 45.64063,-34.69964 7.50889,-6.08937 21.87147,-16.25833 29.23646,-20.69992 11.43102,-6.89369 19.9596,-10.78182 22.57402,-10.29135 1.10925,0.2081 2.03341,1.05601 2.02974,1.86226 -0.005,1.16472 -1.76685,3.55584 -4.99934,6.78607 -3.79933,3.79667 -5.79856,5.43766 -15.76796,12.9425 -3.92907,2.95775 -7.97719,6.05186 -8.99584,6.8758 -3.4383,2.78111 -6.60478,5.18296 -8.46666,6.42216 -1.01865,0.67798 -2.23904,1.55023 -2.71198,1.93834 -0.55771,0.45768 -0.85661,0.57752 -0.85052,0.34103 0.0474,-1.84255 5.69409,-6.92066 18.37595,-16.52557 6.96454,-5.27476 11.13558,-8.67957 14.69102,-11.99224 2.64151,-2.46114 5.24225,-5.4508 4.97457,-5.71848 -0.17782,-0.17782 -4.17409,1.31493 -6.96238,2.60069 -12.79473,5.90004 -29.35483,17.35473 -56.48854,39.07335 -3.48676,2.7909 -21.80351,17.03462 -27.23986,21.18262 -1.2302,0.938661 -5.57451,4.098585 -9.65402,7.022055 l -7.417294,5.315398 -0.21526,1.166893 c -0.34264,1.857348 -0.0896,5.529007 0.45422,6.590851 0.77687,1.516892 2.271494,2.873685 3.792484,3.442761 l 1.41371,0.528939 2.71164,-2.316579 c 1.4914,-1.274119 4.25336,-3.671415 6.13769,-5.327325 9.36171,-8.226854 26.99929,-22.633793 35.31628,-28.847483 5.87636,-4.39026 21.54657,-15.06588 27.57483,-18.78587 9.6478,-5.95355 22.37355,-12.71707 33.40371,-17.7535 2.61937,-1.19602 5.5364,-2.53192 6.48229,-2.96868 5.73862,-2.64976 15.94222,-5.18373 21.84547,-5.42513 6.82716,-0.27919 10.01015,0.98731 11.69811,4.65462 0.94131,2.0451 0.7658,4.75927 -0.46438,7.18158 -1.89285,3.72714 -8.29062,11.46491 -14.95524,18.08758 -11.06325,10.99359 -20.94042,17.86114 -39.55521,27.502529 -18.11829,9.384224 -44.60548,19.394702 -62.76338,23.720577 -9.92846,2.36532 -15.72762,3.250952 -21.53209,3.288319 l -4.52359,0.02912 -5.765424,5.027084 c -3.17098,2.764896 -6.07646,5.302806 -6.45662,5.6398 l -0.6912,0.612717 2.11667,-0.150086 c 1.16417,-0.08255 4.37886,-0.322473 7.143754,-0.533168 18.45072,-1.406009 42.94587,-2.359807 72.76042,-2.83316 l 19.84375,-0.315052 2.64583,-1.587432 c 1.45521,-0.873088 3.30068,-2.024723 4.10104,-2.559189 5.21096,-3.479765 15.86663,-9.519222 16.79517,-9.519222 0.89538,0 0.25283,0.571122 -2.8384,2.522881 -1.78263,1.125529 -6.30064,4.084184 -10.04002,6.574789 l -6.79889,4.528372 18.41468,0.06796 18.41468,0.06796 2.01025,-1.098774 c 1.10563,-0.604325 3.37946,-1.962342 5.05295,-3.017815 2.47849,-1.563187 6.14068,-3.559949 6.52918,-3.559949 0.047,0 0.0854,0.116103 0.0854,0.258008 0,0.141904 -2.27968,1.779013 -5.06596,3.63802 l -5.06596,3.380013 3.28002,0.08344 c 1.80402,0.04589 8.16159,-0.04355 14.12795,-0.198765 13.22562,-0.344066 19.44687,-0.358496 19.44687,-0.04511 0,0.130046 -0.80297,0.557897 -1.78437,0.95078 -2.3904,0.956945 -4.56966,1.092249 -23.61563,1.466235 l -15.47812,0.303927 -3.82939,2.273337 c -4.76033,2.826 -11.08373,7.012557 -13.96171,9.243696 -5.49837,4.262571 -9.77764,11.791081 -8.78902,15.462521 0.35154,1.30552 1.69478,2.65092 3.11444,3.11945 0.60961,0.20119 1.10838,0.46581 1.10838,0.58804 0,0.12222 -0.69106,0.22223 -1.5357,0.22223 -1.2384,0 -1.76884,-0.14786 -2.73999,-0.76374 -2.8251,-1.79162 -3.03302,-5.17381 -0.63118,-10.26702 2.97374,-6.305979 8.74744,-11.404397 19.38574,-17.118442 2.36083,-1.268047 4.35509,-2.406941 4.43168,-2.530876 0.0766,-0.123936 -8.04624,-0.162529 -18.05074,-0.08576 l -18.19001,0.139575 -0.92605,0.680336 c -5.16831,3.797012 -12.26218,10.985922 -14.78456,14.982627 -1.36512,2.16304 -0.97451,3.64698 1.08154,4.10878 l 0.87073,0.19557 -0.74483,0.30239 c -2.23259,0.90642 -4.41901,-0.54341 -4.41196,-2.92561 0.001,-0.48017 0.28021,-1.46834 0.61954,-2.19595 1.3479,-2.890278 7.72084,-9.946042 12.09553,-13.391494 l 2.14548,-1.689755 -8.02688,-0.08397 c -16.56444,-0.173294 -58.21033,1.043939 -75.23105,2.198864 -13.392844,0.908759 -17.495264,1.262473 -17.846284,1.538719 -0.22025,0.173328 -2.24806,1.925236 -4.50625,3.893129 -2.25819,1.967893 -6.12986,5.312289 -8.60371,7.431987 -9.33259,7.99655 -11.11449,9.54751 -11.18461,9.73505 -0.10206,0.27294 3.2117,4.66933 4.67181,6.19814 1.22603,1.28372 2.73657,2.20525 4.60827,2.81138 1.6379,0.53041 1.05181,0.94074 -1.29656,0.90774 -1.64389,-0.0231 -2.45805,-0.18512 -3.81037,-0.75824 -2.39765,-1.01615 -5.13759,-2.84407 -6.77126,-4.51738 l -1.38346,-1.41703 -3.794,3.0694 c -20.36147,16.47269 -28.22661,22.52605 -41.70185,32.09557 -23.7685899,16.8794 -43.62145,27.80115 -55.10072,30.31284 -2.24525,0.49127 -9.08488,0.74123 -10.70809,0.39134 z m 8.88313,-4.92699 c 8.20128,-1.55576 20.02275,-7.01898 35.2347801,-16.28356 18.4143499,-11.2149 35.2943299,-23.18076 54.0425099,-38.30963 2.61938,-2.11371 6.16466,-4.9714 7.8784,-6.35044 l 3.1159,-2.50733 -1.5284,-1.55883 c -2.31008,-2.35606 -5.56268,-4.88507 -7.44323,-5.78737 -4.31791,-2.07175 -11.06693,-2.34759 -18.69142,-0.76395 -12.23287,2.54082 -28.4449399,8.33955 -44.97917,16.08816 -9.64115,4.51824 -18.34869,10.07299 -25.35128,16.17222 -4.78305,4.16601 -12.78479,14.10218 -15.38155,19.10005 -2.23023,4.29244 -3.08206,6.9637 -3.24178,10.16597 -0.11477,2.30079 -0.0544,2.85111 0.46267,4.21995 1.07854,2.85503 3.53334,4.85489 7.13173,5.81001 1.94255,0.51561 6.04606,0.51784 8.75084,0.005 z m 93.12336,-88.841189 c 12.02488,-6.670236 23.35684,-13.518533 36.39214,-21.993043 5.04464,-3.279616 5.82283,-3.859806 4.34408,-3.238781 -12.31543,5.172073 -22.07505,10.369765 -32.41146,17.261404 -5.95509,3.970468 -14.85463,10.93336 -14.01331,10.963842 0.15081,0.0055 2.71065,-1.341576 5.68855,-2.993422 z m 29.93985,2.09771 c 2.57496,-0.206049 4.85616,-0.473525 5.06933,-0.59439 0.21316,-0.120865 2.1497,-1.767568 4.30342,-3.659339 2.15372,-1.89177 5.28987,-4.616875 6.96922,-6.055789 1.67935,-1.438913 3.086214,-2.698318 3.126364,-2.798679 0.0401,-0.100361 -0.19798,-0.307828 -0.52917,-0.461039 -1.312684,-0.607254 -3.114554,-2.523448 -3.929464,-4.178777 -0.80919,-1.643702 -0.83032,-1.77672 -0.73313,-4.61628 0.055,-1.608096 0.0586,-2.92381 0.008,-2.92381 -0.0507,0 -2.13613,1.409601 -4.63441,3.132446 -8.7495,6.033772 -18.77647,12.41019 -28.76107,18.289927 -6.48783,3.820554 -6.22495,3.65233 -6.02303,3.854245 0.66942,0.669426 16.81953,0.676806 25.13395,0.01148 z M 113.8499,72.463757 c 3.898,-0.459678 7.70627,-1.159332 13.96335,-2.565345 18.20582,-4.090981 40.31646,-12.190165 61.0003,-22.344565 11.20189,-5.49938 17.07946,-8.74608 26.206,-14.47584 5.22013,-3.27727 5.25114,-3.29914 9.78958,-6.90608 7.83719,-6.22862 19.8265,-19.76925 21.70361,-24.51189 0.72303,-1.82677 0.6436,-4.36242 -0.17147,-5.47349 -0.71381,-0.97304 -2.79782,-2.3636 -4.1603,-2.77596 -1.60533,-0.48586 -7.93876,-0.38499 -11.15413,0.17765 -6.74842,1.18088 -11.84849,2.82319 -19.18229,6.17702 -12.39621,5.66894 -21.99909,10.72144 -32.27917,16.9835 -6.50888,3.96485 -9.01265,5.61507 -17.5216,11.54837 -9.98643,6.96355 -15.96714,11.55485 -27.85444,21.383432 -4.81576,3.98174 -26.28732,22.726697 -26.30856,22.967724 -0.0271,0.307673 2.44283,0.231318 5.96912,-0.184526 z m 26.06341,65.668893 c -2.95257,-8.32148 -4.89632,-13.62397 -5.24464,-14.30718 -0.20954,-0.411 -0.73053,-0.86913 -1.15776,-1.01807 -0.42723,-0.14893 -0.77678,-0.3782 -0.77678,-0.50948 0,-0.33122 6.54169,-0.30612 6.74688,0.0259 0.0899,0.14552 -0.0632,0.26458 -0.34026,0.26458 -0.53979,0 -1.37954,0.77273 -1.37954,1.26943 0,0.41173 2.58621,8.08183 4.1218,12.22432 0.21101,0.56923 0.3414,0.27567 1.95881,-4.41013 l 1.38527,-4.01325 -0.60042,-1.80427 c -0.6459,-1.94093 -1.71192,-3.2661 -2.62739,-3.2661 -0.31082,0 -0.49155,-0.11906 -0.40161,-0.26458 0.19412,-0.3141 7.27604,-0.36735 7.27604,-0.0547 0,0.11543 -0.38695,0.32379 -0.85989,0.46303 -1.40266,0.41294 -1.29584,1.23931 1.00934,7.8087 1.1205,3.19325 2.11144,5.80591 2.20209,5.80591 0.0907,0 0.28792,-0.38696 0.43838,-0.8599 0.15046,-0.47294 1.09695,-3.27847 2.10331,-6.23451 1.98826,-5.84024 2.00255,-6.05278 0.43701,-6.50177 -1.54517,-0.44315 -0.84666,-0.69132 1.94581,-0.69132 2.79033,0 3.44525,0.24483 2.00134,0.74818 -0.43152,0.15043 -0.96333,0.63154 -1.19648,1.08241 -0.23084,0.4464 -1.43732,3.75924 -2.68107,7.36187 -3.36166,9.73735 -3.45826,9.98983 -3.82198,9.98983 -0.19726,0 -1.1139,-2.18305 -2.22193,-5.29167 -2.51174,-7.04682 -2.2564,-6.51707 -2.67818,-5.55625 -0.19164,0.43656 -1.14528,3.0857 -2.11919,5.88698 -0.97392,2.80128 -1.90535,5.09323 -2.06986,5.09323 -0.1645,0 -0.8166,-1.45852 -1.4491,-3.24115 z m 21.66229,2.81967 c -3.8965,-1.68974 -4.85404,-7.77924 -1.75797,-11.17979 1.94086,-2.13172 5.70047,-2.37448 7.95776,-0.51382 3.79084,3.12473 2.61338,10.28888 -1.94168,11.81397 -1.23709,0.41419 -3.15015,0.36012 -4.25811,-0.12036 z m 4.81617,-1.37175 c 1.89429,-1.76145 1.47182,-7.79213 -0.688,-9.82118 -0.98097,-0.92158 -2.04932,-1.10316 -3.27137,-0.55603 -1.48101,0.66307 -2.00663,2.08198 -1.87888,5.07204 0.1262,2.95377 1.05027,4.94409 2.66679,5.74388 1.29338,0.63991 2.137,0.52321 3.17146,-0.43871 z m 9.31844,1.29242 c -3.09192,-1.40431 -4.43813,-5.96374 -2.75216,-9.32116 1.22198,-2.43343 2.9067,-3.52395 5.41671,-3.50624 5.42441,0.0383 7.84293,6.32811 4.33013,11.26138 -1.2875,1.80813 -4.75324,2.58406 -6.99468,1.56602 z m 4.74215,-1.05546 c 0.97851,-0.85223 1.33565,-1.94619 1.34903,-4.13227 0.0168,-2.75341 -0.48629,-4.4374 -1.71018,-5.72398 -0.84404,-0.88726 -1.12856,-1.0229 -2.14578,-1.0229 -0.645,0 -1.42742,0.1784 -1.73871,0.39643 -1.61526,1.13138 -1.89866,5.85125 -0.52047,8.66817 0.94534,1.93221 2.07741,2.67508 3.61455,2.37189 0.3638,-0.0718 0.882,-0.32256 1.15156,-0.55734 z m 9.28262,1.18254 c -1.07934,-0.47006 -2.60251,-2.28639 -2.98337,-3.55757 -0.95283,-3.18026 0.46925,-7.16715 3.10805,-8.71358 1.49333,-0.87515 3.71181,-0.97282 4.85312,-0.21366 l 0.7276,0.48398 -0.0264,-2.21324 c -0.0366,-3.07011 -0.18966,-3.50203 -1.30769,-3.68988 l -0.9149,-0.15371 1.51244,-0.6989 c 0.83185,-0.3844 1.81411,-0.77462 2.18282,-0.86716 l 0.67037,-0.16825 v 8.47813 c 0,4.86831 0.10986,8.76709 0.25803,9.1568 0.19849,0.52207 0.44272,0.67869 1.05834,0.67869 1.24619,0 0.95442,0.33317 -0.98651,1.1265 -2.24745,0.91862 -2.44653,0.91307 -2.44653,-0.0682 0,-0.88771 -0.28485,-1.01022 -0.8275,-0.35589 -0.891,1.07438 -3.30928,1.45904 -4.8779,0.77591 z m 5.00186,-1.81833 0.75166,-0.52407 -0.0902,-3.73517 c -0.10695,-4.42875 -0.44823,-5.33356 -2.24931,-5.96348 -0.98425,-0.34424 -1.15196,-0.33261 -1.97186,0.13673 -1.39196,0.7968 -2.13124,2.54339 -2.14087,5.05788 -0.009,2.33248 0.39585,3.5235 1.58142,4.65306 1.33553,1.27244 2.6592,1.39296 4.11917,0.37505 z m -308.93101,-3.24196 c -9.31568,-1.2697 -16.23438,-5.60559 -19.36741,-12.13739 -1.5426,-3.21603 -2.03771,-5.54128 -2.19429,-10.30527 -0.24271,-7.3844 1.25941,-14.087845 5.23477,-23.361083 4.76182,-11.107766 13.71701,-23.633415 22.43376,-31.378156 10.514986,-9.342456 17.341806,-13.139884 27.038136,-15.039994 3.94032,-0.77216 8.9198,-0.83398 11.22899,-0.13943 2.16527,0.65127 4.76768,2.00535 6.47885,3.37107 2.51955,2.010895 7.62807,8.699277 6.64443,8.699277 -0.49919,0 -2.67344,-2.173906 -4.26987,-4.269199 -4.63481,-6.083108 -10.64694,-8.290088 -17.56193,-6.446758 -4.29883,1.14594 -17.25365,8.920162 -24.579556,14.750262 -11.62393,9.250541 -23.14839,25.341961 -27.37718,38.226319 -1.6591,5.054952 -1.99956,7.036042 -2.01322,11.714372 -0.0106,3.61757 0.0601,4.30973 0.59967,5.87122 2.21227,6.40266 8.86387,11.11088 18.30607,12.95762 2.24117,0.43834 12.36866,0.43817 16.404156,-2.8e-4 15.07541,-1.6379 29.83811,-4.39839 40.74584,-7.6191 7.41387,-2.18908 19.57867,-6.49633 26.06146,-9.2277 1.16416,-0.49049 3.9026,-1.62737 6.08541,-2.5264 6.49257,-2.67408 18.8884601,-8.28657 25.4000001,-11.500362 9.6225499,-4.749244 15.4983399,-8.252665 21.9651299,-13.096634 13.29471,-9.958451 18.03859,-17.94948 14.69167,-24.748031 -1.10878,-2.252253 -2.7806,-4.036032 -5.80506,-6.193808 -5.96314,-4.254345 -11.86833,-6.486988 -21.32674,-8.063248 -10.0196199,-1.66979 -21.15552,-1.84218 -33.32963,-0.51595 -6.61493,0.72062 -11.83836,2.14423 -13.58155,3.701574 l -0.71382,0.637719 0.60487,0.512363 c 0.33268,0.281799 1.26345,0.703816 2.06838,0.937815 1.61965,0.470845 1.79465,1.009051 0.37321,1.147792 -1.12662,0.109964 -3.06306,-0.62517 -3.57607,-1.357593 -2.15854,-3.08174 3.67564,-5.80862 15.41408,-7.20449 12.3605301,-1.46984 26.8608001,-1.04607 37.63533,1.09991 10.30204,2.05187 19.56533,7.019432 23.04619,12.358826 1.36722,2.097204 1.88772,4.017932 1.87624,6.923553 -0.0117,2.962436 -0.34941,4.47666 -1.51745,6.804057 -4.04082,8.051611 -12.17073,15.342415 -26.84457,24.073867 -12.2090999,7.26485 -35.976,18.50213 -52.66852,24.90232 -19.98075,7.66096 -36.07298,12.40145 -52.23877,15.38864 -7.806886,1.44259 -15.667656,1.82965 -21.371006,1.0523 z M 96.837766,110.84325 c -1.03549,-0.47221 -1.40989,-1.13684 -1.40989,-2.50281 0,-1.99459 3.16184,-5.94591 7.008904,-8.758935 4.56002,-3.334345 13.61687,-7.596292 19.33863,-9.100317 4.92955,-1.295784 7.9794,-0.792901 9.15513,1.509565 0.64448,1.262118 0.99083,4.485464 0.51365,4.780379 -0.20192,0.12479 -0.29756,-0.16552 -0.29756,-0.903186 0,-1.343071 -0.49134,-2.327972 -1.68358,-3.374774 -2.01831,-1.772101 -3.64837,-1.758063 -9.09334,0.07831 -9.55344,3.222007 -16.86674,7.449758 -20.893164,12.078128 -1.66696,1.91617 -2.5284,3.44087 -2.41076,4.2669 0.0729,0.51194 0.22386,0.56755 1.3765,0.50705 2.455014,-0.12886 6.695154,-2.08559 15.695954,-7.24337 7.31269,-4.190415 10.77584,-5.920838 10.87356,-5.433151 0.0456,0.227487 -0.039,0.641394 -0.18803,0.919793 -0.30432,0.568634 -2.2668,7.583408 -2.54776,9.106858 l -0.18191,0.98634 1.28512,-0.38352 c 3.72568,-1.11187 6.29221,-2.1423 9.31343,-3.73923 1.84182,-0.97354 4.4264,-2.32695 5.74351,-3.00757 1.3171,-0.680625 3.55179,-1.941718 4.96596,-2.802433 1.41418,-0.860714 3.01545,-1.830866 3.55839,-2.155894 1.13821,-0.681384 2.31772,-0.77695 2.53699,-0.20555 0.0902,0.235085 -0.38115,1.062495 -1.16814,2.050521 -2.12081,2.662556 -3.35027,4.617886 -3.5402,5.630326 -0.19169,1.02177 0.0121,1.99618 0.48219,2.30588 0.79846,0.52601 3.10829,0.0716 8.36486,-1.64557 2.01744,-0.65904 6.58168,-3.21191 9.60194,-5.37056 1.40868,-1.006814 2.5689,-1.070908 2.5689,-0.141913 0,0.283402 -0.83945,2.135573 -1.86544,4.115933 -2.11945,4.09095 -2.26147,4.96048 -0.91516,5.60282 0.43521,0.20764 1.38771,0.43538 2.11667,0.50608 l 1.32539,0.12855 -0.92605,0.33553 c -2.04347,0.7404 -4.51638,0.24514 -4.90603,-0.98255 -0.58927,-1.85663 -0.19563,-4.58615 0.93866,-6.50863 0.29029,-0.49199 0.52779,-0.93072 0.52779,-0.97494 0,-0.0442 -1.33945,0.80991 -2.97656,1.89808 -3.96961,2.63856 -6.40041,3.78433 -9.64782,4.54755 -2.43355,0.57194 -2.81043,0.59953 -3.78708,0.2772 -1.22376,-0.40387 -2.18679,-1.4069 -2.62466,-2.73366 -0.39528,-1.19772 0.18568,-2.92268 1.73203,-5.14258 1.34933,-1.937063 1.37695,-1.945484 -3.02698,0.92274 -7.89242,5.14021 -17.53444,9.86633 -20.12886,9.86633 -1.68258,0 -2.40389,-0.85192 -2.39805,-2.83225 0.004,-1.37024 0.64195,-4.46439 1.17526,-5.70056 0.39913,-0.92516 0.2386,-0.84986 -5.85243,2.74547 -4.06715,2.4007 -9.13488,4.98071 -11.66725,5.93984 -2.20619,0.8356 -4.887994,1.07349 -6.062714,0.53778 z m 123.828984,-3.87624 c -1.75989,-0.34818 -3.14867,-1.1838 -3.5408,-2.13047 -0.31767,-0.76694 -0.29018,-0.95833 0.29286,-2.03849 0.47864,-0.88675 1.07119,-1.44797 2.31347,-2.19115 1.69129,-1.011789 5.78305,-2.632885 6.84842,-2.713238 1.36705,-0.103107 0.43434,0.567624 -2.84459,2.045601 -5.27832,2.379197 -6.75995,4.115017 -4.48323,5.252357 0.70798,0.35368 1.59172,0.46271 3.75302,0.46302 4.20101,6.1e-4 7.86351,-0.92581 12.25427,-3.09971 2.11971,-1.04948 6.21771,-3.557115 6.21771,-3.804716 0,-0.09126 -0.92273,-0.248041 -2.05052,-0.34841 -4.46401,-0.397281 -8.24981,-1.625726 -8.81188,-2.859348 -0.39205,-0.860453 0.0643,-1.933614 1.03605,-2.436098 1.97649,-1.022084 6.87854,-1.14366 10.2896,-0.255192 2.31347,0.602585 3.46545,1.364022 3.81162,2.519422 0.29623,0.988731 0.29844,0.989973 2.04573,1.14786 2.97688,0.268992 4.60673,0.642151 7.35258,1.683398 2.88313,1.093303 5.11224,2.284504 5.11224,2.731904 0,0.33632 -1.16451,0.19022 -5.68854,-0.71369 -1.74625,-0.348906 -4.68307,-0.82724 -6.52625,-1.062965 l -3.35125,-0.428592 -1.34005,1.059247 c -2.81816,2.22763 -9.03396,5.31708 -12.59495,6.2601 -3.78983,1.00361 -7.81587,1.37017 -10.09551,0.91916 z m 22.66321,-11.091289 c 0,-0.786423 -7.71537,-1.779905 -8.85777,-1.140585 -0.37686,0.210898 -0.13315,0.326637 1.2167,0.577822 3.92137,0.729704 7.64107,1.003659 7.64107,0.562763 z m -60.62691,8.235549 c -1.54662,-1.3819 -0.92844,-3.3026 1.68126,-5.223754 2.02959,-1.494097 4.63991,-2.74839 7.88107,-3.786954 3.07936,-0.986719 4.54978,-1.232772 5.1968,-0.869607 0.56148,0.315156 0.66206,0.267532 -2.0218,0.9573 -2.77153,0.7123 -8.37331,3.572636 -10.01463,5.113585 -1.69454,1.59092 -1.75498,2.26687 -0.21405,2.39392 2.2488,0.18541 6.89271,-1.47597 14.15234,-5.063056 3.40327,-1.681602 4.41437,-2.076035 4.7625,-1.857868 1.0876,0.681572 0.31348,2.31883 -1.54455,3.266728 -0.55575,0.283523 -1.46018,1.064326 -2.00984,1.735106 -1.24918,1.52446 -1.05268,2.06077 0.7993,2.1816 0.79144,0.0516 1.20972,0.19211 1.14552,0.38472 -0.16866,0.50599 -1.71233,0.76451 -2.80622,0.46995 -1.36124,-0.36654 -2.00094,-1.10449 -1.80533,-2.08257 l 0.15281,-0.76405 -3.75632,1.50777 c -4.79192,1.92346 -6.51366,2.38721 -8.86273,2.38721 -1.70908,0 -1.97974,-0.0742 -2.73613,-0.75003 z M -54.326294,88.342194 c 0,-1.423742 5.45634,-5.714906 17.19792,-13.525392 4.87495,-3.242809 11.52689,-7.691092 14.7821,-9.885073 5.68973,-3.83483 9.00869,-5.843241 10.29987,-6.23279 0.3578,-0.107948 0.77046,-0.04861 1.00276,0.144177 0.33475,0.277815 0.16189,0.475566 -1.13718,1.300973 -0.84256,0.535348 -3.25833,2.249211 -5.36838,3.808584 -11.89244,8.788766 -14.44117,10.607599 -20.10833,14.349805 -16.35493,10.799665 -16.66876,10.988686 -16.66876,10.039716 z M 54.682046,59.271561 c 0,-0.04478 1.10133,-1.205635 2.44739,-2.579688 2.48769,-2.5394 10.0676,-10.689466 13.12363,-14.110776 0.92422,-1.03469 2.60527,-3.07689 3.73566,-4.53823 1.1304,-1.46133 3.88657,-4.83921 6.12482,-7.50639 2.23825,-2.66718 4.88025,-5.84491 5.87112,-7.06161 0.99088,-1.21671 2.30056,-2.63095 2.91042,-3.14275 2.14882,-1.80333 7.72883,-5.69221 8.16861,-5.69297 0.24485,-4.2e-4 0.51714,0.22595 0.60509,0.50305 0.19089,0.60146 -1.42317,5.75249 -2.62079,8.36386 -1.62035,3.53309 -10.09309,13.25288 -15.84075,18.17225 -6.80163,5.82145 -7.38493,6.26682 -15.13249,11.554252 -2.18282,1.489691 -5.02218,3.476203 -6.3097,4.414471 -1.96091,1.428987 -3.08301,2.020257 -3.08301,1.624531 z"/>
</svg>