<?xml version="1.0" encoding="UTF-8"?>
<!-- Created by Vectric (http://www.vectric.com/) -->
<svg width="1300.00000000mm" height="1600.00000000mm" viewBox="-650.00000000 -800.00000000 1300.00000000 1600.00000000" id="svg2" version="1.1" xmlns="http://www.w3.org/2000/svg" xmlns:xlink="http://www.w3.org/1999/xlink" xmlns:inkscape="http://www.inkscape.org/namespaces/inkscape">
    <g inkscape:groupmode="layer" id="d157d87e-5bb1-4bc4-815d-af1f62374e52" inkscape:label="Camada 1" style="stroke:#000000;">
        <path style="fill:none;stroke-width:0.280000;stroke-linecap:round;stroke-linejoin:round;stroke-opacity:1;stroke:#000000;" d="M -135.567756,-521.535160 C -135.043643,-521.777126 -134.364111,-522.247556 -134.057686,-522.580559 L -133.500549,-523.186019 L -133.668131,-533.119140 L -134.200890,-534.122156 C -135.831005,-537.191148 -138.535251,-537.623987 -140.741763,-535.169081 C -142.036304,-533.728808 -142.359629,-532.773261 -142.524011,-529.901864 C -142.758242,-525.810374 -141.513437,-522.966984 -138.922617,-521.675538 C -137.514765,-520.973766 -136.844517,-520.945721 -135.567756,-521.535160 "/>
        <path style="fill:none;stroke-width:0.280000;stroke-linecap:round;stroke-linejoin:round;stroke-opacity:1;stroke:#000000;" d="M -159.867567,-519.178077 C -159.474482,-519.055239 -158.390479,-518.987982 -157.458673,-519.028617 C -154.281888,-519.167154 -151.672221,-520.872593 -150.235177,-523.749231 C -148.816356,-526.589394 -148.650357,-530.300941 -149.827154,-532.872173 C -150.509946,-534.364033 -152.518870,-536.504104 -153.802141,-537.106655 C -155.115262,-537.723222 -157.587377,-538.040463 -158.996225,-537.773200 C -161.827038,-537.236187 -163.719131,-535.642793 -165.193703,-532.554098 C -166.015488,-530.832757 -166.061285,-530.609386 -166.055027,-528.353047 C -166.047374,-525.593911 -165.581337,-524.124711 -164.089649,-522.157125 C -163.198045,-520.981070 -161.258982,-519.612892 -159.867567,-519.178077 "/>
        <path style="fill:none;stroke-width:0.280000;stroke-linecap:round;stroke-linejoin:round;stroke-opacity:1;stroke:#000000;" d="M -179.640942,-519.147705 C -179.247857,-519.043654 -178.164672,-518.998521 -177.233865,-519.047409 C -174.071719,-519.213490 -171.456966,-521.117353 -169.912565,-524.378218 C -169.195479,-525.892282 -169.158854,-526.109621 -169.162415,-528.829656 C -169.165912,-531.500077 -169.210592,-531.774197 -169.837601,-532.972056 C -171.295246,-535.756790 -173.477484,-537.382444 -176.293489,-537.781359 C -180.891195,-538.432669 -184.524983,-535.728696 -185.840285,-530.677401 C -187.129308,-525.727026 -184.247316,-520.367023 -179.640942,-519.147705 "/>
        <path style="fill:none;stroke-width:0.280000;stroke-linecap:round;stroke-linejoin:round;stroke-opacity:1;stroke:#000000;" d="M -175.340929,-520.705038 C -174.941348,-520.879137 -174.334132,-521.354782 -173.991560,-521.762028 C -173.648988,-522.169273 -173.225681,-522.907338 -173.050878,-523.402171 L -172.733054,-524.301867 L -172.732613,-527.280676 C -172.732098,-530.760551 -173.293372,-533.011275 -174.580528,-534.690869 C -176.732934,-537.499517 -180.181280,-537.210978 -181.777617,-534.088657 C -182.460281,-532.753414 -182.499399,-532.525549 -182.493449,-529.918876 C -182.486838,-527.022875 -182.198178,-525.724991 -181.058672,-523.467801 C -179.775732,-520.926486 -177.431932,-519.793982 -175.340929,-520.705038 "/>
        <path style="fill:none;stroke-width:0.280000;stroke-linecap:round;stroke-linejoin:round;stroke-opacity:1;stroke:#000000;" d="M -155.470692,-520.668702 C -155.002920,-520.837376 -154.317894,-521.398586 -153.884554,-521.968151 C -152.957383,-523.186790 -152.601447,-524.715966 -152.601447,-527.480642 C -152.601447,-531.112554 -153.936941,-534.604106 -155.831847,-535.926289 C -157.870843,-537.349011 -160.682586,-536.563583 -161.687777,-534.290502 C -163.116061,-531.060665 -162.586374,-525.390339 -160.589377,-522.532073 C -159.378280,-520.798652 -157.254438,-520.025503 -155.470692,-520.668702 "/>
        <path style="fill:none;stroke-width:0.280000;stroke-linecap:round;stroke-linejoin:round;stroke-opacity:1;stroke:#000000;" d="M -66.445328,-582.623576 C -66.383451,-582.723726 -66.397282,-582.909994 -66.476065,-583.037506 C -66.710973,-583.417709 -69.560030,-584.203557 -71.657155,-584.466593 C -74.883284,-584.871236 -79.463782,-584.731872 -79.463782,-584.229072 L -79.463782,-584.046705 L -77.379240,-583.668157 C -76.232741,-583.459956 -73.847429,-583.131959 -72.078546,-582.939275 L -68.862394,-582.588941 L -67.710113,-582.515214 C -67.076359,-582.474663 -66.507205,-582.523427 -66.445328,-582.623576 "/>
        <path style="fill:none;stroke-width:0.280000;stroke-linecap:round;stroke-linejoin:round;stroke-opacity:1;stroke:#000000;" d="M -140.717819,-519.254491 C -140.214009,-519.065914 -139.302920,-518.972237 -138.524745,-519.029003 C -137.090923,-519.133598 -136.070050,-519.563767 -134.699656,-520.640796 C -134.222202,-521.016040 -133.766580,-521.323059 -133.687164,-521.323059 C -133.607749,-521.323059 -133.542772,-520.786873 -133.542772,-520.131535 C -133.542772,-519.338171 -133.443262,-518.939395 -133.244980,-518.938165 L -132.947188,-518.936318 L -127.586936,-521.152328 L -127.586936,-521.480538 C -127.586936,-521.711633 -127.763166,-521.764504 -128.182520,-521.659222 C -129.179672,-521.408878 -129.897692,-521.728024 -130.183698,-522.548706 L -130.445737,-523.300617 L -130.445737,-547.298269 L -130.897520,-547.298269 C -131.146001,-547.298269 -132.137647,-546.971143 -133.101179,-546.571323 C -134.064712,-546.171503 -135.259534,-545.675508 -135.756340,-545.469111 C -136.902543,-544.992925 -136.782280,-544.533406 -135.537477,-544.632846 C -134.828213,-544.689506 -134.488937,-544.587812 -134.154702,-544.218376 L -133.711796,-543.728824 L -133.477076,-536.812863 L -133.672941,-536.812863 C -133.780667,-536.812863 -134.358275,-537.050592 -134.956515,-537.341150 C -136.422896,-538.053354 -138.924095,-538.062904 -140.480703,-537.362242 C -144.609001,-535.504008 -147.108010,-529.753913 -145.846077,-525.016781 C -145.086356,-522.164887 -143.384521,-520.252646 -140.717819,-519.254491 "/>
        <path style="fill:none;stroke-width:0.280000;stroke-linecap:round;stroke-linejoin:round;stroke-opacity:1;stroke:#000000;" d="M -150.001469,-570.403272 C -149.662574,-570.300539 -148.474053,-570.208018 -147.360311,-570.197671 C -144.818399,-570.174055 -142.383542,-570.744442 -138.319743,-572.315505 L -135.225380,-573.511784 L -134.975162,-573.511784 L -130.204515,-575.656526 L -130.116157,-575.656526 C -130.067560,-575.656526 -130.082818,-575.168247 -130.150064,-574.571461 C -130.257711,-573.616141 -130.190909,-573.401384 -129.591393,-572.775438 C -128.379572,-571.510191 -125.521658,-571.056106 -123.953876,-571.879710 C -123.109641,-572.323213 -123.472820,-572.796108 -124.668577,-572.810320 C -126.314144,-572.829880 -127.451151,-573.275104 -127.544973,-573.936647 C -127.653928,-574.704896 -125.032190,-577.617869 -123.591358,-578.329448 C -122.985313,-578.628753 -122.081918,-579.259174 -121.583812,-579.730384 C -120.822797,-580.450307 -120.678167,-580.742530 -120.678167,-581.560223 C -120.678167,-583.473484 -121.884232,-583.774989 -124.126815,-582.422355 L -125.550479,-581.563658 L -135.567756,-576.801725 L -142.733563,-574.053338 L -144.380256,-573.640239 C -146.139262,-573.198966 -148.716244,-573.045695 -149.206620,-573.353183 C -149.824353,-573.740529 -149.511942,-574.715673 -148.383500,-575.922430 C -146.771154,-577.646674 -143.812146,-579.523698 -139.789453,-581.373997 L -136.282457,-582.987094 L -134.376589,-583.584296 C -133.328362,-583.912758 -132.015662,-584.256597 -131.459478,-584.348385 C -129.225140,-584.717118 -130.403178,-585.565860 -132.835456,-585.339736 L -134.428235,-585.191659 L -141.285359,-582.871960 L -142.833876,-582.220360 C -147.177604,-580.392563 -151.447536,-577.242835 -152.278476,-575.253520 C -153.172827,-573.112397 -152.216178,-571.074641 -150.001469,-570.403272 "/>
        <path style="fill:none;stroke-width:0.280000;stroke-linecap:round;stroke-linejoin:round;stroke-opacity:1;stroke:#000000;" d="M -99.118041,-567.521721 C -98.152566,-567.244650 -96.779609,-567.106002 -94.887829,-567.094535 C -87.041464,-567.046973 -78.956446,-569.564388 -70.240249,-574.768998 C -68.901616,-575.568322 -67.099023,-576.786183 -66.234488,-577.475355 C -64.706135,-578.693694 -64.628395,-578.725110 -63.427232,-578.609794 L -62.191858,-578.491195 L -59.094823,-578.134200 C -57.391454,-577.937854 -54.166894,-577.408108 -51.929134,-576.956987 L -47.860479,-576.136769 L -45.854181,-575.781886 C -43.583193,-575.380184 -42.537600,-575.327567 -42.537600,-575.614986 C -42.537600,-576.307687 -45.439372,-577.896620 -49.867016,-579.628378 C -53.577539,-581.079653 -55.492869,-581.530542 -59.402789,-581.873202 L -62.744634,-582.166077 L -62.907646,-583.253442 C -63.338149,-586.125105 -68.189850,-587.912550 -75.532930,-587.904799 L -79.106432,-587.901028 L -80.535833,-587.590044 C -83.237808,-587.002196 -84.466684,-585.993794 -84.466684,-584.364434 C -84.466684,-583.180363 -83.822503,-582.457981 -81.916994,-581.505226 C -79.875301,-580.484378 -77.432109,-579.951477 -71.125612,-579.151443 L -68.862394,-578.864334 L -70.649145,-577.660653 C -76.722798,-573.569013 -82.993406,-570.843409 -89.588703,-569.428319 L -91.018104,-569.121626 L -98.165107,-569.103147 L -99.063576,-569.293630 C -100.259795,-569.547238 -101.619492,-570.751290 -101.619492,-571.556970 C -101.619492,-572.492354 -99.414902,-574.486439 -97.049729,-575.690391 C -95.959818,-576.245192 -93.620804,-577.308204 -91.851921,-578.052640 L -88.635769,-579.406160 L -88.635769,-579.735661 C -88.635769,-579.942689 -88.958950,-580.092124 -89.505253,-580.137700 L -90.374737,-580.210236 L -97.312308,-577.538604 L -98.927273,-576.657141 C -99.815503,-576.172337 -101.028928,-575.293112 -101.623773,-574.703308 C -104.791814,-571.562114 -103.856545,-568.881576 -99.118041,-567.521721 "/>
        <path style="fill:none;stroke-width:0.280000;stroke-linecap:round;stroke-linejoin:round;stroke-opacity:1;stroke:#000000;" d="M -304.713496,-593.801932 L -299.472360,-594.140811 C -296.589736,-594.327195 -292.444331,-594.628421 -290.260351,-594.810202 L -286.289477,-595.140712 L -273.805678,-606.040373 L -265.817481,-612.915473 L -267.159747,-613.785597 C -270.153014,-615.725984 -272.464821,-618.774242 -273.128648,-621.655956 C -273.433533,-622.979480 -273.450477,-627.636310 -273.155046,-628.910933 C -273.034384,-629.431523 -272.982702,-629.904516 -273.040197,-629.962029 L -273.144734,-630.066597 L -278.031351,-626.668941 L -295.422392,-615.040291 L -298.995893,-612.772597 C -304.852185,-609.056276 -310.371076,-605.653307 -315.553117,-602.563351 L -320.436902,-599.651239 L -322.342770,-598.537492 C -323.390997,-597.924931 -325.239007,-596.846500 -326.449460,-596.140977 L -328.650282,-594.858208 L -328.298606,-594.531697 L -322.819237,-593.953311 L -304.713496,-593.801932 "/>
        <path style="fill:none;stroke-width:0.280000;stroke-linecap:round;stroke-linejoin:round;stroke-opacity:1;stroke:#000000;" d="M -330.800057,-634.265745 C -330.800057,-634.142231 -330.599402,-634.041174 -330.354157,-634.041174 L -329.908256,-634.041174 L -328.053660,-635.252229 C -327.033632,-635.918309 -325.170590,-637.239164 -323.913567,-638.187462 L -321.628070,-639.911639 L -317.220751,-642.894216 C -310.131388,-647.691820 -307.086706,-649.884334 -303.775552,-652.576278 C -299.844575,-655.772133 -294.811387,-660.084210 -292.309668,-662.399431 L -290.378412,-664.186716 L -283.748953,-671.519568 L -281.879183,-673.691607 C -279.048056,-676.980416 -276.228165,-680.602381 -275.241158,-682.217715 C -274.224343,-683.881834 -272.530781,-688.115040 -271.325137,-692.006153 L -270.493647,-694.689715 L -270.486499,-695.509554 C -270.479462,-696.316699 -270.980806,-696.953610 -271.623189,-696.953610 C -271.782922,-696.953610 -272.459279,-696.522157 -273.126204,-695.994825 C -274.705847,-694.745815 -279.034336,-691.617053 -281.275268,-690.104436 C -283.092199,-688.878016 -284.139026,-687.778680 -287.801264,-683.251091 C -288.967449,-681.809347 -290.803239,-679.636149 -291.880796,-678.421762 L -293.839992,-676.213785 L -299.710594,-668.991398 L -300.983458,-667.423124 C -301.683534,-666.560572 -303.125845,-664.728859 -304.188595,-663.352650 C -305.251344,-661.976440 -306.888337,-659.938935 -307.826357,-658.824861 L -309.531847,-656.799271 L -314.269674,-651.788015 C -316.875479,-649.031824 -321.060265,-644.527866 -323.569199,-641.779218 L -328.130895,-636.781677 L -329.465476,-635.635997 C -330.199496,-635.005872 -330.800057,-634.389259 -330.800057,-634.265745 "/>
        <path style="fill:none;stroke-width:0.280000;stroke-linecap:round;stroke-linejoin:round;stroke-opacity:1;stroke:#000000;" d="M -483.507689,-593.250217 C -483.507689,-592.947110 -483.330695,-592.814463 -482.926252,-592.814463 L -482.344814,-592.814463 L -478.503880,-595.445734 L -467.188699,-602.749642 L -452.418226,-612.523545 L -447.057974,-616.432858 C -444.109835,-618.582979 -439.285608,-622.134605 -436.337469,-624.325360 L -430.977217,-628.308550 L -428.356649,-630.239138 C -426.915337,-631.300962 -425.006200,-632.599182 -424.114122,-633.124072 C -422.207624,-634.245838 -422.048644,-634.831633 -423.619436,-634.946849 C -424.388191,-635.003236 -424.990855,-634.810290 -426.454621,-634.039151 L -428.313528,-633.059844 L -436.681891,-627.730440 L -443.239774,-623.219132 C -446.846610,-620.737912 -452.552006,-616.876399 -455.918432,-614.637993 L -462.039205,-610.568162 L -470.523967,-605.018753 L -472.913642,-603.265669 C -479.740280,-598.257593 -483.507689,-594.695942 -483.507689,-593.250217 "/>
        <path style="fill:none;stroke-width:0.280000;stroke-linecap:round;stroke-linejoin:round;stroke-opacity:1;stroke:#000000;" d="M -343.307312,-593.159629 L -340.924978,-594.392831 L -333.063275,-598.608623 L -320.436902,-605.857226 L -316.625167,-608.119790 C -314.528713,-609.364200 -311.044549,-611.453325 -308.882581,-612.762290 L -304.951729,-615.142226 L -292.801824,-622.757660 L -289.454010,-624.912963 C -287.612712,-626.098380 -284.021343,-628.449505 -281.473190,-630.137687 L -276.840184,-633.207107 L -277.622077,-633.078989 L -281.042865,-631.569244 C -282.924299,-630.738884 -285.692451,-629.534483 -287.194315,-628.892799 L -289.924976,-627.726100 L -294.615138,-625.418752 C -300.477892,-622.534541 -310.374272,-617.019965 -316.267817,-613.353193 L -318.769268,-611.796872 L -327.345672,-606.101618 L -330.061575,-604.164558 C -331.555321,-603.099175 -334.396255,-600.928137 -336.374761,-599.340028 L -339.972044,-596.452558 L -343.307312,-593.159629 "/>
        <path style="fill:none;stroke-width:0.280000;stroke-linecap:round;stroke-linejoin:round;stroke-opacity:1;stroke:#000000;" d="M -209.971934,-519.774078 L -209.846917,-519.357045 C -209.778158,-519.127677 -209.575035,-518.940012 -209.395533,-518.940012 C -209.216031,-518.940012 -208.899151,-519.342151 -208.691356,-519.833654 L -208.313546,-520.727297 L -207.275144,-523.706105 C -206.704023,-525.344450 -205.540275,-528.652122 -204.689038,-531.056488 L -203.141333,-535.428062 L -202.937653,-535.631802 L -201.840153,-532.588186 C -201.236527,-530.914197 -200.039416,-527.560684 -199.179906,-525.135933 L -197.617160,-520.727297 L -197.314669,-519.893230 C -197.113091,-519.337413 -196.860634,-519.059164 -196.557915,-519.059164 L -196.103652,-519.059164 L -195.119601,-521.918820 C -194.578373,-523.491631 -193.799099,-525.743610 -193.387881,-526.923219 L -192.640213,-529.067961 L -187.618701,-543.604546 L -186.789913,-544.379037 C -186.309784,-544.827711 -185.709100,-545.153527 -185.362043,-545.153527 C -184.919340,-545.153527 -184.762961,-545.279478 -184.762961,-545.636039 L -184.762961,-546.118552 L -192.505547,-545.987593 L -192.505547,-545.630136 C -192.505547,-545.390839 -192.177675,-545.228902 -191.513673,-545.140246 C -189.971689,-544.934364 -189.686135,-544.572662 -189.836383,-543.015678 L -189.963528,-541.698109 L -195.317044,-526.208305 L -195.400255,-526.109011 C -195.446021,-526.054399 -195.540345,-526.066614 -195.609865,-526.136154 L -195.736264,-526.262592 L -197.294079,-530.644085 C -198.150878,-533.053906 -199.434061,-536.737717 -200.145598,-538.830332 L -201.439301,-542.635086 L -201.439301,-543.507670 C -201.439301,-544.567093 -201.014857,-544.963553 -199.691491,-545.140246 C -199.027489,-545.228902 -198.699617,-545.390839 -198.699617,-545.630136 L -198.699617,-545.987593 L -208.943655,-545.987593 L -208.943655,-545.639906 C -208.943655,-545.445148 -208.629294,-545.227509 -208.228954,-545.145101 C -207.116776,-544.916166 -206.528779,-544.515840 -205.965405,-543.604010 C -205.342248,-542.595420 -204.059869,-539.048564 -204.059869,-538.333603 L -204.059869,-537.824835 L -205.165565,-534.637921 C -205.773697,-532.885119 -206.665077,-530.278022 -207.146408,-528.844374 L -208.021555,-526.237741 L -208.490064,-526.081524 L -209.040360,-527.813047 C -209.343023,-528.765385 -210.001765,-530.670560 -210.504231,-532.046769 C -211.006698,-533.422979 -212.020291,-536.264762 -212.756662,-538.361843 L -214.095518,-542.174718 L -214.226781,-543.255015 C -214.380708,-544.521838 -214.059341,-544.913808 -212.683347,-545.137537 C -212.127999,-545.227833 -211.802456,-545.411372 -211.802456,-545.634179 L -211.802456,-545.987593 L -221.079517,-546.117405 L -221.380314,-546.001944 C -221.901541,-545.801870 -221.430360,-545.153527 -220.763730,-545.153527 C -219.903257,-545.153527 -219.152342,-544.585165 -218.617715,-543.529223 L -218.173235,-542.651328 L -213.061885,-528.353047 L -209.971934,-519.774078 "/>
        <path style="fill:none;stroke-width:0.280000;stroke-linecap:round;stroke-linejoin:round;stroke-opacity:1;stroke:#000000;" d="M -271.317026,-561.703504 C -270.816996,-561.525118 -269.818253,-561.376320 -269.097597,-561.372843 C -264.964255,-561.352900 -257.622374,-564.508428 -246.941888,-570.895330 C -245.566089,-571.718054 -243.153976,-573.127387 -241.581635,-574.027181 L -238.722834,-575.663170 L -238.582465,-575.012691 L -239.284517,-572.891986 C -240.396156,-569.534031 -240.676122,-566.241059 -240.002926,-564.442044 C -239.369317,-562.748824 -236.765821,-562.464805 -233.170192,-563.696651 L -230.952818,-564.456313 L -220.855326,-569.432293 L -218.353875,-570.834508 C -216.978077,-571.605727 -214.943650,-572.744331 -213.832926,-573.364740 L -211.813428,-574.492757 L -211.564222,-574.825685 L -208.943655,-576.513320 C -207.502342,-577.441519 -205.630220,-578.642241 -204.783382,-579.181592 L -203.243678,-580.162229 L -203.082927,-580.001430 L -204.634441,-577.848208 C -206.492195,-575.269979 -207.275912,-573.233152 -207.054117,-571.559629 C -206.843095,-569.967390 -206.339836,-568.902734 -205.438427,-568.141601 C -203.486274,-566.493241 -201.294792,-566.196743 -198.309812,-567.177129 C -197.344949,-567.494028 -196.180298,-567.825517 -195.721699,-567.913770 C -194.294640,-568.188395 -193.063220,-568.669057 -190.718797,-569.866559 L -188.455579,-571.022582 L -180.593876,-576.248619 L -180.165246,-576.434925 L -180.924953,-575.106698 C -182.263510,-572.766446 -182.808531,-570.769827 -182.742606,-568.447950 C -182.675175,-566.073030 -182.256512,-565.128434 -180.951226,-564.406205 C -180.245981,-564.015986 -179.786794,-563.962331 -177.973308,-564.058244 C -175.970368,-564.164178 -174.096794,-564.589995 -174.381326,-564.874613 C -174.450054,-564.943360 -175.018353,-565.041103 -175.644213,-565.091818 C -177.150981,-565.213915 -179.299680,-565.836577 -179.819617,-566.301789 C -180.071948,-566.527562 -180.235157,-567.013008 -180.233058,-567.531525 C -180.229473,-568.417419 -179.660679,-570.316782 -179.251155,-570.810376 C -179.018810,-571.090418 -178.360540,-572.320283 -176.155424,-576.594216 L -174.995390,-578.842582 L -174.995390,-579.346635 C -174.995390,-580.067474 -175.447420,-580.422620 -176.364906,-580.422620 C -176.963792,-580.422620 -177.681497,-580.049958 -179.243950,-578.927701 C -180.388659,-578.105496 -182.875963,-576.508398 -184.771292,-575.378594 L -188.217346,-573.324404 L -190.242330,-572.495319 C -192.144371,-571.716571 -194.520331,-570.917079 -198.493294,-569.718935 C -200.823150,-569.016310 -202.447951,-568.850549 -203.348366,-569.223624 C -204.098163,-569.534293 -204.774569,-570.520610 -204.774569,-571.303274 C -204.774569,-573.114984 -203.188637,-576.076419 -200.555991,-579.180688 C -197.362919,-582.945780 -197.075202,-584.009905 -199.255127,-583.991957 C -199.941552,-583.986305 -201.801091,-583.217601 -202.387951,-582.696897 L -202.749585,-582.376029 L -206.509247,-580.088252 C -208.577061,-578.829975 -211.409413,-577.254309 -212.803361,-576.586772 C -214.197310,-575.919236 -215.764859,-575.103407 -216.286804,-574.773819 L -217.235795,-574.174568 L -222.023478,-571.718064 C -225.634045,-569.865526 -227.777616,-568.941421 -230.742014,-567.959456 L -234.672866,-566.657352 L -236.271520,-566.313759 L -235.932854,-568.388233 L -234.055442,-575.299069 L -233.564159,-577.086354 C -233.293953,-578.069361 -232.799698,-579.494948 -232.465813,-580.254326 C -232.036853,-581.229940 -231.933100,-581.709384 -232.112169,-581.888507 L -232.365588,-582.142002 L -241.578587,-577.524965 L -242.058102,-577.137465 L -248.966872,-573.206752 L -252.778607,-570.951685 L -256.924273,-568.761895 C -263.683108,-565.191797 -268.898434,-563.340569 -270.830696,-563.825681 C -272.227435,-564.176345 -271.350265,-566.454761 -268.456288,-569.993121 C -264.675476,-574.615781 -257.340260,-579.835255 -250.396272,-582.843973 C -249.479074,-583.241381 -248.192613,-583.813912 -247.537471,-584.116265 L -246.346304,-584.665997 L -242.996452,-585.983363 C -241.154034,-586.707915 -238.313100,-587.695829 -236.683266,-588.178728 L -233.719932,-589.056726 L -232.528765,-589.292158 C -229.860708,-589.819493 -227.517678,-589.126246 -225.651914,-587.257461 C -224.288008,-585.891345 -223.723334,-584.651430 -223.712588,-582.999075 C -223.702770,-581.489236 -223.566951,-581.192836 -223.127583,-581.722401 C -222.734969,-582.195614 -222.727360,-584.504851 -223.113019,-586.142689 C -223.532212,-587.922944 -224.121510,-589.025228 -225.125462,-589.906973 C -226.094396,-590.757962 -228.628295,-591.622940 -230.152282,-591.622940 L -231.179995,-591.622940 L -234.117597,-591.029758 C -237.658762,-590.314700 -240.656434,-589.418108 -244.321320,-587.977866 C -248.441926,-586.358533 -254.735131,-583.349371 -258.019742,-581.427821 L -259.449143,-580.591599 L -262.546178,-578.544799 C -268.284348,-574.752498 -273.552302,-568.668459 -273.812200,-565.533500 C -273.970088,-563.629003 -273.139154,-562.353550 -271.317026,-561.703504 "/>
        <path style="fill:none;stroke-width:0.280000;stroke-linecap:round;stroke-linejoin:round;stroke-opacity:1;stroke:#000000;" d="M -467.693950,-472.602010 C -466.399498,-472.778343 -464.010776,-473.255524 -462.385681,-473.662413 C -457.950092,-474.772987 -453.556592,-476.273785 -449.440308,-478.084489 L -445.747690,-479.708827 L -432.644851,-486.267000 L -429.190466,-488.215129 C -427.290554,-489.286600 -424.717633,-490.758078 -423.472863,-491.485080 L -421.209646,-492.806902 L -416.802327,-495.474029 C -408.333133,-500.599235 -398.107260,-507.168951 -389.405482,-513.075411 L -383.806996,-516.875465 L -379.876145,-519.651764 C -373.072084,-524.457367 -367.285531,-528.661239 -362.604221,-532.199643 L -358.077785,-535.620983 L -346.103034,-545.034374 L -340.735815,-549.323859 L -330.190190,-557.902827 L -325.353614,-561.715702 L -325.320688,-562.250873 L -327.072543,-563.915462 C -332.215298,-568.802036 -336.115378,-571.681477 -339.138227,-572.823590 C -342.695229,-574.167520 -349.256891,-575.106846 -353.194000,-574.835725 C -357.191100,-574.560473 -365.125816,-573.113864 -371.061508,-571.578231 C -380.087815,-569.243020 -390.138356,-565.953883 -402.208510,-561.385073 L -405.363084,-560.191000 L -406.139362,-559.832243 C -406.566315,-559.634926 -407.502666,-559.246157 -408.220143,-558.968311 L -409.524645,-558.463137 L -415.492043,-555.823935 L -420.852296,-553.446580 C -429.210389,-549.739637 -435.762976,-546.420716 -441.371438,-543.053522 L -446.524523,-539.959727 L -449.114024,-538.225078 C -454.717926,-534.471151 -460.508439,-529.900365 -464.668957,-525.946672 L -467.152118,-523.586953 L -470.570728,-519.596330 C -472.450964,-517.401488 -475.224552,-514.038330 -476.734257,-512.122645 L -479.479176,-508.639582 L -480.641010,-506.917303 C -483.730670,-502.337256 -485.868642,-498.042089 -487.321454,-493.496347 C -488.563970,-489.608604 -488.842357,-487.890189 -488.679107,-485.115875 C -488.468875,-481.543113 -487.402899,-479.011020 -485.167839,-476.775292 C -481.529561,-473.135926 -475.080763,-471.595762 -467.693950,-472.602010 "/>
        <path style="fill:none;stroke-width:0.280000;stroke-linecap:round;stroke-linejoin:round;stroke-opacity:1;stroke:#000000;" d="M -251.349206,-615.258507 L -247.061004,-615.817637 C -244.702493,-616.125158 -241.432739,-616.610282 -239.794884,-616.895690 L -236.816966,-617.414613 L -231.456714,-618.591982 C -210.243835,-623.251347 -191.495310,-629.361463 -167.371920,-639.477118 L -162.249901,-641.624933 L -159.271983,-642.928556 C -157.634128,-643.645549 -155.304502,-644.670519 -154.095036,-645.206267 L -151.896007,-646.180356 L -137.473624,-653.188759 L -127.944286,-658.172983 L -125.085485,-659.729734 C -123.513144,-660.585947 -121.422646,-661.728473 -120.439933,-662.268680 L -118.653182,-663.250875 L -113.218252,-666.531416 C -101.138441,-673.822828 -94.781388,-678.304332 -87.765942,-684.474420 L -85.228481,-686.706119 L -76.774400,-695.404629 L -74.009564,-698.601766 C -68.851431,-704.566410 -67.840616,-705.800214 -65.926236,-708.468307 C -62.207859,-713.650651 -61.276332,-715.735280 -61.272470,-718.882794 C -61.270724,-720.305904 -61.389297,-720.913629 -61.847934,-721.832235 C -62.942780,-724.025109 -65.827695,-725.929522 -69.100628,-726.619940 L -70.768262,-726.971724 L -74.229760,-726.975862 C -77.692738,-726.980002 -81.701260,-726.593491 -85.449987,-725.893983 L -87.444602,-725.521790 L -91.732804,-724.473027 C -94.091315,-723.896207 -97.789889,-722.787025 -99.951858,-722.008178 C -103.845784,-720.605394 -105.522040,-719.896402 -111.982646,-716.919613 C -113.817044,-716.074396 -116.229157,-714.971748 -117.342898,-714.469285 L -119.367883,-713.555714 L -132.232488,-707.030391 L -141.523592,-702.124601 L -145.469062,-699.813266 L -145.636115,-699.813266 L -154.388198,-694.637737 L -156.532299,-693.325337 C -160.923802,-690.637307 -165.451231,-687.756329 -168.920437,-685.442287 L -172.493939,-683.058677 L -176.305674,-680.341027 L -190.837913,-670.179826 L -197.508450,-665.166266 L -208.228954,-656.742546 L -212.040689,-653.601420 C -214.137143,-651.873801 -217.452966,-649.152018 -219.409183,-647.553013 C -221.365401,-645.954008 -224.328834,-643.466124 -225.994590,-642.024380 L -229.023238,-639.403029 L -240.152235,-629.594272 L -245.914483,-624.628139 L -256.113875,-615.607515 L -256.272697,-615.215104 L -251.349206,-615.258507 "/>
        <path style="fill:none;stroke-width:0.280000;stroke-linecap:round;stroke-linejoin:round;stroke-opacity:1;stroke:#000000;" d="M -564.387941,-526.331074 L -562.720307,-526.165427 L -557.802408,-526.127290 C -551.886175,-526.081410 -544.004455,-526.846938 -537.348446,-528.113923 L -535.561695,-528.454034 L -524.364723,-530.810402 L -516.979487,-532.559978 L -511.619235,-533.993069 C -505.924475,-535.515593 -501.713630,-536.753590 -493.632610,-539.281172 L -488.629708,-540.845981 L -485.532673,-541.909037 C -480.607413,-543.599631 -476.086523,-545.232301 -471.596017,-546.942107 L -467.426932,-548.529530 L -464.329898,-549.636158 L -460.399046,-551.179236 C -455.759457,-553.000532 -450.230334,-555.302380 -445.271223,-557.477151 L -441.697721,-559.044277 L -435.265419,-561.960529 C -431.727652,-563.564467 -425.670567,-566.383569 -421.805229,-568.225199 L -414.777343,-571.573618 L -405.724472,-576.177803 L -403.223021,-577.499898 C -396.507694,-581.049157 -391.269287,-584.036989 -386.070214,-587.283351 L -383.568763,-588.845286 L -379.686025,-591.436772 C -366.075628,-600.520864 -357.373671,-609.189930 -352.936059,-618.085631 C -351.125830,-621.714443 -350.573432,-624.002878 -350.573432,-627.873365 C -350.573432,-631.157591 -351.048494,-633.334762 -352.326643,-635.908191 C -354.331762,-639.945305 -357.333757,-642.928187 -362.604221,-646.120335 C -368.497505,-649.689705 -372.517393,-651.476129 -378.661657,-653.256202 L -382.356916,-654.326767 L -385.377765,-655.027558 L -395.718668,-656.639618 L -399.822268,-657.165761 L -412.395009,-657.868623 L -416.266389,-657.870132 C -420.891436,-657.871936 -428.220328,-657.517999 -433.955135,-657.015883 L -438.124220,-656.650856 L -440.506554,-656.303382 C -446.987663,-655.358084 -453.627156,-653.786124 -456.409332,-652.538256 C -458.714295,-651.504429 -460.633023,-649.511871 -460.636059,-648.148892 C -460.639085,-646.790237 -459.185915,-645.271822 -457.421128,-644.789615 C -455.999666,-644.401218 -453.571459,-644.447840 -453.410809,-644.866613 C -453.219336,-645.365732 -453.639988,-645.613676 -455.683852,-646.206408 C -457.866342,-646.839342 -459.232376,-647.827741 -458.833683,-648.485480 C -458.028146,-649.814410 -451.562179,-652.308428 -446.581507,-653.211323 L -444.556523,-653.578412 L -440.387437,-654.046534 C -438.094441,-654.304001 -434.020649,-654.696474 -431.334567,-654.918695 L -426.450781,-655.322735 L -411.442075,-655.343709 L -406.558289,-655.045390 C -391.578305,-654.130362 -379.540977,-651.410301 -370.465924,-646.889642 C -360.967457,-642.158064 -354.969562,-636.594308 -353.506906,-631.158152 C -352.970198,-629.163404 -352.966569,-625.604196 -353.499153,-623.555768 C -354.061016,-621.394730 -356.252363,-617.227136 -358.250873,-614.518748 L -359.935088,-612.236295 L -363.413755,-608.769779 C -367.369971,-604.827383 -370.795770,-601.923522 -375.945293,-598.147487 L -379.518795,-595.527114 L -381.305545,-594.315545 C -383.255644,-592.993213 -386.391544,-591.021097 -388.452548,-589.820912 L -389.762832,-589.057895 L -396.909835,-584.918398 L -405.009772,-580.900869 C -409.464737,-578.691227 -417.022693,-575.116612 -421.805229,-572.957279 L -430.500750,-569.031219 L -436.456586,-566.404625 L -438.838920,-565.455352 L -441.697721,-564.267272 C -443.270062,-563.613829 -446.003791,-562.465525 -447.772674,-561.715486 C -450.735237,-560.459305 -452.898242,-559.598031 -460.041696,-556.830160 C -469.354991,-553.221540 -481.264085,-549.312926 -491.845860,-546.391900 L -495.300244,-545.438341 L -497.682579,-544.922830 L -502.685481,-543.742182 C -509.114634,-542.224950 -516.461846,-540.872256 -524.841190,-539.663100 L -531.511727,-538.700528 L -536.276395,-538.015481 L -540.998352,-537.531790 C -548.428303,-536.770707 -553.774229,-536.505615 -558.670338,-536.655477 L -563.196774,-536.794023 L -565.698225,-537.175570 C -572.367076,-538.192770 -578.916818,-540.735842 -583.380085,-544.040915 C -586.267196,-546.178837 -589.458860,-549.712814 -590.775937,-552.229990 C -592.423997,-555.379737 -592.882480,-557.360490 -593.031194,-561.973227 C -593.163332,-566.071825 -592.902244,-569.253002 -592.123308,-573.035175 L -591.657061,-575.299069 L -590.445246,-579.111944 C -588.888326,-584.010664 -587.350645,-587.703478 -584.888385,-592.457006 C -582.245010,-597.560188 -580.165524,-601.075480 -577.416965,-605.087155 L -575.131157,-608.423420 L -572.974432,-611.283076 L -570.247765,-614.724927 C -567.178832,-618.598816 -563.442624,-622.912534 -561.154367,-625.223900 L -559.620873,-626.772881 L -553.429203,-632.277966 L -551.642452,-633.703870 C -545.298144,-638.766901 -538.516671,-643.238457 -528.295575,-649.098295 L -524.364723,-651.351884 L -521.982389,-652.455115 C -515.977977,-655.235687 -510.008590,-655.861774 -504.748873,-654.262619 C -502.138333,-653.468916 -498.409225,-651.227912 -495.976176,-648.990677 L -494.984475,-648.078788 L -492.934461,-645.375733 C -491.806954,-643.889053 -490.081995,-641.910198 -489.101218,-640.978278 L -487.317988,-639.283877 L -486.961356,-639.283877 C -486.408421,-639.283877 -486.529805,-639.763499 -487.498099,-641.404705 L -488.391475,-642.918927 L -493.312499,-649.050054 L -494.901955,-650.490698 C -500.215976,-655.307196 -507.421847,-657.675199 -514.518907,-656.937247 C -516.003255,-656.782905 -518.659860,-656.391133 -520.422475,-656.066642 L -523.627229,-655.476660 L -526.508824,-654.803646 L -533.643501,-652.385570 L -535.110791,-651.698736 C -535.917800,-651.320978 -537.689457,-650.397972 -539.047806,-649.647612 L -541.517531,-648.283320 L -549.855701,-642.553745 L -551.761569,-640.990319 C -553.818544,-639.302936 -558.180245,-635.504565 -560.687562,-633.217150 C -568.166797,-626.393876 -578.780725,-612.729160 -584.573355,-602.465803 L -585.649347,-600.559366 L -587.472213,-596.916469 C -590.933300,-589.999678 -594.163597,-581.420449 -595.925757,-574.465003 C -597.251851,-569.230760 -597.695112,-565.552518 -597.691905,-559.809265 L -597.689243,-555.043171 L -597.281882,-552.421820 C -596.877262,-549.818108 -595.539959,-545.476511 -594.536603,-543.509183 C -593.677264,-541.824235 -592.039945,-539.413017 -590.670027,-537.815020 C -585.669460,-531.981903 -577.278194,-527.988834 -567.332900,-526.709813 L -564.387941,-526.331074 "/>
        <path style="fill:none;stroke-width:0.280000;stroke-linecap:round;stroke-linejoin:round;stroke-opacity:1;stroke:#000000;" d="M -477.185232,-465.824840 L -475.765103,-465.617881 L -472.548951,-465.593474 C -468.450980,-465.562375 -465.152431,-466.005759 -460.536026,-467.208224 C -452.676338,-469.255490 -441.911519,-474.043587 -429.786049,-480.885545 L -427.641949,-482.095382 L -423.711097,-484.349092 C -421.549128,-485.588632 -418.225772,-487.568653 -416.325860,-488.749138 L -412.871476,-490.895474 L -410.250908,-492.504301 L -403.425537,-496.896828 L -392.621634,-504.212631 L -390.239299,-505.998474 L -376.898227,-515.452101 L -372.967375,-518.314669 C -370.805407,-519.889082 -367.106833,-522.621169 -364.748322,-524.385974 L -360.460120,-527.594710 L -354.821222,-532.165922 L -353.221826,-533.357445 L -346.954285,-538.346852 C -343.507138,-541.091026 -338.435439,-545.169163 -335.683842,-547.409380 C -332.932246,-549.649596 -328.769730,-553.019094 -326.433806,-554.897154 L -322.186671,-558.311807 L -320.001503,-556.189030 C -317.424773,-553.685872 -316.158364,-552.743000 -313.364254,-551.247441 C -310.242321,-549.576413 -308.219552,-548.953125 -305.412702,-548.797282 C -303.738905,-548.704349 -302.849306,-548.752785 -302.466549,-548.957691 C -301.761889,-549.334927 -302.096023,-549.673776 -303.760562,-550.269966 C -306.073227,-551.098296 -308.230301,-552.395660 -309.694724,-553.839046 L -311.161636,-555.284887 L -316.803513,-562.834740 L -315.910467,-563.659635 L -309.478164,-569.099811 L -300.425294,-576.969563 L -295.948596,-580.780077 L -292.231109,-583.994965 C -290.186491,-585.763153 -287.081824,-588.470890 -285.331849,-590.012158 L -282.150076,-592.814463 L -281.423083,-592.814463 L -266.119679,-593.998606 L -254.922708,-594.708069 L -234.911099,-595.672486 L -225.858228,-596.144355 L -218.711225,-596.386497 C -214.780374,-596.519675 -207.972853,-596.733392 -203.583402,-596.861423 L -195.602582,-597.094207 L -182.261510,-597.351378 C -174.923920,-597.492822 -162.620667,-597.575441 -154.920947,-597.534977 L -140.921457,-597.461405 L -142.651925,-596.157387 C -148.032246,-592.102972 -152.924085,-587.185187 -157.948103,-580.780077 C -160.648540,-577.337295 -161.735654,-575.180452 -161.717953,-573.300661 C -161.703255,-571.739786 -161.455137,-571.124695 -160.383369,-569.992186 C -159.274093,-568.820043 -157.416379,-568.516546 -155.162456,-569.139238 C -154.512091,-569.318915 -154.656464,-569.937214 -155.348783,-569.937214 C -156.171301,-569.937214 -157.391208,-570.480766 -157.932264,-571.088332 C -158.689879,-571.939076 -158.378352,-573.836922 -157.162751,-575.776266 L -156.160700,-577.374917 L -151.529396,-582.919827 L -143.905927,-590.597111 L -141.400423,-592.718582 C -140.022396,-593.885391 -138.050351,-595.483476 -137.018102,-596.269881 L -135.141285,-597.699709 L -84.109334,-597.823703 L -86.879435,-596.146779 L -97.212173,-590.613210 L -99.356274,-589.174778 C -109.129124,-582.618381 -114.128980,-577.555784 -117.537347,-570.765558 C -119.978290,-565.902656 -120.738898,-561.831001 -119.717593,-559.094351 C -119.095896,-557.428473 -117.753390,-555.995586 -116.034392,-555.163184 C -114.616634,-554.476654 -111.739579,-554.229756 -111.067968,-554.736985 L -110.629756,-555.067941 L -112.676214,-555.980081 C -114.032576,-556.584634 -114.999257,-557.198459 -115.542874,-557.800358 C -116.365274,-558.710929 -117.104665,-560.629086 -117.104665,-561.852019 L -117.104665,-562.497591 L -116.495951,-564.847151 C -114.831829,-571.270450 -109.899279,-577.960850 -103.168009,-582.924871 L -101.500375,-584.154679 L -91.494571,-590.853766 L -89.231353,-592.237413 C -87.986583,-592.998419 -85.311745,-594.619184 -83.287269,-595.839113 L -79.606402,-598.057166 L -73.865296,-598.058512 L -40.989082,-598.773255 L -28.839177,-599.242680 L -27.409776,-599.592979 C -25.833343,-599.979311 -22.888966,-601.173331 -22.463673,-601.598751 C -22.267897,-601.794586 -22.264707,-601.942306 -22.452203,-602.129858 L -22.711943,-602.389675 L -34.351964,-602.131596 C -40.753975,-601.989653 -51.727454,-601.756963 -58.737473,-601.614508 L -71.482962,-601.355499 L -74.101807,-601.512584 L -59.916522,-610.990745 L -59.776576,-611.217251 C -59.699605,-611.341829 -59.729133,-611.531453 -59.842193,-611.638637 L -60.047757,-611.833517 L -62.549208,-610.603018 C -63.925006,-609.926244 -66.605132,-608.394969 -68.505044,-607.200186 L -71.959429,-605.027852 L -73.746180,-603.957395 C -74.728893,-603.368644 -76.336968,-602.472531 -77.319681,-601.966032 L -79.106432,-601.045125 L -130.445737,-600.861799 L -130.437980,-601.274280 L -112.459113,-613.253448 L -109.719429,-614.992200 C -108.212602,-615.948513 -105.934495,-617.406210 -104.656968,-618.231527 L -102.334192,-619.732103 L -102.334192,-620.094955 C -102.334192,-620.294523 -102.489638,-620.457807 -102.679627,-620.457807 L -103.025062,-620.457807 L -105.122354,-619.547889 C -106.275865,-619.047435 -107.937186,-618.216347 -108.814178,-617.701028 C -109.691170,-617.185709 -111.540845,-616.120661 -112.924567,-615.334256 L -115.440424,-613.904428 L -120.262955,-610.900959 C -122.915346,-609.249050 -127.044718,-606.675360 -129.439337,-605.181646 L -133.793188,-602.465803 L -136.337316,-600.995781 L -175.114507,-600.679297 L -193.934948,-600.202609 L -216.328891,-599.481629 L -228.240563,-598.995684 L -250.634506,-597.817229 L -265.643212,-596.862535 L -274.219616,-596.120700 L -278.388701,-595.777826 L -278.388436,-596.031577 L -275.410783,-598.684060 L -263.499111,-609.056909 L -261.863138,-610.478290 C -260.241694,-611.887048 -260.217362,-611.898138 -259.123453,-611.726943 L -258.019742,-611.554214 L -253.969774,-611.562936 C -251.742291,-611.567733 -248.794152,-611.699966 -247.418354,-611.856788 L -244.916903,-612.141917 L -236.340500,-613.565758 L -232.528765,-614.307165 L -227.287629,-615.490410 C -224.405004,-616.141194 -219.687982,-617.317359 -216.805358,-618.104108 L -211.564222,-619.534562 L -206.799554,-620.990281 L -191.076147,-626.119916 L -187.979112,-627.234803 C -181.562868,-629.544557 -173.980029,-632.487996 -167.431478,-635.210803 C -165.826381,-635.878182 -163.253459,-636.947878 -161.713876,-637.587904 C -156.496687,-639.756760 -149.394619,-642.908906 -147.002961,-644.117121 L -145.811794,-644.718874 L -141.880942,-646.643692 C -139.718974,-647.702343 -136.127605,-649.511858 -133.900122,-650.664837 L -129.850154,-652.761163 L -128.182520,-653.679704 C -117.605599,-659.505522 -110.940625,-663.518690 -105.431227,-667.378897 C -98.751141,-672.059356 -93.210351,-676.386325 -88.176997,-680.853238 L -85.776968,-682.983174 L -76.208229,-692.544973 L -74.409618,-694.570563 C -73.420382,-695.684637 -71.518057,-697.829380 -70.182229,-699.336657 C -62.710438,-707.767427 -58.858277,-713.672948 -58.251174,-717.627453 C -57.393150,-723.216390 -60.711343,-727.995548 -66.478354,-729.476975 C -70.322487,-730.464454 -76.246963,-730.422310 -82.603885,-729.362264 L -85.386639,-728.898227 L -90.278181,-727.706756 C -92.968530,-727.051447 -96.808531,-725.960601 -98.811517,-725.282653 L -102.453309,-724.050021 L -114.603214,-718.574805 L -120.082583,-716.082582 L -126.276652,-713.042762 C -129.683390,-711.370861 -134.722028,-708.821778 -137.473624,-707.378133 L -142.476526,-704.753324 L -145.930911,-702.847182 C -151.942689,-699.529861 -157.622990,-696.168292 -165.942519,-691.004430 L -167.729270,-689.895408 L -174.161573,-685.422497 L -190.837913,-674.245635 L -197.508450,-669.459432 L -208.228954,-661.366554 L -212.755389,-657.723921 L -220.140626,-651.810829 L -225.143528,-647.671973 C -227.895124,-645.395603 -232.921301,-641.209765 -236.312810,-638.370112 L -242.479189,-633.207107 L -245.842147,-630.359999 C -247.691774,-628.794090 -250.705976,-626.163355 -252.540373,-624.513922 C -255.671758,-621.698279 -258.970002,-618.864806 -261.505326,-616.812262 L -262.608576,-615.919095 L -264.251346,-616.528194 C -269.395300,-618.435448 -271.429120,-622.728488 -270.557928,-629.840292 L -270.298940,-631.954484 L -269.765654,-632.597247 L -265.497520,-635.590154 L -257.066809,-641.672977 L -254.208007,-643.648817 L -248.013938,-648.214761 L -237.834717,-656.084357 L -236.578733,-657.019019 L -228.310269,-663.471802 L -227.050821,-664.425021 L -223.813035,-666.927220 C -222.032253,-668.303429 -219.257954,-670.448172 -217.647926,-671.693314 L -214.720602,-673.957208 L -203.696406,-682.774481 L -199.887727,-685.770035 C -197.792954,-687.417590 -194.103468,-690.303852 -191.688870,-692.183952 L -187.298691,-695.602315 L -182.194910,-699.694114 L -177.344424,-703.282904 C -172.923491,-706.553875 -169.367724,-709.105664 -161.654318,-714.542876 C -154.540747,-719.557261 -147.851311,-723.819677 -140.928009,-727.749392 C -132.953145,-732.275981 -128.586567,-734.414626 -122.975189,-736.542249 L -119.911960,-737.703711 L -119.580363,-737.703711 C -119.397985,-737.703711 -119.248766,-737.606103 -119.248766,-737.486805 C -119.248766,-737.190324 -120.894329,-735.108061 -122.907072,-732.857658 L -124.577121,-730.990413 L -128.166571,-727.843451 C -133.693836,-722.997559 -139.457477,-718.361477 -147.241195,-712.500455 L -151.052930,-709.630277 L -154.561462,-706.945303 L -161.296967,-701.504036 L -162.512572,-700.479923 C -163.181154,-699.916660 -164.635892,-698.689154 -165.745322,-697.752130 C -166.854753,-696.815107 -168.577111,-695.171306 -169.572784,-694.099239 C -171.317677,-692.220469 -172.891167,-689.764924 -172.561490,-689.435149 C -172.375844,-689.249448 -171.454241,-689.877284 -169.697397,-691.386293 C -169.008013,-691.978428 -167.800740,-692.839851 -167.014570,-693.300568 C -166.228399,-693.761284 -164.781131,-694.737998 -163.798418,-695.471043 L -162.011668,-696.803853 L -152.720564,-704.212407 L -138.426558,-714.955153 L -135.329523,-717.316071 C -129.128213,-722.043426 -124.530499,-725.956205 -120.911426,-729.586261 L -117.213833,-733.295074 L -116.064790,-734.837909 C -113.944379,-737.685014 -113.469093,-739.281368 -114.344108,-740.617209 C -115.235579,-741.978174 -118.013225,-742.256123 -121.154633,-741.298713 C -123.202789,-740.674496 -128.241988,-738.568662 -131.041321,-737.167161 L -132.947188,-736.212978 L -143.429460,-730.367841 L -146.526494,-728.609750 L -150.219113,-726.310157 C -152.250053,-725.045381 -156.002229,-722.603663 -158.557283,-720.884116 L -163.202835,-717.757669 L -168.682204,-713.890060 L -171.256757,-712.085957 L -182.499743,-703.873212 L -187.502645,-699.897529 L -192.148197,-696.202389 C -194.703251,-694.170063 -198.455427,-691.221374 -200.486368,-689.649748 L -204.178986,-686.792246 L -220.140626,-674.432861 L -224.383962,-671.216226 C -231.772724,-665.615219 -239.580699,-659.771503 -244.350521,-656.272672 L -248.966872,-652.886417 L -254.684474,-648.734061 L -258.972676,-645.714874 C -261.331187,-644.054321 -264.810318,-641.642339 -266.704077,-640.354915 C -269.951461,-638.147264 -270.263074,-637.990768 -272.183446,-637.603114 C -274.108845,-637.214446 -277.550207,-635.981036 -282.696851,-633.835030 L -284.980017,-632.883014 L -289.010037,-631.058736 C -291.226548,-630.055383 -295.184158,-628.160559 -297.804726,-626.848017 L -302.569395,-624.461577 L -305.189963,-623.019280 C -307.651388,-621.664571 -311.101895,-619.691221 -315.791350,-616.956331 L -317.816335,-615.775361 L -321.747186,-613.315954 C -334.266954,-605.482740 -343.271932,-598.740970 -349.417650,-592.599867 L -353.145653,-588.874663 L -353.427457,-587.827810 C -353.810557,-586.404657 -353.568456,-585.345739 -352.691154,-584.607317 C -351.707780,-583.779615 -350.767409,-583.823281 -348.197791,-584.815966 L -346.078345,-585.634741 L -342.310494,-587.547739 C -340.238176,-588.599887 -337.067961,-590.268943 -335.265572,-591.256752 L -331.988500,-593.052768 L -331.528970,-593.052768 C -331.276228,-593.052768 -330.318079,-592.894667 -329.399748,-592.701433 L -327.730057,-592.350097 L -320.675136,-591.606375 L -303.284095,-591.591983 L -292.801824,-592.126480 L -289.623297,-592.218702 L -295.184158,-587.371743 L -307.776383,-576.563276 L -310.890491,-573.864842 C -312.603251,-572.380703 -315.276076,-570.085560 -316.830103,-568.764525 L -319.655606,-566.362644 L -319.960436,-566.392692 L -322.581003,-569.491007 L -325.317280,-572.123315 C -330.928026,-577.520875 -336.602785,-580.429355 -343.409783,-581.396252 L -345.418120,-581.681526 L -355.695451,-581.407730 L -358.554252,-581.020157 C -366.838072,-579.897105 -382.920279,-575.212469 -397.094578,-569.793627 L -401.091055,-568.265771 L -403.407764,-567.298730 C -404.681953,-566.766858 -406.742920,-565.897855 -407.987690,-565.367613 L -410.250908,-564.403537 L -415.730277,-562.002181 C -418.743930,-560.681435 -423.782567,-558.298988 -426.927248,-556.707855 L -432.644851,-553.814884 L -436.694819,-551.494258 L -445.509456,-546.272271 L -448.314303,-544.412565 C -449.856969,-543.389726 -452.912313,-541.241944 -455.103956,-539.639716 L -459.088762,-536.726573 L -461.227376,-534.922857 C -466.361436,-530.592769 -473.244815,-523.927063 -476.501719,-520.131535 C -482.372446,-513.289911 -485.606265,-508.478625 -488.834974,-501.782074 L -490.615885,-498.088352 L -491.348468,-495.988508 C -494.048295,-488.249844 -493.809163,-479.782604 -490.749086,-474.765499 C -487.872948,-470.049968 -482.677247,-466.625204 -477.185232,-465.824840 "/>
    </g>
</svg>
