<svg xmlns="http://www.w3.org/2000/svg" viewBox="10.04 92.6 181.66 91.3" width="100%" preserveAspectRatio="xMidYMid meet"><path fill="currentColor" d="m 50.115128,179.83288 c -2.235036,-0.48177 -3.981046,-2.16145 -4.431846,-4.2635 -0.18795,-0.87635 -0.064,-3.09784 0.23076,-4.13459 0.31248,-1.0992 1.4871,-3.51893 2.37552,-4.89356 2.658599,-4.11362 7.475734,-8.44144 13.07178,-11.744 2.289296,-1.35105 2.44281,-1.43519 4.380201,-2.4007 3.522823,-1.75563 8.302765,-3.7495 11.845674,-4.94123 4.354331,-1.46466 6.893973,-2.11395 9.287918,-2.37457 1.946124,-0.21186 3.10762,-0.20948 4.257879,0.009 2.143065,0.40654 3.486116,1.17822 5.448126,3.13036 l 1.369261,1.36237 1.830002,-1.57881 c 1.006497,-0.86834 3.050037,-2.62867 4.541177,-3.91185 1.49115,-1.28318 2.69517,-2.34651 2.67562,-2.36296 -0.0195,-0.0164 -0.56429,0.0106 -1.21053,0.06 -4.07539,0.31185 -8.670521,0.23444 -10.678381,-0.17989 l -0.775006,-0.15992 -1.966607,1.05433 c -2.166239,1.16137 -3.586814,1.7689 -4.015163,1.71717 -0.153598,-0.0186 -0.380873,-0.17043 -0.505061,-0.33751 -0.404084,-0.54365 -0.160091,-0.98621 1.350838,-2.45018 3.685071,-3.57055 11.43818,-8.43438 18.47316,-11.58894 2.23802,-1.00356 3.99935,-1.6754 4.6242,-1.76385 0.57302,-0.0811 1.61184,-0.75301 5.68941,-3.67979 5.00194,-3.59028 15.10791,-11.27364 19.3032,-14.67583 3.1758,-2.57543 9.25029,-6.87628 12.36524,-8.7548 4.83462,-2.915612 8.44169,-4.560054 9.54743,-4.352615 0.46914,0.08801 0.86001,0.446628 0.85845,0.787622 -0.002,0.492606 -0.74726,1.503904 -2.11441,2.870093 -1.60689,1.60576 -2.45244,2.2998 -6.66889,5.47389 -1.66175,1.25094 -3.37386,2.55956 -3.80469,2.90804 -1.45419,1.17624 -2.79342,2.19208 -3.58088,2.71618 -0.43082,0.28675 -0.94697,0.65565 -1.147,0.8198 -0.23588,0.19357 -0.36229,0.24426 -0.35972,0.14424 0.02,-0.77929 2.40826,-2.92702 7.77191,-6.98931 2.94557,-2.2309 4.70967,-3.67093 6.2134,-5.07199 1.1172,-1.040907 2.21715,-2.305351 2.10394,-2.418563 -0.0752,-0.07521 -1.76538,0.556135 -2.94466,1.099933 -5.41139,2.49536 -12.4153,7.33999 -23.8912,16.52564 -1.47469,1.18038 -9.22156,7.20461 -11.5208,8.95896 -0.5203,0.39699 -2.35768,1.73345 -4.08306,2.9699 l -3.13707,2.24809 -0.091,0.49352 c -0.14491,0.78555 -0.0379,2.33843 0.19211,2.78753 0.32857,0.64155 0.9607,1.21539 1.60399,1.45608 l 0.59791,0.2237 1.14686,-0.97977 c 0.63077,-0.53887 1.79891,-1.55278 2.59587,-2.25313 3.95943,-3.47946 11.41905,-9.57271 14.93663,-12.20072 2.48534,-1.85682 9.11288,-6.37195 11.66247,-7.94528 4.08043,-2.51799 9.46265,-5.37855 14.12773,-7.50865 1.10784,-0.50584 2.34156,-1.07085 2.74161,-1.25557 2.42709,-1.12069 6.74259,-2.1924 9.2393,-2.2945 2.88748,-0.11808 4.23369,0.41757 4.94759,1.96862 0.39812,0.86495 0.32389,2.01288 -0.1964,3.03737 -0.80056,1.57636 -3.50643,4.84896 -6.32516,7.64994 -4.67908,4.64962 -8.85652,7.55418 -16.72944,11.6319 -7.66293,3.96895 -18.86539,8.20277 -26.54508,10.03235 -4.19913,1.00039 -6.65182,1.37496 -9.10676,1.39076 l -1.9132,0.0123 -2.43842,2.12615 c -1.34113,1.16938 -2.56997,2.24276 -2.73076,2.38529 l -0.29233,0.25914 0.89522,-0.0635 c 0.49237,-0.0349 1.85199,-0.13638 3.02137,-0.2255 7.80353,-0.59465 18.16348,-0.99805 30.77322,-1.19825 l 8.39269,-0.13325 1.11903,-0.67138 c 0.61546,-0.36927 1.39599,-0.85634 1.73449,-1.08238 2.20392,-1.47173 6.71061,-4.02605 7.10333,-4.02605 0.37869,0 0.10693,0.24155 -1.20047,1.06702 -0.75394,0.47603 -2.66479,1.72736 -4.24632,2.78073 l -2.87551,1.91523 7.78828,0.0287 7.78829,0.0288 0.85021,-0.46472 c 0.46762,-0.25559 1.42931,-0.82995 2.13709,-1.27635 1.04825,-0.66113 2.59714,-1.50564 2.76145,-1.50564 0.0199,0 0.0361,0.0491 0.0361,0.10912 0,0.06 -0.96417,0.75241 -2.14259,1.53866 l -2.1426,1.42954 1.38725,0.0353 c 0.76299,0.0194 3.45186,-0.0184 5.97526,-0.0841 5.59363,-0.14551 8.22484,-0.15162 8.22484,-0.0191 0,0.055 -0.33961,0.23595 -0.75468,0.40212 -1.01099,0.40473 -1.93268,0.46195 -9.98797,0.62013 l -6.5463,0.12854 -1.6196,0.96148 c -2.01333,1.19523 -4.68774,2.96588 -5.90495,3.90952 -2.32547,1.80281 -4.13534,4.98691 -3.71722,6.5397 0.14868,0.55216 0.71679,1.12118 1.31722,1.31934 0.25783,0.0851 0.46878,0.19701 0.46878,0.2487 0,0.0517 -0.29228,0.094 -0.64951,0.094 -0.52377,0 -0.74811,-0.0625 -1.15885,-0.32301 -1.19484,-0.75775 -1.28278,-2.18821 -0.26695,-4.34232 1.25771,-2.66705 3.69964,-4.82337 8.19899,-7.24006 0.99848,-0.53631 1.84193,-1.01799 1.87433,-1.07041 0.0324,-0.0524 -3.40307,-0.0687 -7.63436,-0.0363 l -7.69327,0.059 -0.39166,0.28775 c -2.18588,1.6059 -5.18615,4.64637 -6.25297,6.33673 -0.57736,0.91484 -0.41216,1.54245 0.45743,1.73777 l 0.36826,0.0827 -0.31501,0.12789 c -0.94425,0.38336 -1.86898,-0.22983 -1.86599,-1.23735 4.2e-4,-0.20309 0.11851,-0.62102 0.26202,-0.92876 0.57008,-1.22241 3.26545,-4.20656 5.11567,-5.66378 l 0.90741,-0.71466 -3.39488,-0.0355 c -7.00575,-0.0733 -24.61942,0.44152 -31.81814,0.92999 -5.66436,0.38435 -7.39943,0.53395 -7.54789,0.65078 -0.0931,0.0733 -0.95079,0.81426 -1.90587,1.64656 -0.95508,0.8323 -2.59256,2.24677 -3.63884,3.14327 -3.947118,3.38206 -4.700753,4.03802 -4.73041,4.11734 -0.04317,0.11543 1.35835,1.97484 1.97589,2.62143 0.51854,0.54294 1.1574,0.93269 1.94902,1.18904 0.69273,0.22434 0.44485,0.39788 -0.54837,0.38392 -0.69526,-0.01 -1.0396,-0.0783 -1.61155,-0.32069 -1.014062,-0.42977 -2.172889,-1.20286 -2.863832,-1.91057 l -0.585119,-0.59932 -1.60463,1.29817 c -8.61166,6.96694 -11.938134,9.52714 -17.637338,13.57447 -10.052663,7.13895 -18.449211,11.75819 -23.304242,12.82048 -0.949603,0.20777 -3.842349,0.31349 -4.528868,0.16551 z m 3.757022,-2.08382 c 3.468641,-0.65799 8.468401,-2.9686 14.902161,-6.88695 7.788146,-4.74322 14.927348,-9.80405 22.856684,-16.20264 1.107838,-0.89397 2.607275,-2.1026 3.332082,-2.68585 l 1.317836,-1.06044 -0.64642,-0.65929 c -0.977023,-0.99647 -2.352674,-2.06609 -3.148032,-2.44771 -1.826213,-0.87622 -4.680636,-0.99288 -7.90533,-0.3231 -5.173758,1.07461 -12.030474,3.52712 -19.023444,6.80431 -4.077618,1.91094 -7.760376,4.26026 -10.722044,6.83986 -2.022938,1.76197 -5.407191,5.96436 -6.505461,8.07816 -0.94325,1.81544 -1.30352,2.94522 -1.37107,4.29958 -0.0485,0.97309 -0.023,1.20585 0.19568,1.78478 0.45616,1.20751 1.49439,2.05332 3.016286,2.45728 0.821581,0.21807 2.557115,0.21902 3.701072,0.002 z m 39.385498,-37.5744 c 5.08579,-2.8211 9.878512,-5.71752 15.391652,-9.30172 2.13358,-1.38707 2.4627,-1.63246 1.83728,-1.3698 -5.20867,2.18747 -9.3364,4.38578 -13.708067,7.30052 -2.51864,1.67926 -6.282602,4.62414 -5.926775,4.63703 0.06378,0.002 1.14644,-0.5674 2.40591,-1.26603 z m 12.662732,0.8872 c 1.08905,-0.0871 2.05386,-0.20027 2.14401,-0.25139 0.0901,-0.0511 0.9092,-0.74757 1.82009,-1.54768 0.91089,-0.8001 2.23729,-1.95265 2.94755,-2.56122 0.71026,-0.60858 1.30528,-1.14123 1.32226,-1.18367 0.017,-0.0425 -0.0837,-0.1302 -0.2238,-0.195 -0.55519,-0.25683 -1.31727,-1.06726 -1.66193,-1.76736 -0.34223,-0.69519 -0.35117,-0.75145 -0.31007,-1.95241 0.0233,-0.68012 0.0248,-1.23659 0.003,-1.23659 -0.0214,0 -0.90345,0.59617 -1.96007,1.32483 -3.7005,2.55192 -7.9413,5.24875 -12.164175,7.73552 -2.743956,1.61587 -2.632774,1.54472 -2.547374,1.63012 0.283124,0.28312 7.113639,0.28624 10.630129,0.005 z m 13.70043,-6.38119 c 1.64861,-0.19441 3.25928,-0.49032 5.90564,-1.08498 7.69995,-1.73024 17.0514,-5.1557 25.7994,-9.45039 4.73772,-2.3259 7.22357,-3.69906 11.08354,-6.1224 2.2078,-1.38608 2.22091,-1.39533 4.1404,-2.92085 3.31465,-2.63432 8.3854,-8.36118 9.1793,-10.36703 0.3058,-0.77261 0.2722,-1.84504 -0.0725,-2.31495 -0.3019,-0.41154 -1.18331,-0.99966 -1.75955,-1.17406 -0.67896,-0.20549 -3.35761,-0.16283 -4.71752,0.0751 -2.85417,0.49944 -5.01119,1.19404 -8.11294,2.6125 -5.24284,2.39762 -9.30427,4.53452 -13.65212,7.18299 -2.75286,1.67689 -3.8118,2.37483 -7.41056,4.88425 -4.22365,2.94516 -6.75313,4.887 -11.78073,9.04389 -2.03677,1.68403 -11.11793,9.61201 -11.12692,9.71395 -0.0115,0.13012 1.03317,0.0978 2.52458,-0.078 z m 11.02323,27.77394 c -1.24876,-3.51948 -2.07085,-5.76211 -2.21817,-6.05107 -0.0886,-0.17383 -0.30897,-0.36759 -0.48966,-0.43058 -0.18069,-0.063 -0.32853,-0.15996 -0.32853,-0.21548 0,-0.14008 2.76674,-0.12947 2.85352,0.011 0.038,0.0615 -0.0267,0.1119 -0.14391,0.1119 -0.2283,0 -0.58346,0.32681 -0.58346,0.53689 0,0.17413 1.09381,3.41812 1.74327,5.17014 0.0892,0.24075 0.14439,0.11659 0.82846,-1.86522 l 0.58588,-1.69736 -0.25394,-0.76309 c -0.27318,-0.8209 -0.72404,-1.38136 -1.11123,-1.38136 -0.13145,0 -0.20789,-0.0504 -0.16985,-0.1119 0.0821,-0.13285 3.07732,-0.15537 3.07732,-0.0231 0,0.0488 -0.16366,0.13694 -0.36368,0.19583 -0.59324,0.17465 -0.54806,0.52416 0.42689,3.30261 0.4739,1.35055 0.89301,2.45554 0.93135,2.45554 0.0384,0 0.12177,-0.16366 0.1854,-0.36368 0.0636,-0.20003 0.46395,-1.38659 0.88958,-2.63682 0.84091,-2.47006 0.84695,-2.55996 0.18483,-2.74985 -0.65352,-0.18743 -0.35809,-0.29239 0.82295,-0.29239 1.18014,0 1.45713,0.10355 0.84645,0.31644 -0.18251,0.0636 -0.40743,0.2671 -0.50604,0.45779 -0.0976,0.1888 -0.6079,1.58993 -1.13393,3.11362 -1.42178,4.11831 -1.46263,4.22509 -1.61646,4.22509 -0.0834,0 -0.47111,-0.9233 -0.93974,-2.23805 -1.06232,-2.98038 -0.95432,-2.75633 -1.13271,-2.34996 -0.0811,0.18464 -0.48438,1.30507 -0.89629,2.48984 -0.41191,1.18477 -0.80584,2.15412 -0.87542,2.15412 -0.0696,0 -0.34537,-0.61686 -0.61288,-1.37081 z m 9.16182,1.19254 c -1.64798,-0.71465 -2.05296,-3.29014 -0.74351,-4.72836 0.82086,-0.90159 2.41095,-1.00426 3.36565,-0.21732 1.60329,1.32157 1.1053,4.35157 -0.82122,4.99659 -0.52321,0.17518 -1.33232,0.15231 -1.80092,-0.0509 z m 2.03695,-0.58016 c 0.80117,-0.74499 0.62249,-3.2956 -0.29098,-4.15376 -0.41489,-0.38977 -0.86674,-0.46657 -1.38359,-0.23517 -0.62638,0.28044 -0.84868,0.88055 -0.79465,2.14516 0.0534,1.24927 0.4442,2.09105 1.12789,2.42932 0.54702,0.27064 0.90382,0.22128 1.34133,-0.18555 z m 3.94113,0.54661 c -1.30769,-0.59394 -1.87706,-2.5223 -1.16399,-3.94228 0.51682,-1.02919 1.22935,-1.49042 2.29093,-1.48292 2.2942,0.0162 3.31708,2.6764 1.83138,4.76287 -0.54453,0.76473 -2.01033,1.0929 -2.95832,0.66233 z m 2.00564,-0.44639 c 0.41385,-0.36044 0.5649,-0.82312 0.57056,-1.7477 0.007,-1.16453 -0.20567,-1.87675 -0.7233,-2.42089 -0.35698,-0.37526 -0.47732,-0.43263 -0.90754,-0.43263 -0.27279,0 -0.60371,0.0754 -0.73537,0.16767 -0.68315,0.4785 -0.80301,2.47472 -0.22012,3.6661 0.39982,0.81721 0.87861,1.1314 1.52873,1.00317 0.15387,-0.0304 0.37303,-0.13643 0.48704,-0.23572 z m 3.92598,0.50014 c -0.45649,-0.19881 -1.1007,-0.967 -1.26178,-1.50464 -0.40299,-1.34505 0.19846,-3.03126 1.31451,-3.68531 0.63159,-0.37013 1.56987,-0.41144 2.05258,-0.0904 l 0.30773,0.20469 -0.0112,-0.93606 c -0.0155,-1.29847 -0.0802,-1.48115 -0.55307,-1.5606 l -0.38695,-0.065 0.63967,-0.29559 c 0.35182,-0.16258 0.76726,-0.32762 0.9232,-0.36676 l 0.28353,-0.0712 v 3.58574 c 0,2.05899 0.0465,3.70794 0.10913,3.87276 0.084,0.22081 0.18724,0.28705 0.44761,0.28705 0.52706,0 0.40366,0.14091 -0.41723,0.47644 -0.95054,0.38852 -1.03473,0.38617 -1.03473,-0.0289 0,-0.37544 -0.12048,-0.42726 -0.34999,-0.15052 -0.37684,0.4544 -1.39962,0.61709 -2.06305,0.32817 z m 2.11548,-0.76904 0.31791,-0.22165 -0.0382,-1.57975 c -0.0452,-1.87309 -0.18957,-2.25577 -0.95132,-2.52219 -0.41628,-0.14559 -0.48721,-0.14067 -0.83398,0.0578 -0.58871,0.337 -0.90138,1.0757 -0.90545,2.13917 -0.004,0.9865 0.16742,1.49023 0.66884,1.96796 0.56485,0.53817 1.12468,0.58914 1.74216,0.15863 z M 23.172082,161.52716 c -3.93996,-0.53701 -6.86615,-2.37083 -8.19123,-5.13338 -0.65243,-1.36018 -0.86183,-2.34362 -0.92805,-4.3585 -0.10265,-3.12315 0.53265,-5.9583 2.21398,-9.88031 2.01396,-4.69791 5.80146,-9.99549 9.48812,-13.27105 4.44719,-3.95129 7.33452,-5.55737 11.43548,-6.361 1.66651,-0.32657 3.77253,-0.35272 4.74917,-0.059 0.91578,0.27545 2.01644,0.84814 2.74016,1.42576 1.06562,0.85049 3.22621,3.67926 2.81019,3.67926 -0.21113,0 -1.1307,-0.91943 -1.80589,-1.80561 -1.96024,-2.57278 -4.50301,-3.5062 -7.42763,-2.72658 -1.81814,0.48466 -7.29724,3.77268 -10.39565,6.23846 -4.91621,3.91241 -9.79036,10.7181 -11.57888,16.1674 -0.70169,2.13793 -0.84569,2.97581 -0.85147,4.95446 -0.004,1.53001 0.0254,1.82275 0.25363,2.48317 0.93565,2.70793 3.74887,4.69922 7.74235,5.48028 0.94788,0.18539 5.23119,0.18532 6.93796,-1.2e-4 6.37597,-0.69273 12.6197,-1.86025 17.233,-3.22241 3.135614,-0.92585 8.280582,-2.74755 11.022406,-3.90275 0.492369,-0.20745 1.650562,-0.68828 2.573758,-1.06852 2.74596,-1.13097 7.988665,-3.50471 10.742649,-4.86395 4.069752,-2.00864 6.554852,-3.49037 9.28991,-5.53908 5.622851,-4.21181 7.629222,-7.59153 6.21368,-10.4669 -0.468947,-0.95257 -1.176025,-1.707 -2.455187,-2.6196 -2.522044,-1.79933 -5.019579,-2.7436 -9.019909,-3.41027 -4.237688,-0.70622 -8.947494,-0.77913 -14.096399,-0.21821 -2.797712,0.30478 -5.006904,0.90688 -5.744167,1.56554 l -0.301902,0.26971 0.255823,0.2167 c 0.140703,0.11919 0.534362,0.29767 0.874798,0.39664 0.685013,0.19914 0.759028,0.42677 0.157845,0.48545 -0.476491,0.0465 -1.295487,-0.26441 -1.512459,-0.57418 -0.912931,-1.30339 1.554571,-2.45669 6.519215,-3.04706 5.22775,-0.62165 11.360479,-0.44243 15.917448,0.46519 4.357134,0.86782 8.27494,2.96879 9.747131,5.22703 0.578251,0.88699 0.798391,1.69934 0.793535,2.92824 -0.0049,1.25293 -0.147779,1.89336 -0.641788,2.8777 -1.70902,3.40534 -5.147476,6.48891 -11.353615,10.18178 -5.163704,3.07259 -15.215652,7.82527 -22.27557,10.53216 -8.450642,3.24012 -15.256672,5.24506 -22.093812,6.50846 -3.30184,0.61012 -6.62646,0.77383 -9.03863,0.44506 z m 89.253628,-10.6143 c -0.43795,-0.19972 -0.5963,-0.48082 -0.5963,-1.05854 0,-0.84359 1.33727,-2.51476 2.96434,-3.7045 1.92861,-1.41022 5.75911,-3.21276 8.17906,-3.84887 2.0849,-0.54804 3.3748,-0.33535 3.87206,0.63845 0.27258,0.5338 0.41906,1.89708 0.21725,2.02181 -0.0854,0.0528 -0.12585,-0.07 -0.12585,-0.38199 0,-0.56804 -0.20781,-0.98459 -0.71206,-1.42733 -0.85362,-0.74949 -1.54303,-0.74355 -3.84592,0.0331 -4.04053,1.36271 -7.1336,3.1508 -8.83654,5.10831 -0.70502,0.81043 -1.06936,1.45528 -1.0196,1.80464 0.0308,0.21652 0.0947,0.24004 0.58217,0.21445 1.03833,-0.0545 2.83165,-0.88207 6.63844,-3.0635 3.09282,-1.77229 4.55752,-2.50415 4.59885,-2.29789 0.0193,0.0962 -0.0165,0.27127 -0.0795,0.38901 -0.12871,0.2405 -0.95872,3.20732 -1.07755,3.85165 l -0.0769,0.41716 0.54353,-0.1622 c 1.57573,-0.47026 2.66122,-0.90607 3.93901,-1.58147 0.77898,-0.41175 1.8721,-0.98416 2.42915,-1.27202 0.55706,-0.28786 1.50219,-0.82123 2.1003,-1.18526 0.59811,-0.36403 1.27535,-0.77434 1.50498,-0.91181 0.4814,-0.28818 0.98026,-0.3286 1.073,-0.0869 0.0382,0.0994 -0.16121,0.44937 -0.49406,0.86724 -0.89697,1.1261 -1.41696,1.95309 -1.49728,2.38129 -0.0811,0.43214 0.005,0.84426 0.20393,0.97524 0.3377,0.22247 1.31462,0.0303 3.53783,-0.69597 0.85325,-0.27874 2.78365,-1.35845 4.06103,-2.27142 0.59579,-0.42582 1.08649,-0.45293 1.08649,-0.06 0,0.11986 -0.35504,0.90321 -0.78897,1.74079 -0.89639,1.73022 -0.95646,2.09798 -0.38705,2.36965 0.18406,0.0878 0.58691,0.18414 0.89522,0.21404 l 0.56056,0.0544 -0.39166,0.1419 c -0.86427,0.31315 -1.91016,0.10368 -2.07496,-0.41555 -0.24922,-0.78525 -0.0827,-1.93967 0.397,-2.75276 0.12277,-0.20808 0.22322,-0.39363 0.22322,-0.41234 0,-0.0187 -0.5665,0.34255 -1.2589,0.80277 -1.6789,1.11595 -2.70698,1.60055 -4.08044,1.92334 -1.02924,0.2419 -1.18864,0.25357 -1.6017,0.11724 -0.51758,-0.17081 -0.92488,-0.59503 -1.11007,-1.15617 -0.16718,-0.50656 0.0785,-1.23612 0.73254,-2.175 0.57068,-0.81926 0.58236,-0.82282 -1.28023,0.39026 -3.33801,2.174 -7.416,4.17286 -8.51328,4.17286 -0.71163,0 -1.0167,-0.36031 -1.01423,-1.19787 0.002,-0.57953 0.27151,-1.88816 0.49707,-2.41099 0.1688,-0.39129 0.10091,-0.35944 -2.47522,1.16117 -1.72016,1.01535 -3.8635,2.10653 -4.93454,2.51219 -0.93308,0.3534 -2.06732,0.45402 -2.56416,0.22745 z m 52.3721,-1.63942 c -0.74432,-0.14726 -1.33169,-0.50067 -1.49754,-0.90106 -0.13435,-0.32437 -0.12273,-0.40531 0.12386,-0.86215 0.20244,-0.37504 0.45305,-0.61241 0.97846,-0.92673 0.71531,-0.42792 2.44588,-1.11355 2.89646,-1.14753 0.57818,-0.0436 0.1837,0.24007 -1.20308,0.86516 -2.23241,1.00626 -2.85905,1.74041 -1.89614,2.22143 0.29943,0.14959 0.6732,0.1957 1.5873,0.19583 1.77677,2.6e-4 3.32579,-0.39156 5.18281,-1.31099 0.89651,-0.44386 2.62971,-1.50444 2.62971,-1.60916 0,-0.0386 -0.39026,-0.10491 -0.86724,-0.14736 -1.88801,-0.16802 -3.48917,-0.68758 -3.72689,-1.20933 -0.16581,-0.36392 0.0272,-0.8178 0.43818,-1.03032 0.83594,-0.43228 2.90921,-0.4837 4.35188,-0.10793 0.97845,0.25486 1.46567,0.5769 1.61208,1.06556 0.12529,0.41818 0.12622,0.4187 0.86522,0.48548 1.25904,0.11377 1.94836,0.27159 3.10969,0.71197 1.21939,0.4624 2.16217,0.96621 2.16217,1.15543 0,0.14224 -0.49252,0.0805 -2.40591,-0.30185 -0.73856,-0.14756 -1.98065,-0.34987 -2.7602,-0.44957 l -1.41738,-0.18126 -0.56676,0.44799 c -1.19191,0.94215 -3.82081,2.2488 -5.32689,2.64764 -1.60287,0.42447 -3.30564,0.5795 -4.26979,0.38875 z m 9.58516,-4.69094 c 0,-0.33261 -3.26313,-0.75279 -3.7463,-0.48239 -0.15939,0.0892 -0.0563,0.13814 0.51459,0.24438 1.6585,0.30862 3.23171,0.42449 3.23171,0.23801 z m -25.64148,3.48314 c -0.65413,-0.58446 -0.39268,-1.3968 0.71107,-2.20933 0.85839,-0.63191 1.96239,-1.1624 3.33321,-1.60165 1.30238,-0.41732 1.92428,-0.52139 2.19793,-0.36779 0.23747,0.13329 0.28001,0.11315 -0.8551,0.40488 -1.17219,0.30126 -3.5414,1.511 -4.23558,2.16273 -0.71669,0.67286 -0.74225,0.95875 -0.0905,1.01248 0.95111,0.0784 2.9152,-0.62424 5.98558,-2.14136 1.43937,-0.71121 1.86701,-0.87804 2.01424,-0.78576 0.45999,0.28826 0.13259,0.98072 -0.65325,1.38162 -0.23504,0.11992 -0.61756,0.45015 -0.85004,0.73385 -0.52832,0.64475 -0.44522,0.87158 0.33806,0.92268 0.33473,0.0218 0.51164,0.0812 0.48448,0.16271 -0.0713,0.21401 -0.72421,0.32334 -1.18686,0.19876 -0.57572,-0.15502 -0.84627,-0.46713 -0.76354,-0.8808 l 0.0646,-0.32314 -1.5887,0.63769 c -2.02668,0.81351 -2.75488,1.00965 -3.74839,1.00965 -0.72284,0 -0.83731,-0.0314 -1.15721,-0.31722 z M 48.492542,141.39628 c 0,-0.60215 2.307696,-2.41705 7.273668,-5.72041 2.061806,-1.37151 4.875171,-3.25287 6.251926,-4.18079 2.406409,-1.6219 3.810126,-2.47133 4.356217,-2.63609 0.151327,-0.0457 0.325857,-0.0206 0.424106,0.061 0.141579,0.1175 0.06847,0.20114 -0.480958,0.55023 -0.356351,0.22642 -1.378075,0.95128 -2.270497,1.6108 -5.029776,3.71711 -6.107734,4.48637 -8.504596,6.06909 -6.917136,4.5676 -7.049866,4.64755 -7.049866,4.24619 z m 46.103872,-12.2951 c 0,-0.0189 0.465796,-0.50991 1.035097,-1.09105 1.052141,-1.07401 4.25798,-4.52099 5.550499,-5.968 0.39088,-0.43761 1.10187,-1.30134 1.57995,-1.91939 0.47809,-0.61806 1.64378,-2.04669 2.59043,-3.17475 0.94664,-1.12805 2.06404,-2.47204 2.48312,-2.98663 0.41908,-0.51459 0.973,-1.11273 1.23093,-1.32919 0.90882,-0.7627 3.26883,-2.40746 3.45483,-2.40778 0.10355,-1.8e-4 0.21871,0.0956 0.25591,0.21276 0.0807,0.25438 -0.60191,2.43295 -1.10843,3.5374 -0.68531,1.49428 -4.26876,5.60516 -6.69967,7.68576 -2.87668,2.46211 -3.12338,2.65048 -6.400123,4.88674 -0.923199,0.63005 -2.124075,1.47022 -2.668618,1.86705 -0.829345,0.60438 -1.303925,0.85445 -1.303925,0.68708 z"/></svg>